<?xml version="1.0" encoding="UTF-8"?>
<svg xmlns="http://www.w3.org/2000/svg" xmlns:xlink="http://www.w3.org/1999/xlink" width="8.907331in" height="6.122914in" version="1.1" viewBox="-12.101959 -44.592137 1175.767661 808.224604">
  <!--
	Exported with Concepts: Smarter Sketching
	Version: 414
	iOS Version: 11.0
	https://concepts.tophatch.com/
	-->
  <title>Untitled</title>
  <desc>Drawing exported from Concepts: Smarter Sketching</desc>
  <g id="Fill" opacity="1.000">
    <path id="STROKE_FB5648EC-AAE3-4896-A2DC-9A7D8F73FD59" opacity="0.544" fill="#00b7d9" stroke="#00b7d9" stroke-width="1.000" stroke-opacity="1.000" stroke-linecap="round" stroke-linejoin="round" d="M 451.795 226.889 Q 451.473 248.332 469.306 247.403 Q 487.139 246.474 491.246 268.260 Q 495.352 290.047 494.435 298.713 Q 493.519 307.380 488.073 310.561 Q 482.626 313.743 461.603 318.846 Q 440.580 323.949 443.040 360.612 Q 445.500 397.275 445.636 416.478 Q 445.772 435.682 432.316 441.446 Q 418.861 447.211 400.027 450.520 Q 381.193 453.829 380.531 447.135 Q 379.869 440.441 383.246 418.400 Q 386.622 396.359 392.001 371.136 Q 397.380 345.914 400.027 325.132 Q 402.674 304.351 368.059 307.125 Q 333.445 309.899 320.787 312.610 Q 308.129 315.321 293.011 321.289 Q 277.893 327.257 273.583 325.794 Q 269.273 324.331 284.646 283.557 Q 300.019 242.783 319.650 201.005 Q 339.282 159.226 354.859 129.180 Q 370.435 99.134 375.882 90.124 Q 381.328 81.114 389.150 72.715 Q 396.973 64.316 405.796 58.424 Q 414.619 52.532 419.591 52.392 Q 424.562 52.252 433.640 66.556 Q 442.718 80.860 447.299 102.367 Q 451.880 123.873 452.203 145.329 Q 452.525 166.785 450.862 181.674 Q 449.199 196.563 450.659 201.005 Q 452.118 205.446 451.795 226.889 Z"></path>
    <path id="STROKE_496A1E13-356A-4E48-817B-F961B74C7843" opacity="0.544" fill="#00b7d9" stroke="#00b7d9" stroke-width="1.000" stroke-opacity="1.000" stroke-linecap="round" stroke-linejoin="round" d="M 778.391 215.436 Q 777.797 210.078 767.192 206.629 Q 756.588 203.181 743.930 209.073 Q 731.272 214.965 721.057 226.685 Q 710.842 238.406 691.414 269.317 Q 671.986 300.228 660.312 324.865 Q 648.639 349.502 635.590 385.045 Q 622.542 420.589 619.810 433.633 Q 617.078 446.677 620.133 451.372 Q 623.187 456.068 635.455 457.786 Q 647.722 459.504 674.905 453.485 Q 702.087 447.466 713.235 447.402 Q 724.383 447.338 730.542 450.253 Q 736.701 453.167 738.687 458.321 Q 740.672 463.475 737.889 470.830 Q 735.106 478.186 730.203 511.413 Q 725.299 544.640 724.569 562.914 Q 723.840 581.189 726.164 586.152 Q 728.489 591.115 752.091 588.010 Q 775.693 584.905 784.041 574.037 Q 792.390 563.169 791.388 546.091 Q 790.387 529.013 789.997 497.771 Q 789.607 466.529 794.986 460.764 Q 800.364 454.999 811.631 450.774 Q 822.898 446.549 827.004 442.044 Q 831.110 437.539 830.245 419.265 Q 829.379 400.991 825.545 395.493 Q 821.710 389.996 806.320 390.327 Q 790.930 390.658 785.823 367.089 Q 780.716 343.521 779.392 311.554 Q 778.069 279.586 778.527 250.190 Q 778.985 220.793 778.391 215.436 Z"></path>
    <path id="STROKE_57B46274-DC7E-4FE4-8DB9-8A8FC9581BB5" opacity="0.544" fill="#00b7d9" stroke="#00b7d9" stroke-width="1.000" stroke-opacity="1.000" stroke-linecap="round" stroke-linejoin="round" d="M 475.330 353.931 Q 480.624 354.796 478.503 354.796 Q 476.382 354.796 488.989 370.742 Q 501.596 386.687 505.448 390.327 Q 509.299 393.966 501.460 399.400 Q 493.621 404.834 482.880 416.478 Q 472.140 428.122 484.543 442.821 Q 496.947 457.519 499.271 458.054 Q 501.596 458.588 513.931 446.868 Q 526.267 435.147 530.034 430.451 Q 533.801 425.755 540.910 434.753 Q 548.020 443.750 552.312 451.232 Q 556.605 458.715 571.605 443.228 Q 586.604 427.741 586.927 424.165 Q 587.249 420.589 580.360 411.922 Q 573.471 403.256 566.837 400.075 Q 560.203 396.893 559.337 393.584 Q 558.472 390.276 568.228 378.288 Q 577.985 366.300 586.604 353.918 Q 595.224 341.536 595.479 339.423 Q 595.733 337.311 586.197 333.608 Q 576.661 329.904 571.673 329.497 Q 566.684 329.090 556.673 336.382 Q 546.662 343.674 539.383 350.953 Q 532.104 358.232 526.403 355.980 Q 520.702 353.727 513.796 343.203 Q 506.890 332.679 503.903 330.821 Q 500.917 328.963 485.476 341.014 Q 470.036 353.065 475.330 353.931 Z"></path>
    <path id="STROKE_1E59B14F-3DFF-487C-90EB-98709899BAAB" opacity="0.344" fill="#85929c" stroke="#85929c" stroke-width="1.000" stroke-opacity="1.000" stroke-linecap="round" stroke-linejoin="round" d="M 27.439 617.217 Q 29.070 617.457 30.277 625.263 Q 31.483 633.069 34.296 665.989 Q 37.109 698.908 47.111 697.998 Q 57.113 697.089 56.011 679.076 Q 54.909 661.063 58.104 669.423 Q 61.298 677.783 65.004 683.761 Q 68.709 689.740 78.428 687.311 Q 88.147 684.883 90.812 682.557 Q 93.478 680.230 82.078 664.954 Q 70.679 649.679 68.562 645.095 Q 66.444 640.511 71.713 621.445 Q 76.982 602.380 77.370 598.871 Q 77.757 595.363 68.494 595.603 Q 59.230 595.843 55.987 597.477 Q 52.743 599.111 49.591 614.456 Q 46.440 629.801 42.784 621.057 Q 39.128 612.314 32.468 614.645 Q 25.808 616.977 27.439 617.217 Z"></path>
    <path id="STROKE_7FE86659-1027-4D43-A129-EEF3B290736D" opacity="0.344" fill="#85929c" stroke="#85929c" stroke-width="1.000" stroke-opacity="1.000" stroke-linecap="round" stroke-linejoin="round" d="M 96.297 621.999 Q 98.291 621.879 98.100 622.692 Q 97.909 623.504 101.781 648.409 Q 105.652 673.315 107.868 675.281 Q 110.084 677.248 121.939 672.521 Q 133.794 667.793 135.382 664.788 Q 136.970 661.783 134.926 655.685 Q 132.883 649.587 124.776 652.301 Q 116.670 655.015 115.107 653.621 Q 113.543 652.227 113.710 649.010 Q 113.876 645.792 117.723 644.426 Q 121.570 643.059 123.133 640.271 Q 124.696 637.483 118.135 636.162 Q 111.574 634.842 112.725 631.527 Q 113.876 628.213 119.508 626.509 Q 125.140 624.806 125.687 622.406 Q 126.235 620.005 123.330 614.622 Q 120.425 609.240 118.714 609.170 Q 117.003 609.101 105.652 615.610 Q 94.302 622.119 96.297 621.999 Z"></path>
    <path id="STROKE_7C662E96-2061-45A8-8710-08586B13677B" opacity="0.344" fill="#85929c" stroke="#85929c" stroke-width="1.000" stroke-opacity="1.000" stroke-linecap="round" stroke-linejoin="round" d="M 138.145 609.290 Q 138.607 609.240 139.857 611.668 Q 141.106 614.096 147.335 617.988 Q 153.564 621.879 155.583 631.292 Q 157.602 640.705 161.406 649.661 Q 165.210 658.616 168.792 658.473 Q 172.374 658.330 172.953 653.792 Q 173.531 649.254 171.315 637.607 Q 169.100 625.960 174.750 618.034 Q 180.400 610.108 185.140 600.815 Q 189.879 591.522 187.190 591.231 Q 184.500 590.940 175.476 593.249 Q 166.453 595.557 162.150 604.803 Q 157.848 614.050 155.011 608.907 Q 152.173 603.765 144.928 606.553 Q 137.684 609.341 138.145 609.290 Z"></path>
    <path id="STROKE_29D997D5-99B7-4D4D-ABF6-69F1ABECBC3E" opacity="0.344" fill="#85929c" stroke="#85929c" stroke-width="1.000" stroke-opacity="1.000" stroke-linecap="round" stroke-linejoin="round" d="M 197.383 596.397 Q 196.084 599.444 197.333 614.332 Q 198.583 629.219 200.005 639.283 Q 201.426 649.347 202.701 649.781 Q 203.975 650.214 211.047 648.483 Q 218.119 646.752 221.892 642.168 Q 225.665 637.584 225.788 632.515 Q 225.912 627.447 222.422 625.715 Q 218.932 623.984 216.623 624.201 Q 214.315 624.418 217.350 616.400 Q 220.384 608.381 221.461 599.448 Q 222.539 590.516 221.148 587.704 Q 219.756 584.893 216.580 584.533 Q 213.404 584.173 206.043 588.761 Q 198.681 593.350 197.383 596.397 Z"></path>
    <path id="STROKE_B333F89E-0154-4FC8-97DC-23BB63B75EC7" opacity="0.344" fill="#85929c" stroke="#85929c" stroke-width="1.000" stroke-opacity="1.000" stroke-linecap="round" stroke-linejoin="round" d="M 260.928 586.458 Q 261.747 588.355 260.571 586.361 Q 259.396 584.367 255.302 582.396 Q 251.209 580.424 247.916 582.922 Q 244.623 585.419 241.638 590.557 Q 238.653 595.695 237.693 600.358 Q 236.732 605.020 236.658 609.844 Q 236.585 614.669 238.080 621.224 Q 239.576 627.779 241.281 630.613 Q 242.986 633.448 246.882 635.396 Q 250.778 637.344 255.204 637.510 Q 259.629 637.676 262.128 635.756 Q 264.627 633.836 266.966 627.230 Q 269.305 620.624 269.422 615.943 Q 269.539 611.262 267.951 605.066 Q 266.363 598.871 262.393 592.168 Q 258.423 585.465 259.266 585.013 Q 260.110 584.561 260.928 586.458 Z"></path>
    <path id="STROKE_51FF07CC-025C-4E1F-9D6D-696473B62E4C" opacity="0.344" fill="#85929c" stroke="#85929c" stroke-width="1.000" stroke-opacity="1.000" stroke-linecap="round" stroke-linejoin="round" d="M 279.203 581.288 Q 278.673 583.065 277.399 587.173 Q 276.125 591.282 274.999 612.416 Q 273.872 633.549 278.009 633.739 Q 282.145 633.928 285.629 631.121 Q 289.113 628.314 289.334 620.794 Q 289.556 613.274 297.490 611.257 Q 305.424 609.240 306.987 617.692 Q 308.551 626.145 317.426 624.995 Q 326.302 623.846 327.170 622.165 Q 328.038 620.485 318.153 594.740 Q 308.267 568.994 303.645 570.148 Q 299.022 571.302 289.377 575.406 Q 279.732 579.510 279.203 581.288 Z"></path>
    <path id="STROKE_9C67A50D-B586-4AE7-AF4C-50E9AA6CAC5D" opacity="0.344" fill="#85929c" stroke="#85929c" stroke-width="1.000" stroke-opacity="1.000" stroke-linecap="round" stroke-linejoin="round" d="M 328.032 572.309 Q 326.634 575.236 326.634 578.984 Q 326.634 582.733 329.189 597.334 Q 331.743 611.936 332.753 614.650 Q 333.762 617.365 336.766 619.931 Q 339.769 622.498 345.254 619.977 Q 350.738 617.457 350.307 608.284 Q 349.876 599.111 353.532 601.872 Q 357.188 604.633 364.858 606.913 Q 372.527 609.193 375.728 607.656 Q 378.928 606.119 380.153 603.525 Q 381.378 600.930 371.616 596.900 Q 361.854 592.870 359.183 589.242 Q 356.511 585.613 359.804 574.349 Q 363.097 563.085 359.515 562.245 Q 355.933 561.405 343.450 566.114 Q 330.968 570.822 330.198 570.102 Q 329.429 569.382 328.032 572.309 Z"></path>
    <path id="STROKE_D26063FC-F92D-4F86-8D40-98A7E5D5B4DE" opacity="0.344" fill="#85929c" stroke="#85929c" stroke-width="1.000" stroke-opacity="1.000" stroke-linecap="round" stroke-linejoin="round" d="M 382.751 556.747 Q 379.359 559.485 383.834 580.378 Q 388.309 601.272 389.632 603.769 Q 390.956 606.267 400.022 603.575 Q 409.089 600.884 415.151 597.380 Q 421.214 593.876 424.002 586.070 Q 426.791 578.264 425.658 571.709 Q 424.526 565.153 422.051 562.176 Q 419.577 559.198 413.391 555.598 Q 407.205 551.997 400.711 551.323 Q 394.218 550.649 390.180 552.329 Q 386.142 554.010 382.751 556.747 Z"></path>
    <path id="STROKE_D9BC478C-01DA-4940-AB07-53AB9B228906" opacity="0.344" fill="#85929c" stroke="#85929c" stroke-width="1.000" stroke-opacity="1.000" stroke-linecap="round" stroke-linejoin="round" d="M 473.016 546.180 Q 473.213 545.026 474.364 541.282 Q 475.515 537.538 474.142 536.361 Q 472.770 535.184 467.772 535.018 Q 462.774 534.852 456.471 535.858 Q 450.168 536.864 444.419 539.459 Q 438.670 542.053 437.852 546.854 Q 437.033 551.655 438.670 552.569 Q 440.307 553.483 445.619 554.300 Q 450.931 555.118 455.117 559.129 Q 459.302 563.141 460.601 567.656 Q 461.900 572.170 460.749 573.463 Q 459.598 574.755 452.839 576.533 Q 446.081 578.310 444.659 579.944 Q 443.237 581.578 443.650 586.887 Q 444.062 592.196 452.525 591.956 Q 460.989 591.716 466.159 588.424 Q 471.329 585.133 474.315 581.842 Q 477.300 578.550 477.731 575.429 Q 478.162 572.309 477.103 569.548 Q 476.044 566.788 470.369 563.330 Q 464.694 559.872 462.121 557.084 Q 459.548 554.296 458.588 551.392 Q 457.628 548.488 462.097 547.288 Q 466.565 546.088 469.692 546.711 Q 472.819 547.334 473.016 546.180 Z"></path>
    <path id="STROKE_6832E643-08F5-4169-A0E9-00340A49CE30" opacity="0.704" fill="#e85764" stroke="#e85764" stroke-width="1.000" stroke-opacity="1.000" stroke-linecap="round" stroke-linejoin="round" d="M 1029.350 658.673 Q 1027.851 660.244 1023.610 658.363 Q 1019.370 656.483 1016.120 654.092 Q 1012.870 651.701 1010.394 648.412 Q 1007.919 645.122 1007.799 641.307 Q 1007.679 637.492 1009.454 636.223 Q 1011.230 634.954 1015.820 634.810 Q 1020.410 634.667 1023.685 638.386 Q 1026.959 642.106 1027.872 640.198 Q 1028.785 638.290 1032.451 636.277 Q 1036.116 634.263 1040.761 634.440 Q 1045.405 634.617 1047.204 636.076 Q 1049.003 637.535 1049.572 641.001 Q 1050.142 644.467 1046.702 647.574 Q 1043.262 650.682 1037.055 653.891 Q 1030.848 657.101 1029.350 658.673 Z"></path>
    <path id="STROKE_78D18CAB-B079-42BF-B420-A4B479B930D7" opacity="0.333" fill="#85929c" stroke="#85929c" stroke-width="1.000" stroke-opacity="1.000" stroke-linecap="round" stroke-linejoin="round" d="M 675.895 648.779 Q 676.727 646.213 675.942 647.930 Q 675.157 649.647 675.809 656.592 Q 676.462 663.538 674.078 664.137 Q 671.695 664.736 660.371 664.380 Q 649.046 664.024 647.717 669.126 Q 646.387 674.229 649.916 673.124 Q 653.444 672.019 661.357 672.023 Q 669.269 672.026 667.425 677.508 Q 665.581 682.990 655.035 683.333 Q 644.488 683.676 643.977 692.853 Q 643.466 702.030 660.880 701.880 Q 678.293 701.731 678.521 709.344 Q 678.749 716.957 667.386 717.290 Q 656.023 717.623 641.136 718.714 Q 626.249 719.805 628.379 710.267 Q 630.509 700.730 630.782 688.533 Q 631.056 676.336 634.066 663.519 Q 637.076 650.702 656.069 651.023 Q 675.063 651.345 675.895 648.779 Z"></path>
    <path id="STROKE_7B64FB16-9FBA-4367-BCDC-4C6B0F922C68" opacity="0.333" fill="#85929c" stroke="#85929c" stroke-width="1.000" stroke-opacity="1.000" stroke-linecap="round" stroke-linejoin="round" d="M 693.654 675.571 Q 694.187 677.224 693.189 686.276 Q 692.191 695.328 689.958 704.305 Q 687.726 713.282 688.163 714.042 Q 688.601 714.803 696.146 715.345 Q 703.691 715.887 708.366 715.601 Q 713.040 715.315 716.002 716.335 Q 718.965 717.355 719.814 710.845 Q 720.663 704.334 714.421 704.911 Q 708.180 705.488 707.072 689.644 Q 705.964 673.800 704.756 671.549 Q 703.548 669.297 698.335 671.608 Q 693.121 673.919 693.654 675.571 Z"></path>
    <path id="STROKE_D4B99484-786F-47FC-84E9-8D7B9860010B" opacity="0.333" fill="#85929c" stroke="#85929c" stroke-width="1.000" stroke-opacity="1.000" stroke-linecap="round" stroke-linejoin="round" d="M 763.930 673.916 Q 764.321 674.141 751.782 676.864 Q 739.242 679.587 736.321 681.048 Q 733.400 682.508 732.809 685.931 Q 732.218 689.354 732.780 694.570 Q 733.342 699.786 736.249 714.223 Q 739.157 728.660 742.008 728.647 Q 744.859 728.634 755.762 724.637 Q 766.665 720.639 767.707 719.027 Q 768.748 717.414 768.675 712.866 Q 768.602 708.318 765.965 707.320 Q 763.328 706.323 754.914 706.506 Q 746.500 706.690 744.867 704.499 Q 743.235 702.309 746.930 700.006 Q 750.626 697.702 754.663 698.129 Q 758.701 698.557 761.000 697.434 Q 763.299 696.312 761.196 694.272 Q 759.093 692.233 751.380 691.624 Q 743.667 691.016 741.602 689.997 Q 739.538 688.978 743.811 687.029 Q 748.084 685.080 751.812 685.278 Q 755.539 685.476 759.762 687.117 Q 763.984 688.759 766.215 687.568 Q 768.446 686.378 766.107 682.412 Q 763.767 678.446 763.654 676.069 Q 763.540 673.692 763.930 673.916 Z"></path>
    <path id="STROKE_DCB978B6-C988-4A81-80A9-6D7E58FA5575" opacity="0.333" fill="#85929c" stroke="#85929c" stroke-width="1.000" stroke-opacity="1.000" stroke-linecap="round" stroke-linejoin="round" d="M 809.697 687.655 Q 806.310 692.246 808.510 685.482 Q 810.710 678.718 807.973 677.059 Q 805.236 675.401 799.160 674.236 Q 793.084 673.072 789.418 674.539 Q 785.753 676.005 782.567 681.024 Q 779.380 686.042 778.118 693.593 Q 776.855 701.143 778.932 708.099 Q 781.010 715.054 784.260 718.339 Q 787.510 721.624 791.615 722.471 Q 795.720 723.318 800.565 721.115 Q 805.411 718.913 806.861 716.263 Q 808.311 713.613 806.140 710.612 Q 803.968 707.610 802.699 707.159 Q 801.430 706.708 795.676 707.407 Q 789.923 708.105 787.992 704.288 Q 786.061 700.471 787.537 696.543 Q 789.014 692.614 791.409 691.369 Q 793.804 690.125 797.139 690.139 Q 800.475 690.153 802.943 692.215 Q 805.411 694.276 807.890 689.970 Q 810.370 685.664 811.727 684.364 Q 813.084 683.064 809.697 687.655 Z"></path>
    <path id="STROKE_39660D91-711C-4EE8-8B4A-85CFF33FB73D" opacity="0.333" fill="#85929c" stroke="#85929c" stroke-width="1.000" stroke-opacity="1.000" stroke-linecap="round" stroke-linejoin="round" d="M 822.680 679.496 Q 821.515 678.906 821.089 684.984 Q 820.664 691.063 823.870 692.611 Q 827.075 694.160 830.754 693.743 Q 834.433 693.326 834.316 706.639 Q 834.200 719.952 839.975 719.818 Q 845.751 719.685 845.204 717.218 Q 844.657 714.751 846.124 701.941 Q 847.591 689.131 856.981 686.470 Q 866.371 683.810 863.931 678.520 Q 861.491 673.231 860.049 672.885 Q 858.607 672.538 847.161 674.478 Q 835.715 676.417 829.780 678.251 Q 823.845 680.086 822.680 679.496 Z"></path>
    <path id="STROKE_F4E05845-100E-4BB0-B0EB-C1C678F2121C" opacity="0.333" fill="#85929c" stroke="#85929c" stroke-width="1.000" stroke-opacity="1.000" stroke-linecap="round" stroke-linejoin="round" d="M 872.944 677.348 Q 871.700 677.328 866.422 701.585 Q 861.143 725.843 867.827 727.678 Q 874.510 729.512 878.060 728.141 Q 881.609 726.770 882.121 725.164 Q 882.633 723.557 882.187 713.941 Q 881.740 704.326 887.575 712.207 Q 893.410 720.088 896.565 722.129 Q 899.720 724.170 905.715 722.421 Q 911.710 720.671 909.842 716.573 Q 907.975 712.475 901.264 707.212 Q 894.554 701.949 893.156 698.396 Q 891.759 694.844 896.468 688.805 Q 901.177 682.766 901.067 679.787 Q 900.958 676.808 893.703 675.014 Q 886.449 673.219 880.319 675.293 Q 874.188 677.368 872.944 677.348 Z"></path>
    <path id="STROKE_0F7986A7-9C68-4371-B84B-962108383A17" opacity="0.333" fill="#85929c" stroke="#85929c" stroke-width="1.000" stroke-opacity="1.000" stroke-linecap="round" stroke-linejoin="round" d="M 953.278 691.195 Q 953.834 695.085 953.532 693.338 Q 953.230 691.591 949.006 685.219 Q 944.782 678.847 940.065 676.805 Q 935.348 674.764 932.879 675.079 Q 930.409 675.394 926.946 678.493 Q 923.482 681.593 921.888 684.528 Q 920.294 687.464 919.020 692.561 Q 917.746 697.659 922.328 703.666 Q 926.909 709.673 929.785 711.860 Q 932.660 714.048 936.052 714.749 Q 939.443 715.451 944.660 714.251 Q 949.876 713.052 952.440 710.164 Q 955.004 707.276 955.962 703.745 Q 956.921 700.213 954.822 693.759 Q 952.722 687.304 953.278 691.195 Z"></path>
    <path id="STROKE_2BC251E8-5F75-4127-BE06-941A0C438237" opacity="0.333" fill="#85929c" stroke="#85929c" stroke-width="1.000" stroke-opacity="1.000" stroke-linecap="round" stroke-linejoin="round" d="M 968.308 681.933 Q 968.580 683.305 964.660 698.996 Q 960.740 714.687 966.997 714.251 Q 973.254 713.816 974.916 708.692 Q 976.579 703.568 983.251 709.894 Q 989.922 716.220 996.565 714.332 Q 1003.207 712.443 1004.307 704.827 Q 1005.406 697.211 1004.587 684.785 Q 1003.768 672.358 996.767 673.721 Q 989.766 675.084 988.347 681.167 Q 986.929 687.250 987.480 695.012 Q 988.032 702.775 986.464 699.975 Q 984.897 697.175 982.704 689.671 Q 980.511 682.168 974.273 681.365 Q 968.035 680.562 968.308 681.933 Z"></path>
    <path id="STROKE_7952FE6A-97AC-43D0-AE73-12C4A8E1DE2F" opacity="0.333" fill="#85929c" stroke="#85929c" stroke-width="1.000" stroke-opacity="1.000" stroke-linecap="round" stroke-linejoin="round" d="M 1022.767 677.822 Q 1020.240 681.046 1015.956 700.667 Q 1011.673 720.288 1019.671 719.041 Q 1027.669 717.794 1029.757 697.888 Q 1031.845 677.982 1031.537 675.028 Q 1031.228 672.075 1028.261 673.337 Q 1025.294 674.599 1022.767 677.822 Z"></path>
    <path id="STROKE_11E124D9-3739-4C30-B980-654D24D5DC13" opacity="0.333" fill="#85929c" stroke="#85929c" stroke-width="1.000" stroke-opacity="1.000" stroke-linecap="round" stroke-linejoin="round" d="M 1081.385 673.901 Q 1082.645 673.710 1082.317 673.126 Q 1081.989 672.542 1078.778 679.756 Q 1075.568 686.971 1071.300 685.475 Q 1067.033 683.979 1064.692 684.881 Q 1062.351 685.783 1059.787 690.029 Q 1057.224 694.275 1057.167 697.087 Q 1057.111 699.899 1061.568 702.090 Q 1066.025 704.281 1071.310 702.682 Q 1076.595 701.083 1079.560 703.327 Q 1082.526 705.572 1081.053 708.588 Q 1079.579 711.604 1073.978 713.908 Q 1068.376 716.212 1062.561 715.676 Q 1056.746 715.141 1052.434 713.012 Q 1048.121 710.883 1046.270 704.551 Q 1044.419 698.218 1045.017 694.291 Q 1045.615 690.364 1048.795 685.034 Q 1051.974 679.704 1057.324 675.392 Q 1062.673 671.080 1069.169 671.168 Q 1075.665 671.256 1077.895 672.674 Q 1080.125 674.091 1081.385 673.901 Z"></path>
    <path id="STROKE_B94F7230-5E3B-4EBF-B350-9AF255003294" opacity="0.333" fill="#85929c" stroke="#85929c" stroke-width="1.000" stroke-opacity="1.000" stroke-linecap="round" stroke-linejoin="round" d="M 1132.931 686.475 Q 1134.535 685.248 1134.975 679.892 Q 1135.416 674.536 1128.457 672.487 Q 1121.498 670.438 1117.452 670.395 Q 1113.405 670.352 1107.389 672.684 Q 1101.373 675.016 1100.017 679.985 Q 1098.661 684.953 1102.790 687.862 Q 1106.920 690.771 1110.634 695.052 Q 1114.349 699.333 1114.616 701.364 Q 1114.883 703.395 1111.630 704.818 Q 1108.378 706.242 1104.922 705.009 Q 1101.466 703.775 1100.269 708.483 Q 1099.071 713.190 1105.115 716.736 Q 1111.159 720.283 1116.111 720.656 Q 1121.063 721.029 1123.444 719.877 Q 1125.825 718.725 1128.137 713.714 Q 1130.448 708.702 1129.326 705.020 Q 1128.203 701.338 1123.466 696.033 Q 1118.728 690.727 1119.264 687.505 Q 1119.800 684.283 1125.563 685.993 Q 1131.327 687.702 1132.931 686.475 Z"></path>
    <path id="STROKE_DD33E356-4138-4070-8243-FDD1A2A490D5" opacity="0.333" fill="#85929c" stroke="#85929c" stroke-width="1.000" stroke-opacity="1.000" stroke-linecap="round" stroke-linejoin="round" d="M 641.265 23.768 Q 640.853 25.421 648.559 18.511 Q 656.265 11.602 657.627 9.220 Q 658.990 6.839 651.721 1.694 Q 644.453 -3.451 638.495 -4.803 Q 632.538 -6.154 620.103 -6.717 Q 607.668 -7.280 601.211 -4.290 Q 594.753 -1.299 590.876 2.447 Q 587.000 6.194 587.648 9.905 Q 588.296 13.617 594.262 19.624 Q 600.228 25.631 607.133 29.773 Q 614.039 33.916 616.512 36.332 Q 618.986 38.748 620.701 46.281 Q 622.416 53.814 619.896 57.291 Q 617.376 60.769 613.757 61.217 Q 610.138 61.665 604.600 59.680 Q 599.062 57.696 590.531 52.553 Q 581.999 47.410 578.729 48.698 Q 575.458 49.985 569.890 54.772 Q 564.322 59.558 563.318 63.606 Q 562.313 67.653 565.299 71.287 Q 568.286 74.920 579.704 80.024 Q 591.121 85.127 603.787 88.692 Q 616.453 92.256 621.870 91.443 Q 627.286 90.630 633.553 86.887 Q 639.820 83.143 643.765 78.944 Q 647.711 74.744 648.697 70.336 Q 649.684 65.927 647.424 60.169 Q 645.165 54.411 640.029 47.927 Q 634.893 41.443 626.132 32.316 Q 617.371 23.188 616.922 20.973 Q 616.473 18.758 622.271 16.461 Q 628.068 14.164 634.873 18.140 Q 641.677 22.116 641.265 23.768 Z"></path>
    <path id="STROKE_16EC9E16-A53E-4F38-97C2-B619A705F692" opacity="0.333" fill="#85929c" stroke="#85929c" stroke-width="1.000" stroke-opacity="1.000" stroke-linecap="round" stroke-linejoin="round" d="M 701.581 63.197 Q 703.362 69.764 703.010 63.725 Q 702.658 57.686 698.636 52.682 Q 694.614 47.679 690.204 47.660 Q 685.794 47.641 678.941 51.164 Q 672.088 54.687 668.341 58.505 Q 664.595 62.323 662.283 69.332 Q 659.972 76.341 660.199 81.727 Q 660.426 87.114 661.873 89.692 Q 663.320 92.269 667.738 96.238 Q 672.157 100.206 677.236 102.272 Q 682.315 104.338 687.007 102.716 Q 691.699 101.093 697.213 95.714 Q 702.727 90.334 703.916 86.245 Q 705.105 82.157 705.163 76.813 Q 705.220 71.469 702.509 64.049 Q 699.799 56.629 701.581 63.197 Z"></path>
    <path id="STROKE_EE507774-B63D-41F7-A8DC-6ADC6821206C" opacity="0.333" fill="#85929c" stroke="#85929c" stroke-width="1.000" stroke-opacity="1.000" stroke-linecap="round" stroke-linejoin="round" d="M 723.013 56.993 Q 722.495 59.060 720.583 61.056 Q 718.671 63.053 716.672 71.375 Q 714.673 79.697 710.837 89.102 Q 707.001 98.506 706.890 103.220 Q 706.780 107.933 714.719 110.793 Q 722.658 113.654 736.085 114.574 Q 749.512 115.494 751.160 113.945 Q 752.807 112.395 753.771 106.052 Q 754.734 99.710 749.345 99.186 Q 743.955 98.663 736.957 95.577 Q 729.958 92.490 729.045 88.760 Q 728.133 85.029 732.258 74.455 Q 736.383 63.880 736.353 61.009 Q 736.323 58.138 729.927 56.532 Q 723.531 54.926 723.013 56.993 Z"></path>
    <path id="STROKE_7329FE70-B73E-48A6-848D-423B9FC68B96" opacity="0.333" fill="#85929c" stroke="#85929c" stroke-width="1.000" stroke-opacity="1.000" stroke-linecap="round" stroke-linejoin="round" d="M 777.447 71.269 Q 777.991 71.371 776.699 71.229 Q 775.407 71.086 774.004 80.574 Q 772.600 90.063 769.441 103.000 Q 766.282 115.938 776.696 118.640 Q 787.111 121.342 790.213 120.386 Q 793.316 119.431 798.900 113.321 Q 804.484 107.212 806.310 101.944 Q 808.136 96.676 808.474 90.434 Q 808.813 84.192 804.658 79.430 Q 800.503 74.669 793.968 72.751 Q 787.433 70.833 782.168 70.999 Q 776.902 71.166 777.447 71.269 Z"></path>
    <path id="STROKE_02D58282-6236-4CB3-B507-69BF80FBD18F" opacity="0.333" fill="#85929c" stroke="#85929c" stroke-width="1.000" stroke-opacity="1.000" stroke-linecap="round" stroke-linejoin="round" d="M 827.038 83.782 Q 826.042 85.020 825.220 83.477 Q 824.399 81.934 821.172 92.704 Q 817.945 103.474 814.381 113.152 Q 810.816 122.830 810.990 125.708 Q 811.164 128.587 812.857 130.357 Q 814.549 132.127 819.401 134.273 Q 824.253 136.419 830.552 137.590 Q 836.850 138.762 843.777 137.448 Q 850.704 136.134 854.562 132.876 Q 858.421 129.617 856.991 126.003 Q 855.561 122.388 850.980 121.640 Q 846.400 120.893 838.728 121.230 Q 831.056 121.568 828.579 119.336 Q 826.101 117.105 828.044 112.678 Q 829.986 108.252 833.492 108.370 Q 836.998 108.488 841.622 110.954 Q 846.246 113.420 850.015 112.279 Q 853.783 111.138 851.438 107.492 Q 849.092 103.847 843.239 102.658 Q 837.386 101.469 836.174 99.125 Q 834.961 96.781 838.762 96.643 Q 842.562 96.504 849.587 98.674 Q 856.611 100.844 860.330 100.983 Q 864.049 101.122 864.962 96.848 Q 865.876 92.574 861.093 89.592 Q 856.310 86.610 846.817 84.912 Q 837.325 83.215 832.680 82.879 Q 828.034 82.543 827.038 83.782 Z"></path>
    <path id="STROKE_DA5A15C3-2D2E-41AE-AFF8-E437B2206F62" opacity="0.333" fill="#85929c" stroke="#85929c" stroke-width="1.000" stroke-opacity="1.000" stroke-linecap="round" stroke-linejoin="round" d="M 879.116 95.034 Q 878.274 93.744 876.884 94.375 Q 875.494 95.007 872.929 105.596 Q 870.365 116.185 866.085 129.672 Q 861.806 143.159 862.886 145.002 Q 863.967 146.845 870.589 147.116 Q 877.211 147.386 879.086 145.517 Q 880.961 143.647 883.506 133.357 Q 886.051 123.067 888.432 134.626 Q 890.812 146.185 893.807 149.007 Q 896.801 151.829 901.357 149.664 Q 905.912 147.499 905.286 145.293 Q 904.659 143.086 897.323 133.154 Q 889.987 123.221 891.020 121.473 Q 892.053 119.724 899.425 113.632 Q 906.797 107.539 908.057 103.510 Q 909.317 99.481 907.411 97.690 Q 905.505 95.900 895.459 94.528 Q 885.414 93.156 882.686 94.741 Q 879.958 96.325 879.116 95.034 Z"></path>
    <path id="STROKE_E976F66D-2261-46FC-BF72-E990E939B33E" opacity="0.333" fill="#85929c" stroke="#85929c" stroke-width="1.000" stroke-opacity="1.000" stroke-linecap="round" stroke-linejoin="round" d="M 930.542 110.487 Q 928.477 112.859 926.697 119.615 Q 924.918 126.370 918.628 140.285 Q 912.339 154.200 914.149 155.362 Q 915.960 156.524 921.602 157.965 Q 927.245 159.406 929.502 158.014 Q 931.758 156.621 936.047 142.286 Q 940.336 127.951 942.501 118.078 Q 944.666 108.206 938.637 108.161 Q 932.607 108.116 930.542 110.487 Z"></path>
    <path id="STROKE_66DC1329-D2F0-4BBA-AF6D-6EEFF2DFB30C" opacity="0.333" fill="#85929c" stroke="#85929c" stroke-width="1.000" stroke-opacity="1.000" stroke-linecap="round" stroke-linejoin="round" d="M 959.012 117.097 Q 959.792 119.395 958.106 120.559 Q 956.421 121.724 950.206 135.274 Q 943.992 148.823 942.221 156.322 Q 940.450 163.821 944.264 164.828 Q 948.077 165.834 951.684 161.238 Q 955.290 156.642 957.040 149.742 Q 958.791 142.841 960.327 144.128 Q 961.864 145.414 967.580 157.151 Q 973.295 168.888 980.535 168.505 Q 987.774 168.121 991.629 154.316 Q 995.484 140.512 996.498 134.527 Q 997.512 128.542 996.444 125.846 Q 995.376 123.150 987.644 121.958 Q 979.912 120.765 977.597 129.799 Q 975.282 138.833 973.183 131.293 Q 971.083 123.753 967.493 119.345 Q 963.904 114.936 961.068 114.868 Q 958.232 114.799 959.012 117.097 Z"></path>
    <path id="STROKE_CFDFE59F-0530-4B54-A097-806817A4AD82" opacity="0.333" fill="#85929c" stroke="#85929c" stroke-width="1.000" stroke-opacity="1.000" stroke-linecap="round" stroke-linejoin="round" d="M 1045.510 158.044 Q 1045.083 157.334 1051.289 157.024 Q 1057.496 156.715 1054.651 150.113 Q 1051.805 143.512 1049.058 139.222 Q 1046.310 134.933 1042.303 131.263 Q 1038.295 127.594 1033.664 126.488 Q 1029.032 125.382 1023.216 126.529 Q 1017.400 127.677 1013.570 130.291 Q 1009.740 132.905 1003.109 139.895 Q 996.477 146.885 995.054 154.292 Q 993.631 161.699 996.243 168.338 Q 998.856 174.978 1005.099 180.008 Q 1011.342 185.038 1017.128 185.698 Q 1022.913 186.358 1026.212 183.960 Q 1029.511 181.562 1027.873 185.193 Q 1026.236 188.824 1028.172 191.893 Q 1030.109 194.963 1036.819 195.774 Q 1043.530 196.585 1046.978 190.407 Q 1050.426 184.229 1056.699 184.403 Q 1062.972 184.577 1063.535 182.037 Q 1064.099 179.498 1062.349 176.396 Q 1060.600 173.295 1052.632 171.545 Q 1044.665 169.795 1032.925 165.556 Q 1021.184 161.316 1019.140 161.558 Q 1017.096 161.799 1014.715 164.883 Q 1012.334 167.966 1018.517 169.552 Q 1024.699 171.137 1026.106 173.523 Q 1027.513 175.910 1025.744 177.125 Q 1023.976 178.341 1019.286 177.269 Q 1014.596 176.198 1010.370 172.969 Q 1006.144 169.739 1006.941 166.036 Q 1007.738 162.333 1011.420 157.132 Q 1015.102 151.931 1019.334 149.495 Q 1023.565 147.059 1028.552 146.472 Q 1033.539 145.885 1039.332 148.737 Q 1045.126 151.588 1045.531 155.171 Q 1045.936 158.754 1045.510 158.044 Z"></path>
    <path id="ERASER_7F3D8C4E-3C51-4DFD-845A-13BFBE8B0FF0" opacity="1.000" fill="none" stroke="#ffffff" stroke-width="6.316" stroke-opacity="1.000" stroke-linecap="round" stroke-linejoin="round" d="M 785.806 99.239 Q 782.694 98.196 783.355 97.262 Q 784.016 96.329 785.852 96.145 Q 787.687 95.962 788.189 96.344 Q 788.690 96.726 788.024 97.618 Q 787.357 98.509 785.777 99.094 Q 784.196 99.678 783.412 99.300 Q 782.628 98.921 783.214 97.850 Q 783.800 96.778 785.030 97.222 Q 786.261 97.667 784.956 98.053 Q 783.650 98.440 784.131 97.866 Q 784.611 97.292 786.264 97.662 L 787.917 98.032 "></path>
    <path id="ERASER_86CF657D-2CCB-44F1-A683-16E99B5A7975" opacity="1.000" fill="none" stroke="#ffffff" stroke-width="6.903" stroke-opacity="1.000" stroke-linecap="round" stroke-linejoin="round" d="M 681.272 75.965 Q 684.229 71.953 684.427 72.937 Q 684.625 73.921 683.642 76.770 Q 682.659 79.620 681.079 81.699 Q 679.498 83.778 678.182 83.066 Q 676.865 82.355 676.567 79.995 Q 676.269 77.636 676.663 74.917 Q 677.056 72.197 678.116 70.704 Q 679.176 69.210 680.619 69.209 Q 682.062 69.208 683.999 70.589 Q 685.937 71.970 686.063 73.135 Q 686.190 74.300 684.645 77.031 Q 683.099 79.763 682.260 79.917 Q 681.421 80.070 679.535 78.770 Q 677.650 77.470 677.076 75.308 Q 676.503 73.146 677.253 71.783 Q 678.002 70.421 680.870 71.995 Q 683.738 73.569 683.884 75.644 Q 684.030 77.718 682.091 79.377 Q 680.152 81.036 677.667 80.128 Q 675.183 79.220 675.174 77.222 Q 675.164 75.224 677.436 71.659 Q 679.709 68.095 681.235 68.748 Q 682.760 69.402 682.674 72.220 Q 682.587 75.039 681.938 77.777 Q 681.288 80.515 680.494 81.608 Q 679.700 82.700 677.947 81.661 Q 676.193 80.621 675.723 78.193 Q 675.253 75.764 675.831 73.673 Q 676.410 71.581 677.247 70.487 Q 678.083 69.392 680.477 70.179 Q 682.872 70.967 684.275 72.186 L 685.677 73.405 "></path>
    <path id="ERASER_E2D23F2A-F450-44CA-984C-D1BE64FB3D88" opacity="1.000" fill="none" stroke="#ffffff" stroke-width="6.465" stroke-opacity="1.000" stroke-linecap="round" stroke-linejoin="round" d="M 890.531 110.250 Q 886.930 109.504 887.933 108.114 Q 888.937 106.723 889.954 106.441 Q 890.971 106.159 891.905 106.587 Q 892.838 107.015 892.256 107.662 Q 891.675 108.309 890.396 108.102 Q 889.117 107.896 889.524 107.373 L 889.932 106.850 "></path>
    <path id="ERASER_DB1D238D-066A-430C-A077-CE6C04BFD9FF" opacity="1.000" fill="none" stroke="#ffffff" stroke-width="6.489" stroke-opacity="1.000" stroke-linecap="round" stroke-linejoin="round" d="M 883.604 686.922 Q 882.264 687.705 881.871 687.592 Q 881.477 687.480 882.217 686.343 Q 882.956 685.206 883.214 685.334 Q 883.471 685.462 882.946 686.122 L 882.421 686.783 "></path>
    <path id="ERASER_F99439D4-1CFD-45C8-B101-3FF621DD170B" opacity="1.000" fill="none" stroke="#ffffff" stroke-width="7.120" stroke-opacity="1.000" stroke-linecap="round" stroke-linejoin="round" d="M 937.897 698.032 Q 936.292 700.051 935.421 700.036 Q 934.550 700.022 933.946 699.064 Q 933.342 698.107 934.474 696.282 Q 935.606 694.457 936.622 694.340 Q 937.639 694.224 938.482 694.933 Q 939.325 695.641 938.422 697.125 Q 937.520 698.610 935.912 699.018 Q 934.305 699.426 934.323 698.240 Q 934.342 697.055 935.531 697.276 L 936.721 697.497 "></path>
    <path id="ERASER_666E3732-8FB4-4AE6-A067-58EFA9B1214F" opacity="1.000" fill="none" stroke="#ffffff" stroke-width="6.277" stroke-opacity="1.000" stroke-linecap="round" stroke-linejoin="round" d="M 404.531 581.209 Q 403.760 578.934 404.579 578.659 Q 405.398 578.384 405.542 579.525 Q 405.686 580.665 405.184 581.946 Q 404.682 583.227 404.228 583.459 Q 403.773 583.692 402.267 583.245 Q 400.761 582.797 401.005 581.684 Q 401.249 580.571 402.946 580.386 Q 404.643 580.201 404.532 580.612 L 404.422 581.024 "></path>
    <path id="ERASER_FC1444C1-0F78-4025-8B1F-F3EE60C978F6" opacity="1.000" fill="none" stroke="#ffffff" stroke-width="5.781" stroke-opacity="1.000" stroke-linecap="round" stroke-linejoin="round" d="M 294.881 592.507 Q 294.272 592.923 294.283 594.502 Q 294.294 596.081 294.900 596.794 Q 295.506 597.506 296.275 596.602 Q 297.044 595.698 295.814 595.098 Q 294.585 594.498 293.302 594.263 Q 292.020 594.028 292.868 593.434 L 293.716 592.840 "></path>
    <path id="ERASER_44D90286-C842-4A2D-92B6-B1FB910D67CB" opacity="1.000" fill="none" stroke="#ffffff" stroke-width="5.644" stroke-opacity="1.000" stroke-linecap="round" stroke-linejoin="round" d="M 250.585 611.474 Q 251.192 609.645 250.438 608.656 Q 249.684 607.668 248.729 609.310 Q 247.774 610.953 248.371 611.995 Q 248.969 613.037 250.013 612.378 Q 251.057 611.719 252.098 610.224 L 253.140 608.729 "></path>
    <path id="ERASER_5FDC6137-6B41-4BAE-A00A-9D143DC8B3DD" opacity="1.000" fill="none" stroke="#ffffff" stroke-width="5.479" stroke-opacity="1.000" stroke-linecap="round" stroke-linejoin="round" d="M 209.147 605.071 Q 207.978 606.532 208.106 606.797 Q 208.234 607.062 208.767 606.036 Q 209.300 605.009 209.127 604.450 Q 208.955 603.892 208.654 604.340 Q 208.353 604.787 208.684 604.991 Q 209.015 605.195 209.510 605.015 L 210.006 604.836 "></path>
    <path id="ERASER_3FF3D19B-452A-4921-A627-669657E66A79" opacity="1.000" fill="none" stroke="#ffffff" stroke-width="5.554" stroke-opacity="1.000" stroke-linecap="round" stroke-linejoin="round" d="M 213.432 636.011 Q 213.685 636.810 214.618 635.458 Q 215.551 634.105 215.195 633.753 Q 214.838 633.401 213.740 634.874 Q 212.642 636.346 213.231 636.382 Q 213.820 636.418 214.589 635.712 L 215.358 635.007 "></path>
    <path id="STROKE_54E595F8-9851-4FF2-9D99-8133FBFCF347" opacity="1.000" fill="#ffffff" stroke="#ffffff" stroke-width="0.600" stroke-opacity="1.000" stroke-linecap="round" stroke-linejoin="round" d="M 402.754 175.616 Q 404.099 173.048 398.799 182.783 Q 393.498 192.518 383.109 215.034 Q 372.720 237.550 362.561 256.425 Q 352.401 275.301 356.226 273.851 Q 360.052 272.401 374.014 269.748 Q 387.977 267.095 392.236 264.749 Q 396.495 262.404 399.062 254.774 Q 401.629 247.143 402.747 228.510 Q 403.866 209.877 402.006 195.723 Q 400.146 181.568 400.777 179.876 Q 401.408 178.185 402.754 175.616 Z"></path>
    <path id="STROKE_D27406B9-B197-461C-A17F-365C623134A3" opacity="1.000" fill="#ffffff" stroke="#ffffff" stroke-width="0.600" stroke-opacity="1.000" stroke-linecap="round" stroke-linejoin="round" d="M 739.392 310.914 Q 737.866 309.858 733.352 317.004 Q 728.839 324.151 723.914 335.214 Q 718.990 346.277 712.315 358.246 Q 705.639 370.215 698.895 380.678 Q 692.151 391.142 689.722 397.370 Q 687.293 403.597 690.824 406.263 Q 694.355 408.928 707.687 405.999 Q 721.020 403.070 731.115 400.013 Q 741.210 396.955 742.781 394.297 Q 744.352 391.638 743.522 366.184 Q 742.692 340.731 741.259 331.023 Q 739.826 321.315 740.372 316.643 Q 740.918 311.970 739.392 310.914 Z"></path>
    <path id="STROKE_980C862E-2DB1-4FBF-9404-6136A5584AB3" opacity="0.544" fill="#e85764" stroke="#e85764" stroke-width="1.000" stroke-opacity="1.000" stroke-linecap="round" stroke-linejoin="round" d="M 934.888 79.942 Q 934.816 79.980 930.775 88.194 Q 926.735 96.408 934.234 94.341 Q 941.733 92.274 946.208 97.292 Q 950.683 102.310 952.899 103.356 Q 955.114 104.403 953.897 99.660 Q 952.679 94.918 952.771 90.428 Q 952.862 85.939 958.261 81.921 Q 963.660 77.904 963.546 76.896 Q 963.431 75.888 957.017 77.813 Q 950.602 79.738 950.309 73.803 Q 950.016 67.867 949.126 64.287 Q 948.236 60.706 945.206 66.819 Q 942.176 72.931 935.911 69.269 Q 929.647 65.607 932.304 72.755 Q 934.961 79.904 934.888 79.942 Z"></path>
  </g>
  <g id="Pen" opacity="1.000">
    <path id="STROKE_491F0B64-FB06-4699-BDEE-07F3E8A5237C" opacity="1.000" fill="none" stroke="#000000" stroke-width="10.872" stroke-opacity="1.000" stroke-linecap="round" stroke-linejoin="round" d="M 447.813 245.702 Q 453.107 147.001 453.242 132.207 Q 453.378 117.413 452.682 109.797 Q 451.987 102.180 449.696 90.829 Q 447.405 79.478 443.995 72.790 Q 440.584 66.103 437.666 63.589 Q 434.747 61.076 427.222 59.753 Q 419.697 58.429 413.631 61.337 Q 407.565 64.245 402.687 68.482 Q 397.809 72.720 389.028 83.575 Q 380.247 94.430 367.877 113.067 Q 355.508 131.704 342.612 154.083 Q 329.717 176.461 321.929 191.255 Q 314.141 206.049 303.663 228.987 Q 293.185 251.925 285.592 274.794 Q 277.999 297.662 276.811 310.012 Q 275.624 322.363 277.312 324.513 Q 279.000 326.664 284.472 327.294 Q 289.944 327.924 309.398 323.985 Q 328.852 320.047 358.588 315.478 Q 388.324 310.910 398.835 311.209 Q 409.347 311.508 400.829 349.373 Q 392.311 387.239 390.419 399.150 Q 388.527 411.062 388.332 425.728 Q 388.137 440.395 391.284 444.499 Q 394.432 448.603 401.728 449.131 Q 409.024 449.659 419.298 447.604 Q 429.572 445.549 436.436 440.452 Q 443.299 435.355 444.461 427.179 Q 445.624 419.003 445.123 394.315 Q 444.623 369.626 444.954 350.595 Q 445.284 331.564 446.048 325.341 Q 446.812 319.118 457.153 316.369 Q 467.495 313.620 478.601 312.265 Q 489.706 310.910 489.842 283.734 Q 489.978 256.557 489.375 251.626 Q 488.773 246.695 477.175 246.199 Q 465.578 245.702 458.485 246.759 L 451.393 247.815 "></path>
    <path id="STROKE_F6829B22-18CD-4EA8-9AD1-F9DDE2FE827E" opacity="1.000" fill="none" stroke="#000000" stroke-width="11.012" stroke-opacity="1.000" stroke-linecap="round" stroke-linejoin="round" d="M 400.473 163.417 Q 392.107 177.517 375.564 207.506 Q 359.020 237.494 353.226 249.278 Q 347.431 261.062 346.795 263.678 Q 346.159 266.293 348.085 267.915 Q 350.010 269.538 353.921 269.799 Q 357.833 270.060 366.554 268.838 Q 375.275 267.616 381.935 265.065 Q 388.595 262.513 395.263 260.992 Q 401.932 259.472 404.019 256.723 Q 406.106 253.974 406.997 247.223 Q 407.887 240.472 408.286 228.586 Q 408.685 216.700 408.685 202.931 Q 408.685 189.161 408.159 181.157 Q 407.633 173.152 406.038 167.222 L 404.443 161.292 "></path>
    <path id="STROKE_A3665A43-AE18-438B-92DC-7732541D17A2" opacity="1.000" fill="none" stroke="#000000" stroke-width="10.872" stroke-opacity="1.000" stroke-linecap="round" stroke-linejoin="round" d="M 783.313 383.202 Q 788.607 284.501 788.742 269.707 Q 788.878 254.913 788.182 247.297 Q 787.487 239.680 785.196 228.329 Q 782.905 216.978 779.495 210.290 Q 776.084 203.603 773.166 201.089 Q 770.247 198.576 762.722 197.253 Q 755.197 195.929 749.131 198.837 Q 743.065 201.745 738.187 205.982 Q 733.309 210.220 724.528 221.075 Q 715.747 231.930 703.377 250.567 Q 691.008 269.204 678.112 291.583 Q 665.217 313.961 657.429 328.755 Q 649.641 343.549 639.163 366.487 Q 628.685 389.425 621.092 412.294 Q 613.499 435.162 612.311 447.512 Q 611.124 459.863 612.812 462.013 Q 614.500 464.164 619.972 464.794 Q 625.444 465.424 644.898 461.485 Q 664.352 457.547 694.088 452.978 Q 723.824 448.410 734.335 448.709 Q 744.847 449.008 736.329 486.873 Q 727.811 524.739 725.919 536.650 Q 724.027 548.562 723.832 563.228 Q 723.637 577.895 726.784 581.999 Q 729.932 586.103 737.228 586.631 Q 744.524 587.159 754.798 585.104 Q 765.072 583.049 771.936 577.952 Q 778.799 572.855 779.961 564.679 Q 781.124 556.503 780.623 531.815 Q 780.123 507.126 780.454 488.095 Q 780.784 469.064 781.548 462.841 Q 782.312 456.618 792.653 453.869 Q 802.995 451.120 814.101 449.765 Q 825.206 448.410 825.342 421.234 Q 825.478 394.057 824.875 389.126 Q 824.273 384.195 812.675 383.699 Q 801.078 383.202 793.985 384.259 L 786.893 385.315 "></path>
    <path id="STROKE_603BA872-B4A5-4AE4-9678-F94163936EA1" opacity="1.000" fill="none" stroke="#000000" stroke-width="11.012" stroke-opacity="1.000" stroke-linecap="round" stroke-linejoin="round" d="M 735.973 300.917 Q 727.607 315.017 711.064 345.006 Q 694.520 374.994 688.726 386.778 Q 682.931 398.562 682.295 401.178 Q 681.659 403.793 683.585 405.415 Q 685.510 407.038 689.421 407.299 Q 693.333 407.560 702.054 406.338 Q 710.775 405.116 717.435 402.565 Q 724.095 400.013 730.763 398.492 Q 737.432 396.972 739.519 394.223 Q 741.606 391.474 742.497 384.723 Q 743.387 377.972 743.786 366.086 Q 744.185 354.200 744.185 340.431 Q 744.185 326.661 743.659 318.657 Q 743.133 310.652 741.538 304.722 L 739.943 298.792 "></path>
    <path id="STROKE_E8CF6795-5150-44CF-B762-062BBF4CDF21" opacity="1.000" fill="none" stroke="#000000" stroke-width="10.885" stroke-opacity="1.000" stroke-linecap="round" stroke-linejoin="round" d="M 562.889 392.255 Q 596.103 363.296 597.500 360.932 Q 598.897 358.568 597.810 355.316 Q 596.723 352.065 593.524 348.089 Q 590.324 344.113 582.302 337.138 Q 574.280 330.162 572.052 330.195 Q 569.823 330.228 566.678 332.894 Q 563.532 335.560 549.992 348.985 Q 536.452 362.411 534.300 361.892 Q 532.149 361.373 524.591 356.086 Q 517.034 350.799 510.193 341.570 Q 503.352 332.341 501.255 330.359 Q 499.158 328.376 486.272 339.365 Q 473.385 350.353 472.572 353.688 Q 471.759 357.023 473.843 359.678 Q 475.927 362.333 489.943 375.739 Q 503.958 389.144 496.166 396.188 Q 488.374 403.232 476.956 411.835 Q 465.537 420.438 469.550 427.125 Q 473.563 433.812 478.107 438.689 Q 482.652 443.566 488.900 448.580 Q 495.148 453.593 498.151 453.742 Q 501.153 453.890 510.224 443.665 Q 519.296 433.440 521.901 429.053 Q 524.507 424.665 527.364 422.743 Q 530.222 420.820 531.936 421.692 Q 533.650 422.564 538.302 427.573 Q 542.954 432.581 549.072 442.422 Q 555.190 452.262 558.394 458.392 Q 561.599 464.523 562.598 464.941 Q 563.597 465.359 573.204 457.250 Q 582.811 449.141 590.697 437.168 Q 598.583 425.195 596.063 421.570 Q 593.543 417.946 578.676 406.234 L 563.809 394.522 "></path>
    <path id="STROKE_008EBFEB-D08D-4CAF-BD9C-342C4DBE14ED" opacity="1.000" fill="none" stroke="#000000" stroke-width="2.397" stroke-opacity="1.000" stroke-linecap="round" stroke-linejoin="round" d="M 641.207 26.215 Q 641.368 24.551 650.990 17.642 Q 660.611 10.732 661.562 9.500 Q 662.513 8.268 657.687 4.783 Q 652.862 1.298 649.801 -0.348 Q 646.739 -1.993 640.638 -3.736 Q 634.536 -5.480 631.859 -5.813 Q 629.183 -6.146 624.404 -6.132 Q 619.624 -6.118 613.341 -4.851 Q 607.058 -3.584 604.077 -2.252 Q 601.096 -0.920 598.549 0.783 Q 596.003 2.487 593.760 5.292 Q 591.518 8.098 591.008 9.710 Q 590.499 11.321 591.426 13.336 Q 592.353 15.351 593.875 16.566 Q 595.396 17.781 603.536 23.104 Q 611.677 28.426 614.026 30.285 Q 616.375 32.144 618.714 35.049 Q 621.053 37.954 622.032 41.821 Q 623.010 45.687 622.385 49.240 Q 621.761 52.793 620.018 54.938 Q 618.275 57.083 615.150 58.612 Q 612.025 60.140 608.392 60.185 Q 604.758 60.230 600.575 59.211 Q 596.392 58.191 590.625 54.664 Q 584.859 51.138 581.755 47.738 Q 578.651 44.338 571.598 50.725 Q 564.546 57.112 563.197 59.656 Q 561.848 62.200 562.288 63.167 Q 562.729 64.134 568.185 67.978 Q 573.642 71.823 580.600 75.595 Q 587.558 79.367 593.683 81.641 Q 599.807 83.914 603.912 84.977 Q 608.017 86.039 611.705 86.274 Q 615.392 86.508 618.561 86.242 Q 621.729 85.975 626.021 84.755 Q 630.312 83.535 633.515 81.868 Q 636.717 80.202 639.037 78.105 Q 641.357 76.008 643.282 70.720 Q 645.207 65.432 645.377 62.886 Q 645.547 60.340 644.863 56.119 Q 644.178 51.899 642.780 48.644 Q 641.382 45.389 638.107 40.991 Q 634.831 36.593 631.338 33.819 Q 627.845 31.045 624.566 27.928 Q 621.288 24.812 619.204 21.310 Q 617.121 17.808 618.008 16.395 Q 618.896 14.982 622.516 14.113 Q 626.135 13.243 630.012 13.918 Q 633.889 14.593 636.965 19.729 L 640.040 24.865 "></path>
    <path id="STROKE_E59166A6-A77E-4A57-B9C0-08E138944AA1" opacity="1.000" fill="none" stroke="#000000" stroke-width="2.427" stroke-opacity="1.000" stroke-linecap="round" stroke-linejoin="round" d="M 699.629 51.268 Q 697.187 48.728 694.385 47.870 Q 691.583 47.012 688.502 47.333 Q 685.420 47.653 683.001 48.474 Q 680.582 49.294 675.978 52.209 Q 671.375 55.123 668.667 57.707 Q 665.960 60.292 664.597 62.371 Q 663.233 64.450 661.689 69.275 Q 660.146 74.099 660.242 76.657 Q 660.338 79.215 660.941 81.570 Q 661.544 83.925 663.124 86.999 Q 664.703 90.074 666.153 91.731 Q 667.602 93.389 670.599 95.542 Q 673.596 97.695 676.169 98.557 Q 678.743 99.419 680.118 99.313 Q 681.493 99.208 684.449 98.198 Q 687.406 97.188 689.858 95.852 Q 692.309 94.516 694.605 92.286 Q 696.900 90.056 699.580 85.526 Q 702.261 80.995 703.321 76.898 Q 704.382 72.801 704.294 69.462 Q 704.207 66.123 703.373 61.599 Q 702.539 57.075 699.864 52.769 L 697.188 48.463 "></path>
    <path id="STROKE_92E0CED6-3796-49E5-A374-EA1B35CC1D2E" opacity="1.000" fill="none" stroke="#000000" stroke-width="2.477" stroke-opacity="1.000" stroke-linecap="round" stroke-linejoin="round" d="M 686.015 63.448 Q 681.478 64.902 679.625 66.722 Q 677.773 68.542 676.782 70.092 Q 675.791 71.642 674.962 74.586 Q 674.132 77.530 674.887 79.204 Q 675.641 80.877 676.541 81.470 Q 677.440 82.063 679.785 82.670 Q 682.129 83.277 683.568 82.923 Q 685.008 82.569 686.367 81.645 Q 687.727 80.720 688.663 79.251 Q 689.599 77.781 689.983 75.682 Q 690.366 73.583 689.832 72.327 Q 689.298 71.070 687.928 69.237 Q 686.558 67.404 685.489 65.448 L 684.421 63.491 "></path>
    <path id="STROKE_7A482A9C-DE28-4D3A-A4D6-69B739B2CB11" opacity="1.000" fill="none" stroke="#000000" stroke-width="2.314" stroke-opacity="1.000" stroke-linecap="round" stroke-linejoin="round" d="M 722.954 55.524 Q 717.024 77.653 713.935 87.536 Q 710.846 97.419 710.329 99.546 Q 709.812 101.674 710.288 103.774 Q 710.763 105.875 712.721 106.577 Q 714.678 107.280 718.926 108.051 Q 723.174 108.822 728.652 110.796 Q 734.129 112.769 736.995 113.511 Q 739.860 114.253 744.646 114.083 Q 749.432 113.913 752.469 106.120 Q 755.505 98.327 754.337 97.892 Q 753.170 97.458 749.251 97.953 Q 745.333 98.449 738.654 96.916 Q 731.976 95.383 730.359 93.752 Q 728.743 92.121 728.789 89.928 Q 728.834 87.735 730.013 83.182 Q 731.191 78.629 734.028 71.738 Q 736.864 64.848 737.591 61.258 Q 738.318 57.669 736.684 57.246 Q 735.050 56.823 729.340 56.495 L 723.630 56.166 "></path>
    <path id="STROKE_C906444D-DB1A-42E3-BCB9-B3294FBE81A2" opacity="1.000" fill="none" stroke="#000000" stroke-width="2.372" stroke-opacity="1.000" stroke-linecap="round" stroke-linejoin="round" d="M 773.046 68.957 Q 772.863 73.243 771.563 79.016 Q 770.263 84.788 766.866 98.040 Q 763.470 111.292 763.363 112.617 Q 763.256 113.941 764.201 115.626 Q 765.146 117.311 768.003 118.088 Q 770.859 118.865 773.856 120.759 Q 776.853 122.653 779.324 123.419 Q 781.796 124.185 783.936 123.792 Q 786.076 123.398 788.671 122.162 Q 791.265 120.925 797.043 116.142 Q 802.821 111.358 804.738 108.670 Q 806.655 105.983 808.504 102.387 Q 810.353 98.791 811.611 94.808 Q 812.870 90.825 812.693 88.613 Q 812.516 86.400 811.786 84.500 Q 811.057 82.599 807.898 78.793 Q 804.739 74.987 800.337 72.534 Q 795.935 70.081 791.404 68.876 Q 786.872 67.672 784.006 67.682 Q 781.140 67.691 777.765 68.397 Q 774.390 69.103 775.258 69.328 L 776.127 69.552 "></path>
    <path id="STROKE_0C4AD817-C830-48AB-A00A-9A4AC919E06C" opacity="1.000" fill="none" stroke="#000000" stroke-width="2.477" stroke-opacity="1.000" stroke-linecap="round" stroke-linejoin="round" d="M 782.783 93.689 Q 780.684 99.260 781.243 100.125 Q 781.803 100.990 782.995 101.362 Q 784.188 101.734 786.590 100.979 Q 788.992 100.223 790.274 99.469 Q 791.556 98.714 792.295 97.130 Q 793.033 95.546 791.762 94.598 Q 790.492 93.650 787.548 92.818 L 784.605 91.987 "></path>
    <path id="STROKE_46C76924-1E64-4A96-952E-7EEA1109AE19" opacity="1.000" fill="none" stroke="#000000" stroke-width="2.477" stroke-opacity="1.000" stroke-linecap="round" stroke-linejoin="round" d="M 867.281 88.940 Q 862.656 87.477 858.510 86.966 Q 854.363 86.455 844.234 84.389 Q 834.106 82.323 830.765 81.857 Q 827.424 81.390 825.844 81.669 Q 824.264 81.949 822.789 84.195 Q 821.315 86.442 820.343 90.069 Q 819.370 93.696 814.333 109.347 Q 809.297 124.999 810.539 127.588 Q 811.780 130.177 817.462 132.242 Q 823.144 134.306 825.615 134.946 Q 828.085 135.585 833.409 135.877 Q 838.733 136.168 846.231 135.153 Q 853.729 134.137 855.917 134.211 Q 858.104 134.284 858.581 133.321 Q 859.058 132.358 858.922 129.726 Q 858.786 127.095 857.126 124.334 Q 855.465 121.573 853.010 120.906 Q 850.554 120.239 845.032 121.235 Q 839.510 122.232 837.820 122.123 Q 836.130 122.014 832.893 121.176 Q 829.657 120.338 828.813 119.008 Q 827.970 117.678 828.508 114.103 Q 829.046 110.528 829.736 109.620 Q 830.426 108.712 832.330 108.352 Q 834.234 107.992 836.666 108.520 Q 839.098 109.049 843.162 110.498 Q 847.225 111.948 848.941 111.438 Q 850.656 110.928 851.631 109.702 Q 852.605 108.476 852.926 106.847 Q 853.246 105.219 851.210 104.331 Q 849.174 103.444 845.374 103.383 Q 841.574 103.322 838.969 102.812 Q 836.364 102.302 835.072 100.817 Q 833.780 99.333 833.801 97.463 Q 833.822 95.592 835.994 95.333 Q 838.167 95.074 842.028 95.941 Q 845.889 96.807 851.642 98.726 Q 857.395 100.645 860.974 100.680 Q 864.553 100.716 866.007 100.208 Q 867.461 99.700 867.786 98.799 Q 868.112 97.898 867.694 94.568 L 867.276 91.238 "></path>
    <path id="STROKE_C7B4542C-35F1-47A1-B552-DE3B83D42716" opacity="1.000" fill="none" stroke="#000000" stroke-width="2.382" stroke-opacity="1.000" stroke-linecap="round" stroke-linejoin="round" d="M 879.232 91.578 Q 875.337 102.787 873.688 108.671 Q 872.038 114.555 870.010 120.341 Q 867.982 126.127 865.981 130.928 Q 863.980 135.729 862.959 139.546 Q 861.937 143.362 868.593 145.015 Q 875.249 146.669 876.118 146.464 Q 876.988 146.260 879.643 135.614 Q 882.297 124.968 883.431 123.158 Q 884.565 121.348 885.413 123.671 Q 886.260 125.994 887.288 132.305 Q 888.316 138.617 888.936 144.229 Q 889.555 149.841 890.423 150.198 Q 891.290 150.556 898.742 148.840 Q 906.194 147.123 906.362 146.478 Q 906.529 145.833 903.628 139.725 Q 900.728 133.617 898.518 130.215 Q 896.307 126.813 895.516 124.012 Q 894.725 121.211 895.004 120.133 Q 895.283 119.056 899.397 116.014 Q 903.511 112.973 906.504 109.806 Q 909.497 106.639 910.381 103.974 Q 911.264 101.310 909.737 99.076 Q 908.209 96.842 904.287 95.593 Q 900.365 94.344 896.132 94.038 Q 891.899 93.732 886.519 93.919 Q 881.139 94.106 880.093 95.118 L 879.048 96.129 "></path>
    <path id="STROKE_537440A6-90DD-4CB2-8656-660435D1ABC3" opacity="1.000" fill="none" stroke="#000000" stroke-width="2.477" stroke-opacity="1.000" stroke-linecap="round" stroke-linejoin="round" d="M 887.936 105.265 Q 887.241 105.869 886.715 107.413 Q 886.189 108.957 886.882 109.958 Q 887.575 110.958 888.839 111.412 Q 890.103 111.865 891.722 111.337 Q 893.341 110.808 894.307 110.136 Q 895.273 109.464 895.890 108.606 Q 896.508 107.749 896.797 106.245 Q 897.085 104.740 896.612 104.289 Q 896.139 103.838 894.750 103.479 Q 893.360 103.119 890.594 103.881 L 887.828 104.643 "></path>
    <path id="STROKE_F9133ED0-4902-44F5-A08C-1BA5DAE877A4" opacity="1.000" fill="none" stroke="#000000" stroke-width="2.243" stroke-opacity="1.000" stroke-linecap="round" stroke-linejoin="round" d="M 927.820 107.831 Q 928.121 107.644 925.634 117.253 Q 923.147 126.862 920.904 133.641 Q 918.660 140.420 916.568 146.094 Q 914.476 151.769 913.032 154.907 Q 911.588 158.046 913.989 157.815 Q 916.391 157.583 919.162 158.073 Q 921.932 158.563 925.509 159.615 Q 929.086 160.667 929.783 156.577 Q 930.479 152.487 931.363 149.071 Q 932.248 145.655 934.493 138.251 Q 936.737 130.847 940.227 121.693 Q 943.717 112.540 944.466 109.645 Q 945.215 106.749 942.742 107.259 Q 940.268 107.768 935.253 107.588 Q 930.237 107.408 931.224 107.664 L 932.211 107.919 "></path>
    <path id="STROKE_64C06FC0-56BC-49B9-B2D8-B43EBD38242B" opacity="1.000" fill="none" stroke="#000000" stroke-width="2.405" stroke-opacity="1.000" stroke-linecap="round" stroke-linejoin="round" d="M 958.677 112.988 Q 950.659 136.548 945.724 149.269 Q 940.788 161.991 947.182 163.974 Q 953.575 165.957 957.097 153.003 Q 960.618 140.048 962.957 146.535 Q 965.296 153.021 966.667 157.388 Q 968.039 161.754 967.978 164.265 Q 967.918 166.776 971.021 167.251 Q 974.124 167.726 979.437 168.937 Q 984.750 170.148 985.295 167.035 Q 985.839 163.923 990.463 146.061 Q 995.086 128.199 995.344 126.194 Q 995.602 124.188 989.783 123.011 Q 983.965 121.833 981.547 121.637 Q 979.130 121.441 978.219 126.492 Q 977.307 131.544 975.745 137.318 Q 974.183 143.092 973.883 136.116 Q 973.583 129.140 972.489 124.188 Q 971.396 119.237 970.641 117.336 Q 969.887 115.435 967.913 114.924 Q 965.940 114.413 962.844 114.300 L 959.748 114.188 "></path>
    <path id="STROKE_79596823-AD3B-44B5-B50A-FD7831BE4834" opacity="1.000" fill="none" stroke="#000000" stroke-width="2.477" stroke-opacity="1.000" stroke-linecap="round" stroke-linejoin="round" d="M 1043.905 159.307 Q 1056.431 160.767 1056.992 160.521 Q 1057.553 160.274 1058.533 156.845 Q 1059.513 153.416 1058.975 149.897 Q 1058.437 146.378 1057.669 144.271 Q 1056.900 142.165 1055.090 139.491 Q 1053.281 136.818 1049.561 133.259 Q 1045.841 129.700 1041.581 127.220 Q 1037.321 124.740 1034.448 123.896 Q 1031.576 123.051 1029.402 123.051 Q 1027.229 123.051 1023.752 124.380 Q 1020.274 125.710 1018.035 127.398 Q 1015.795 129.087 1012.580 132.594 Q 1009.364 136.102 1004.656 142.477 Q 999.949 148.851 998.355 151.559 Q 996.761 154.267 996.037 156.676 Q 995.312 159.085 995.234 162.186 Q 995.156 165.286 995.996 167.506 Q 996.837 169.726 1001.855 175.005 Q 1006.873 180.284 1008.309 181.243 Q 1009.746 182.202 1013.407 183.188 Q 1017.069 184.173 1020.933 183.594 Q 1024.797 183.015 1027.399 181.749 Q 1030.001 180.484 1030.817 179.608 Q 1031.633 178.733 1029.932 182.898 Q 1028.231 187.063 1028.324 187.971 Q 1028.417 188.880 1030.041 190.481 Q 1031.665 192.083 1038.374 193.756 Q 1045.084 195.430 1045.025 193.248 Q 1044.967 191.066 1046.124 186.596 Q 1047.281 182.126 1053.611 183.866 Q 1059.941 185.605 1061.974 181.071 Q 1064.006 176.537 1063.869 174.758 Q 1063.731 172.979 1057.109 171.101 Q 1050.486 169.222 1043.816 167.136 Q 1037.146 165.049 1026.703 162.441 Q 1016.260 159.833 1015.567 162.382 Q 1014.873 164.932 1014.948 166.789 Q 1015.023 168.647 1017.596 169.022 Q 1020.169 169.398 1024.976 170.642 Q 1029.784 171.886 1029.553 172.907 Q 1029.323 173.928 1027.771 175.105 Q 1026.220 176.283 1023.906 176.568 Q 1021.591 176.854 1016.823 175.424 Q 1012.055 173.994 1010.742 170.931 Q 1009.430 167.869 1009.444 165.276 Q 1009.458 162.683 1010.138 158.785 Q 1010.819 154.887 1012.380 153.054 Q 1013.940 151.222 1017.659 148.798 Q 1021.377 146.375 1024.145 145.120 Q 1026.912 143.866 1028.864 143.550 Q 1030.816 143.234 1034.014 143.600 Q 1037.212 143.967 1039.208 145.273 Q 1041.203 146.579 1042.793 148.602 Q 1044.384 150.624 1044.879 152.130 Q 1045.373 153.635 1045.185 156.283 L 1044.996 158.932 "></path>
    <path id="STROKE_3D448CD4-1AE7-44BF-848C-7627DFDE317D" opacity="1.000" fill="none" stroke="#000000" stroke-width="2.812" stroke-opacity="1.000" stroke-linecap="round" stroke-linejoin="round" d="M 29.015 614.418 Q 32.625 650.913 33.397 666.212 Q 34.168 681.511 34.164 688.814 Q 34.159 696.117 34.469 697.937 Q 34.778 699.757 38.358 698.509 Q 41.937 697.261 48.567 696.054 Q 55.196 694.847 56.534 693.569 Q 57.872 692.291 55.966 685.422 Q 54.060 678.553 53.116 670.049 Q 52.172 661.546 51.443 658.333 Q 50.713 655.121 52.841 658.386 Q 54.968 661.651 59.552 671.121 Q 64.137 680.591 65.342 682.312 Q 66.547 684.032 69.179 685.325 Q 71.811 686.618 84.038 683.705 Q 96.265 680.792 91.155 674.384 Q 86.045 667.976 78.193 659.755 Q 70.340 651.534 67.194 648.702 Q 64.048 645.869 63.525 644.637 Q 63.003 643.404 68.047 628.506 Q 73.092 613.608 75.941 604.678 Q 78.789 595.748 79.017 594.079 Q 79.244 592.410 73.964 594.181 Q 68.684 595.951 61.055 600.081 Q 53.427 604.210 52.376 607.021 Q 51.325 609.833 50.306 614.728 Q 49.287 619.624 48.434 628.263 Q 47.581 636.902 44.147 621.324 Q 40.713 605.746 35.798 610.344 L 30.883 614.942 "></path>
    <path id="STROKE_40BD7A4B-CB88-4496-9FF3-3B2D957ED716" opacity="1.000" fill="none" stroke="#000000" stroke-width="2.959" stroke-opacity="1.000" stroke-linecap="round" stroke-linejoin="round" d="M 98.386 626.586 Q 100.874 640.819 101.414 646.173 Q 101.954 651.527 103.427 661.599 Q 104.900 671.672 106.112 672.852 Q 107.324 674.032 109.698 674.337 Q 112.071 674.643 113.669 674.241 Q 115.267 673.839 120.288 671.348 Q 125.309 668.856 130.045 667.781 Q 134.781 666.705 135.476 665.605 Q 136.170 664.506 134.849 661.967 Q 133.527 659.428 132.338 654.190 Q 131.148 648.951 128.110 650.485 Q 125.071 652.020 119.602 653.872 Q 114.133 655.725 113.148 652.265 Q 112.163 648.806 112.007 646.171 Q 111.850 643.537 117.432 642.639 Q 123.015 641.742 122.898 638.559 Q 122.782 635.377 120.938 634.847 Q 119.094 634.317 115.297 634.302 Q 111.499 634.288 110.579 632.905 Q 109.659 631.523 113.359 629.468 Q 117.058 627.413 121.637 626.711 Q 126.215 626.009 124.069 618.350 Q 121.922 610.691 121.214 610.280 Q 120.506 609.869 117.205 611.126 Q 113.905 612.382 105.652 616.854 Q 97.400 621.327 97.991 623.661 L 98.581 625.996 "></path>
    <path id="STROKE_99BD1B4B-6C3F-4F0B-8EAD-F2A01C4D732D" opacity="1.000" fill="none" stroke="#000000" stroke-width="2.962" stroke-opacity="1.000" stroke-linecap="round" stroke-linejoin="round" d="M 136.542 608.320 Q 135.389 608.049 146.906 618.068 Q 158.424 628.088 158.844 629.175 Q 159.264 630.262 158.866 633.126 Q 158.469 635.990 159.450 641.952 Q 160.432 647.914 160.901 654.596 Q 161.370 661.278 167.336 659.858 Q 173.302 658.438 172.295 655.490 Q 171.288 652.542 169.288 643.128 Q 167.289 633.715 166.555 630.938 Q 165.821 628.162 166.997 625.602 Q 168.174 623.042 171.603 617.124 Q 175.032 611.207 181.233 601.250 Q 187.435 591.292 186.850 590.509 Q 186.265 589.726 182.304 590.593 Q 178.343 591.460 174.045 592.975 Q 169.746 594.491 167.849 594.454 Q 165.953 594.417 161.847 604.067 Q 157.742 613.717 156.179 609.239 Q 154.616 604.761 152.378 603.106 Q 150.140 601.451 147.671 603.090 Q 145.202 604.729 141.990 606.374 Q 138.778 608.020 137.328 608.349 Q 135.878 608.678 136.182 607.765 L 136.486 606.851 "></path>
    <path id="STROKE_44A6CF67-AFE3-4FF1-BB47-50F247A9F82F" opacity="1.000" fill="none" stroke="#000000" stroke-width="2.717" stroke-opacity="1.000" stroke-linecap="round" stroke-linejoin="round" d="M 197.234 592.107 Q 196.533 590.240 197.433 601.183 Q 198.333 612.126 198.877 620.623 Q 199.420 629.120 199.626 637.961 Q 199.832 646.801 200.452 650.408 Q 201.072 654.016 202.483 653.059 Q 203.894 652.102 207.825 651.105 Q 211.757 650.108 213.984 648.894 Q 216.212 647.680 220.116 644.124 Q 224.020 640.567 226.481 637.403 Q 228.941 634.240 228.880 631.148 Q 228.819 628.057 227.888 627.086 Q 226.958 626.115 221.032 626.109 Q 215.106 626.104 214.682 624.810 Q 214.258 623.516 216.903 618.797 Q 219.547 614.078 220.942 609.162 Q 222.338 604.245 223.040 597.804 Q 223.743 591.362 222.672 588.897 Q 221.601 586.431 219.192 586.237 Q 216.784 586.044 214.213 586.660 Q 211.642 587.276 203.718 591.746 Q 195.794 596.215 197.769 594.617 L 199.745 593.018 "></path>
    <path id="STROKE_67CF99D5-5615-4180-9DCF-FF6FEB4A6F11" opacity="1.000" fill="none" stroke="#000000" stroke-width="2.987" stroke-opacity="1.000" stroke-linecap="round" stroke-linejoin="round" d="M 207.024 603.331 Q 207.236 602.738 207.755 605.023 Q 208.274 607.309 208.960 607.965 Q 209.646 608.622 210.198 608.496 Q 210.750 608.371 211.122 607.338 Q 211.493 606.305 211.311 604.014 Q 211.129 601.724 210.370 601.357 Q 209.611 600.990 208.359 601.274 Q 207.107 601.559 206.727 601.983 L 206.346 602.407 "></path>
    <path id="STROKE_FA1F39BC-6F48-411A-9902-39AB399898D5" opacity="1.000" fill="none" stroke="#000000" stroke-width="2.987" stroke-opacity="1.000" stroke-linecap="round" stroke-linejoin="round" d="M 211.804 633.610 Q 211.884 631.903 211.136 633.794 Q 210.387 635.686 210.558 637.810 Q 210.728 639.935 212.331 639.974 Q 213.934 640.012 214.482 639.453 Q 215.031 638.893 215.692 637.456 Q 216.353 636.020 216.240 634.493 Q 216.127 632.966 214.200 632.221 L 212.272 631.477 "></path>
    <path id="STROKE_B4EDA263-47B3-4134-9DD7-8F77069A60EC" opacity="1.000" fill="none" stroke="#000000" stroke-width="2.987" stroke-opacity="1.000" stroke-linecap="round" stroke-linejoin="round" d="M 255.010 582.430 Q 249.485 582.814 247.172 584.723 Q 244.860 586.632 242.811 591.151 Q 240.763 595.670 239.673 601.322 Q 238.583 606.974 238.382 610.703 Q 238.181 614.433 238.458 618.020 Q 238.736 621.608 239.474 624.858 Q 240.212 628.107 242.121 631.896 Q 244.029 635.686 245.802 636.667 Q 247.576 637.648 250.454 638.079 Q 253.332 638.510 255.157 638.193 Q 256.982 637.876 258.779 635.948 Q 260.576 634.020 261.833 631.506 Q 263.089 628.992 264.477 624.383 Q 265.864 619.774 266.331 616.186 Q 266.798 612.598 266.591 609.741 Q 266.384 606.885 264.915 599.650 Q 263.445 592.416 261.247 588.725 Q 259.049 585.034 257.217 583.488 L 255.384 581.942 "></path>
    <path id="STROKE_52A59E35-1D0A-48A7-AA00-3E24F85D0A66" opacity="1.000" fill="none" stroke="#000000" stroke-width="2.987" stroke-opacity="1.000" stroke-linecap="round" stroke-linejoin="round" d="M 252.487 612.743 Q 252.560 610.089 252.079 607.970 Q 251.598 605.851 250.999 605.006 Q 250.400 604.161 249.370 605.272 Q 248.341 606.383 247.993 609.203 Q 247.647 612.023 248.022 614.400 Q 248.397 616.777 250.015 616.884 Q 251.633 616.990 252.491 615.886 Q 253.349 614.782 253.944 613.360 Q 254.539 611.939 254.579 610.475 L 254.619 609.011 "></path>
    <path id="STROKE_CBA20219-1796-4BFA-9F2B-1CBF2086639C" opacity="1.000" fill="none" stroke="#000000" stroke-width="2.845" stroke-opacity="1.000" stroke-linecap="round" stroke-linejoin="round" d="M 276.189 578.504 Q 276.895 595.039 276.031 602.563 Q 275.167 610.087 275.145 616.549 Q 275.122 623.012 274.600 629.179 Q 274.077 635.345 276.674 633.813 Q 279.272 632.282 285.594 630.943 Q 291.916 629.605 293.308 628.412 Q 294.700 627.219 293.419 625.314 Q 292.138 623.409 290.995 618.530 Q 289.852 613.651 289.929 612.348 Q 290.005 611.044 293.156 611.342 Q 296.307 611.640 300.781 610.325 Q 305.256 609.010 306.890 616.207 Q 308.524 623.404 309.509 624.765 Q 310.494 626.127 317.765 624.008 Q 325.036 621.889 325.251 621.197 Q 325.467 620.505 322.860 611.736 Q 320.254 602.966 317.477 594.743 Q 314.700 586.519 312.640 579.548 Q 310.581 572.578 306.974 571.877 Q 303.368 571.176 299.786 571.956 Q 296.204 572.737 288.427 576.634 Q 280.651 580.531 278.090 581.041 L 275.529 581.551 "></path>
    <path id="STROKE_95E4B1F5-47E8-4382-A863-3521625AD377" opacity="1.000" fill="none" stroke="#000000" stroke-width="2.987" stroke-opacity="1.000" stroke-linecap="round" stroke-linejoin="round" d="M 292.615 590.040 Q 291.250 595.625 291.275 596.802 Q 291.300 597.978 292.742 598.190 Q 294.185 598.402 296.694 597.968 Q 299.202 597.535 300.258 596.386 Q 301.314 595.237 301.131 594.128 Q 300.949 593.020 299.838 592.018 Q 298.727 591.017 294.813 590.184 Q 290.900 589.351 290.823 588.557 L 290.747 587.762 "></path>
    <path id="STROKE_8C523328-D1F3-4352-8370-6B7B7FAF0D5A" opacity="1.000" fill="none" stroke="#000000" stroke-width="2.865" stroke-opacity="1.000" stroke-linecap="round" stroke-linejoin="round" d="M 324.464 571.998 Q 330.820 599.683 332.827 610.921 Q 334.833 622.159 335.881 622.427 Q 336.930 622.696 339.584 621.112 Q 342.239 619.529 346.259 618.616 Q 350.278 617.703 351.513 615.396 Q 352.747 613.089 349.145 604.208 Q 345.543 595.327 353.432 600.733 Q 361.321 606.140 363.298 608.594 Q 365.276 611.049 371.565 609.523 Q 377.853 607.998 380.081 606.173 Q 382.308 604.349 378.942 602.645 Q 375.575 600.941 369.504 597.284 Q 363.434 593.628 358.904 591.721 Q 354.374 589.813 354.468 588.168 Q 354.562 586.523 358.404 581.356 Q 362.245 576.189 364.145 572.653 Q 366.044 569.116 366.822 565.523 Q 367.599 561.929 364.500 561.555 Q 361.401 561.180 352.374 563.158 Q 343.348 565.137 335.308 568.489 L 327.269 571.841 "></path>
    <path id="STROKE_4FF9BA8F-9263-4AA8-A386-EABCF0DC1535" opacity="1.000" fill="none" stroke="#000000" stroke-width="2.987" stroke-opacity="1.000" stroke-linecap="round" stroke-linejoin="round" d="M 344.539 581.977 Q 343.755 583.026 345.132 582.986 Q 346.508 582.946 347.064 582.379 Q 347.619 581.811 348.083 580.724 Q 348.546 579.638 348.320 578.949 Q 348.095 578.260 346.678 578.581 Q 345.261 578.903 343.793 579.912 Q 342.324 580.921 342.447 581.160 L 342.571 581.398 "></path>
    <path id="STROKE_882C48B1-61A1-4A51-8DB1-07CF47AF8C4D" opacity="1.000" fill="none" stroke="#000000" stroke-width="2.757" stroke-opacity="1.000" stroke-linecap="round" stroke-linejoin="round" d="M 379.992 557.153 Q 383.883 573.978 386.466 588.060 Q 389.048 602.142 390.045 605.197 Q 391.042 608.251 396.881 606.958 Q 402.719 605.664 405.640 604.527 Q 408.561 603.389 413.297 600.254 Q 418.033 597.119 421.257 594.191 Q 424.482 591.264 426.827 587.554 Q 429.172 583.845 429.398 581.864 Q 429.624 579.884 428.843 575.838 Q 428.063 571.793 426.056 568.026 Q 424.049 564.259 421.134 560.692 Q 418.219 557.125 415.598 554.816 Q 412.978 552.508 408.276 549.996 Q 403.574 547.484 400.174 547.236 Q 396.775 546.988 393.583 547.850 Q 390.392 548.711 386.399 551.683 L 382.405 554.656 "></path>
    <path id="STROKE_9BEBEFF3-CD87-4A0C-9F33-362489644A36" opacity="1.000" fill="none" stroke="#000000" stroke-width="2.987" stroke-opacity="1.000" stroke-linecap="round" stroke-linejoin="round" d="M 397.561 577.303 Q 397.742 576.041 398.807 581.035 Q 399.872 586.029 400.424 586.515 Q 400.976 587.000 403.017 586.874 Q 405.059 586.748 407.271 583.979 Q 409.483 581.209 410.085 579.552 Q 410.688 577.895 410.419 576.709 Q 410.149 575.523 409.243 574.813 Q 408.337 574.103 407.048 573.921 Q 405.760 573.740 403.791 574.187 Q 401.823 574.634 400.232 575.372 L 398.641 576.110 "></path>
    <path id="STROKE_50E8F485-2246-4C92-B569-5CF269ED97E2" opacity="1.000" fill="none" stroke="#000000" stroke-width="2.987" stroke-opacity="1.000" stroke-linecap="round" stroke-linejoin="round" d="M 476.383 545.268 Q 477.730 542.195 477.634 539.105 Q 477.539 536.014 474.421 534.527 Q 471.302 533.039 469.175 532.749 Q 467.048 532.459 462.063 532.708 Q 457.078 532.956 453.116 533.856 Q 449.154 534.756 445.595 537.123 Q 442.036 539.491 439.490 543.005 Q 436.945 546.519 436.532 547.867 Q 436.119 549.214 436.392 551.751 Q 436.665 554.287 437.798 555.082 Q 438.932 555.878 447.280 557.931 Q 455.629 559.985 457.863 561.167 Q 460.098 562.348 461.459 565.521 Q 462.821 568.694 462.069 570.151 Q 461.317 571.608 454.169 573.199 Q 447.020 574.790 445.569 574.541 Q 444.118 574.292 442.953 581.521 Q 441.788 588.750 442.046 590.646 Q 442.303 592.543 443.640 592.746 Q 444.977 592.950 454.540 591.694 Q 464.103 590.438 467.123 589.584 Q 470.142 588.729 472.399 587.339 Q 474.656 585.950 476.326 582.394 Q 477.996 578.838 478.433 574.815 Q 478.871 570.792 478.513 568.340 Q 478.155 565.887 474.545 562.653 Q 470.935 559.420 462.422 555.610 Q 453.909 551.801 453.080 549.488 Q 452.252 547.175 452.974 546.199 Q 453.697 545.223 457.739 544.064 Q 461.780 542.906 463.364 543.053 Q 464.948 543.200 469.344 545.547 L 473.740 547.895 "></path>
    <path id="STROKE_B28104A5-F2AA-4175-85F5-FD89ED373659" opacity="1.000" fill="none" stroke="#000000" stroke-width="3.027" stroke-opacity="1.000" stroke-linecap="round" stroke-linejoin="round" d="M 676.942 647.408 Q 673.505 647.495 664.660 648.858 Q 655.815 650.220 652.061 650.348 Q 648.306 650.476 642.760 649.829 Q 637.214 649.183 636.236 649.635 Q 635.259 650.087 634.822 652.620 Q 634.385 655.152 633.521 664.630 Q 632.658 674.108 630.593 686.076 Q 628.528 698.044 627.188 708.711 Q 625.849 719.378 626.910 720.057 Q 627.970 720.735 631.043 720.083 Q 634.116 719.432 643.044 719.021 Q 651.971 718.610 658.307 717.405 Q 664.642 716.201 671.849 715.893 Q 679.056 715.584 679.509 714.761 Q 679.961 713.938 679.424 710.551 Q 678.886 707.164 679.011 701.414 Q 679.136 695.664 677.663 695.344 Q 676.190 695.024 672.386 696.732 Q 668.582 698.439 665.941 698.944 Q 663.299 699.449 655.655 699.431 Q 648.011 699.413 646.702 697.080 Q 645.394 694.748 644.950 689.019 Q 644.506 683.290 650.940 683.314 Q 657.373 683.338 662.742 682.528 Q 668.110 681.717 667.640 676.140 Q 667.170 670.562 665.034 670.163 Q 662.899 669.765 658.688 670.369 Q 654.478 670.974 650.184 669.893 Q 645.891 668.812 645.890 667.570 Q 645.889 666.328 648.051 664.774 Q 650.214 663.219 652.654 662.590 Q 655.094 661.961 662.717 662.655 Q 670.340 663.350 675.154 662.844 Q 679.968 662.338 678.253 655.864 L 676.537 649.391 "></path>
    <path id="STROKE_F4D9911D-DF80-459D-BD66-3B186751CC0B" opacity="1.000" fill="none" stroke="#000000" stroke-width="2.947" stroke-opacity="1.000" stroke-linecap="round" stroke-linejoin="round" d="M 693.945 675.051 Q 693.359 688.867 691.304 701.148 Q 689.248 713.428 688.745 715.794 Q 688.241 718.160 689.570 718.574 Q 690.899 718.989 694.793 718.604 Q 698.687 718.220 704.623 718.408 Q 710.558 718.597 716.707 718.476 Q 722.855 718.356 723.338 717.353 Q 723.822 716.350 723.730 711.118 Q 723.638 705.886 722.377 705.077 Q 721.116 704.269 719.002 705.175 Q 716.888 706.082 713.496 706.648 Q 710.103 707.215 708.421 707.050 Q 706.738 706.885 706.200 704.058 Q 705.661 701.232 706.026 694.963 Q 706.392 688.693 706.395 680.744 Q 706.398 672.795 705.683 672.421 Q 704.967 672.047 701.236 673.516 L 697.505 674.984 "></path>
    <path id="STROKE_281BEF6C-361A-4954-9154-CF44F09CF8C6" opacity="1.000" fill="none" stroke="#000000" stroke-width="3.056" stroke-opacity="1.000" stroke-linecap="round" stroke-linejoin="round" d="M 764.693 674.844 Q 763.148 674.387 748.487 677.169 Q 733.827 679.951 732.932 683.706 Q 732.038 687.461 731.751 691.106 Q 731.464 694.750 731.519 700.752 Q 731.573 706.754 732.388 710.839 Q 733.203 714.925 736.029 719.853 Q 738.855 724.781 740.383 725.104 Q 741.911 725.428 750.354 723.721 Q 758.797 722.015 763.119 720.212 Q 767.441 718.410 768.186 712.982 Q 768.932 707.554 766.741 706.555 Q 764.550 705.556 757.849 706.388 Q 751.148 707.219 748.065 707.057 Q 744.982 706.895 743.948 704.950 Q 742.915 703.005 742.776 701.274 Q 742.637 699.543 743.656 699.218 Q 744.675 698.892 751.187 698.464 Q 757.699 698.036 758.679 697.059 Q 759.659 696.082 760.049 694.192 Q 760.439 692.302 759.233 691.909 Q 758.028 691.516 754.622 691.608 Q 751.216 691.701 747.664 691.028 Q 744.111 690.356 742.720 688.689 Q 741.328 687.023 745.537 686.567 Q 749.746 686.112 754.870 686.530 Q 759.994 686.949 762.378 686.274 Q 764.763 685.599 764.959 685.013 Q 765.156 684.426 764.130 680.644 Q 763.103 676.862 763.946 676.452 L 764.788 676.043 "></path>
    <path id="STROKE_7467DC41-C2D6-4F6D-8463-3C0F0D8F95E6" opacity="1.000" fill="none" stroke="#000000" stroke-width="3.056" stroke-opacity="1.000" stroke-linecap="round" stroke-linejoin="round" d="M 805.348 692.973 Q 811.010 683.959 811.478 682.673 Q 811.947 681.387 810.805 680.074 Q 809.662 678.761 807.228 677.004 Q 804.794 675.247 801.497 674.523 Q 798.200 673.799 796.319 673.910 Q 794.438 674.021 791.775 675.018 Q 789.112 676.014 786.847 677.981 Q 784.582 679.948 783.205 681.978 Q 781.828 684.008 780.114 689.424 Q 778.399 694.840 777.878 697.859 Q 777.357 700.879 777.673 705.183 Q 777.989 709.487 779.182 712.486 Q 780.375 715.485 782.047 717.140 Q 783.719 718.796 786.164 720.495 Q 788.608 722.194 791.724 723.227 Q 794.840 724.260 796.885 723.616 Q 798.930 722.972 802.281 720.477 Q 805.632 717.981 807.013 716.483 Q 808.393 714.984 809.160 712.848 Q 809.926 710.713 805.475 708.423 Q 801.024 706.133 799.316 705.748 Q 797.607 705.364 795.743 706.809 Q 793.878 708.254 792.066 708.472 Q 790.253 708.691 788.702 707.396 Q 787.151 706.102 786.397 703.645 Q 785.644 701.187 785.675 698.835 Q 785.707 696.483 786.592 693.341 Q 787.476 690.199 789.251 688.769 Q 791.026 687.338 793.270 686.920 Q 795.515 686.501 797.125 686.714 Q 798.736 686.926 800.546 688.885 Q 802.357 690.845 803.973 692.085 L 805.589 693.325 "></path>
    <path id="STROKE_42BFEFE2-4BE8-4A52-99FF-30A3023BF187" opacity="1.000" fill="none" stroke="#000000" stroke-width="3.056" stroke-opacity="1.000" stroke-linecap="round" stroke-linejoin="round" d="M 822.897 679.170 Q 821.200 692.604 827.364 691.836 Q 833.529 691.067 833.781 697.909 Q 834.032 704.750 833.349 712.677 Q 832.665 720.605 834.068 720.411 Q 835.470 720.217 840.387 720.726 Q 845.305 721.234 845.715 719.783 Q 846.124 718.332 845.892 713.911 Q 845.660 709.490 846.280 703.360 Q 846.901 697.230 846.336 692.382 Q 845.773 687.534 849.712 687.253 Q 853.652 686.972 859.071 685.824 Q 864.489 684.676 863.647 682.359 Q 862.806 680.041 862.620 677.150 Q 862.435 674.259 861.656 673.379 Q 860.877 672.498 852.199 673.579 Q 843.522 674.660 839.913 675.374 Q 836.304 676.089 829.578 676.885 L 822.851 677.682 "></path>
    <path id="STROKE_F16CC9E2-71C2-4E66-983C-452365629D63" opacity="1.000" fill="none" stroke="#000000" stroke-width="2.944" stroke-opacity="1.000" stroke-linecap="round" stroke-linejoin="round" d="M 872.408 676.231 Q 866.663 709.521 864.333 718.740 Q 862.002 727.959 863.260 728.922 Q 864.518 729.885 871.321 729.382 Q 878.125 728.879 879.911 728.256 Q 881.698 727.633 881.521 720.399 Q 881.345 713.165 880.954 708.377 Q 880.563 703.588 881.185 703.761 Q 881.808 703.934 884.683 707.844 Q 887.557 711.754 891.065 717.206 Q 894.572 722.657 895.706 722.912 Q 896.840 723.168 904.894 721.734 Q 912.947 720.301 913.072 719.762 Q 913.197 719.222 901.840 708.071 Q 890.483 696.920 894.247 693.320 Q 898.012 689.721 900.319 686.078 Q 902.627 682.436 903.551 679.432 Q 904.475 676.429 902.815 675.211 Q 901.155 673.994 897.799 673.474 Q 894.443 672.955 888.513 673.794 Q 882.583 674.632 880.642 675.229 L 878.701 675.825 "></path>
    <path id="STROKE_49450B0A-DC5F-44CF-87F6-031BA2B06226" opacity="1.000" fill="none" stroke="#000000" stroke-width="3.056" stroke-opacity="1.000" stroke-linecap="round" stroke-linejoin="round" d="M 886.672 688.385 Q 887.973 684.443 886.731 684.074 Q 885.490 683.704 884.368 684.072 Q 883.246 684.439 881.588 685.609 Q 879.930 686.780 879.361 688.233 Q 878.792 689.687 880.352 690.051 Q 881.913 690.416 883.103 690.156 Q 884.294 689.896 885.509 689.175 L 886.724 688.453 "></path>
    <path id="STROKE_0E630769-6080-4650-A3A2-02EC98DE2BB1" opacity="1.000" fill="none" stroke="#000000" stroke-width="2.390" stroke-opacity="1.000" stroke-linecap="round" stroke-linejoin="round" d="M 940.473 674.690 Q 935.117 673.635 932.888 675.023 Q 930.659 676.411 928.587 678.506 Q 926.514 680.602 924.260 683.752 Q 922.005 686.902 919.678 691.902 Q 917.351 696.901 916.873 699.302 Q 916.396 701.702 916.851 703.768 Q 917.306 705.834 918.656 707.559 Q 920.005 709.284 922.087 710.544 Q 924.170 711.805 927.051 712.768 Q 929.933 713.731 934.341 714.521 Q 938.748 715.311 942.544 715.125 Q 946.340 714.938 948.329 714.386 Q 950.319 713.834 953.188 711.781 Q 956.057 709.728 957.234 706.362 Q 958.412 702.996 958.139 701.117 Q 957.867 699.237 956.293 695.212 Q 954.720 691.186 952.407 686.932 Q 950.093 682.677 947.885 680.344 Q 945.678 678.012 943.358 677.021 Q 941.038 676.029 938.315 675.810 L 935.591 675.591 "></path>
    <path id="STROKE_ED0A57C3-1CDA-4F3C-BD01-348094E4FA63" opacity="1.000" fill="none" stroke="#000000" stroke-width="3.056" stroke-opacity="1.000" stroke-linecap="round" stroke-linejoin="round" d="M 942.517 698.451 Q 942.434 696.073 941.925 694.869 Q 941.417 693.665 939.737 693.161 Q 938.058 692.656 937.248 693.012 Q 936.439 693.367 935.068 694.623 Q 933.698 695.879 932.928 697.852 Q 932.157 699.826 933.290 700.642 Q 934.422 701.458 936.053 701.740 Q 937.683 702.021 939.934 701.198 Q 942.185 700.375 942.858 699.560 Q 943.532 698.745 943.663 697.622 L 943.793 696.498 "></path>
    <path id="STROKE_AB1249E6-5604-43A4-B0B2-6C9190AB9A02" opacity="1.000" fill="none" stroke="#000000" stroke-width="3.036" stroke-opacity="1.000" stroke-linecap="round" stroke-linejoin="round" d="M 968.783 678.585 Q 966.876 683.090 965.128 693.221 Q 963.380 703.352 961.711 709.056 Q 960.043 714.760 960.717 715.187 Q 961.391 715.614 967.756 714.790 Q 974.121 713.967 974.663 712.628 Q 975.204 711.289 975.254 704.315 Q 975.303 697.340 977.835 702.683 Q 980.367 708.026 984.888 712.996 Q 989.410 717.966 992.677 716.697 Q 995.944 715.429 1001.008 714.536 Q 1006.072 713.643 1005.672 708.949 Q 1005.273 704.254 1006.696 692.916 Q 1008.119 681.577 1009.262 676.062 Q 1010.405 670.548 1000.340 672.475 Q 990.275 674.403 989.801 682.361 Q 989.327 690.318 989.377 696.164 Q 989.426 702.009 988.482 699.549 Q 987.538 697.088 985.483 693.504 Q 983.427 689.921 982.026 685.083 Q 980.624 680.246 978.190 679.736 Q 975.755 679.227 971.735 679.464 L 967.715 679.702 "></path>
    <path id="STROKE_858F1B28-2F93-43E5-A911-D09C61CB7D3C" opacity="1.000" fill="none" stroke="#000000" stroke-width="2.852" stroke-opacity="1.000" stroke-linecap="round" stroke-linejoin="round" d="M 1023.919 675.422 Q 1022.558 675.748 1020.836 683.926 Q 1019.115 692.104 1017.108 699.582 Q 1015.102 707.060 1013.800 713.544 Q 1012.498 720.028 1017.929 718.297 Q 1023.361 716.567 1026.957 715.880 Q 1030.553 715.194 1029.743 712.135 Q 1028.934 709.077 1028.586 705.884 Q 1028.238 702.690 1029.109 695.106 Q 1029.980 687.521 1031.704 682.047 Q 1033.429 676.574 1033.632 675.027 Q 1033.835 673.481 1032.942 672.891 Q 1032.049 672.301 1029.623 673.404 Q 1027.196 674.508 1025.406 674.599 L 1023.616 674.689 "></path>
    <path id="STROKE_6FC44509-4BA6-482A-BE17-140C3CBAD4F4" opacity="1.000" fill="none" stroke="#000000" stroke-width="3.056" stroke-opacity="1.000" stroke-linecap="round" stroke-linejoin="round" d="M 1028.561 659.405 Q 1025.883 659.432 1023.288 657.868 Q 1020.693 656.304 1015.766 651.885 Q 1010.838 647.466 1010.206 645.369 Q 1009.573 643.272 1009.823 641.453 Q 1010.073 639.634 1010.873 638.776 Q 1011.674 637.917 1014.977 636.625 Q 1018.279 635.333 1021.479 635.515 Q 1024.678 635.697 1025.471 636.544 Q 1026.264 637.391 1026.865 640.043 Q 1027.465 642.695 1028.755 640.620 Q 1030.044 638.545 1033.296 636.253 Q 1036.548 633.961 1039.742 633.301 Q 1042.935 632.640 1045.175 632.991 Q 1047.414 633.341 1048.623 634.266 Q 1049.832 635.191 1050.273 636.974 Q 1050.713 638.757 1049.492 641.686 Q 1048.270 644.614 1045.614 647.415 Q 1042.959 650.215 1040.005 652.343 Q 1037.052 654.472 1032.625 656.191 Q 1028.198 657.910 1029.897 657.797 L 1031.595 657.684 "></path>
    <path id="STROKE_87C96659-EE21-4BD2-BC8D-3B717C294CA9" opacity="1.000" fill="none" stroke="#000000" stroke-width="3.055" stroke-opacity="1.000" stroke-linecap="round" stroke-linejoin="round" d="M 1077.195 682.959 Q 1082.856 672.536 1080.695 671.618 Q 1078.535 670.701 1072.665 670.907 Q 1066.795 671.113 1061.985 672.635 Q 1057.176 674.157 1055.151 675.417 Q 1053.127 676.677 1050.666 680.083 Q 1048.204 683.490 1046.938 687.102 Q 1045.671 690.714 1045.104 693.804 Q 1044.538 696.894 1044.542 699.117 Q 1044.547 701.339 1045.122 703.982 Q 1045.698 706.625 1046.984 708.877 Q 1048.271 711.129 1049.982 712.452 Q 1051.693 713.775 1054.568 714.853 Q 1057.444 715.931 1061.192 716.639 Q 1064.940 717.348 1069.441 716.515 Q 1073.942 715.683 1076.086 714.636 Q 1078.231 713.588 1079.857 712.198 Q 1081.484 710.807 1083.072 708.154 Q 1084.660 705.501 1083.543 704.274 Q 1082.426 703.048 1078.920 703.186 Q 1075.414 703.323 1071.255 702.606 Q 1067.096 701.888 1064.205 702.002 Q 1061.313 702.116 1059.705 700.774 Q 1058.096 699.431 1057.677 697.558 Q 1057.257 695.685 1057.606 693.325 Q 1057.956 690.965 1059.583 688.993 Q 1061.211 687.021 1064.308 685.142 Q 1067.405 683.263 1068.945 682.755 Q 1070.485 682.247 1072.609 682.613 Q 1074.732 682.980 1075.854 684.368 Q 1076.977 685.756 1077.640 685.066 L 1078.304 684.376 "></path>
    <path id="STROKE_840C751A-DA29-4B45-9B89-CEBCB6E217BA" opacity="1.000" fill="none" stroke="#000000" stroke-width="3.056" stroke-opacity="1.000" stroke-linecap="round" stroke-linejoin="round" d="M 1132.415 685.085 Q 1135.084 679.753 1135.344 678.250 Q 1135.603 676.748 1134.780 675.541 Q 1133.956 674.335 1132.298 673.473 Q 1130.639 672.611 1127.872 671.812 Q 1125.106 671.013 1122.344 670.567 Q 1119.582 670.121 1117.057 670.360 Q 1114.532 670.599 1110.324 671.643 Q 1106.117 672.687 1104.103 673.887 Q 1102.089 675.087 1101.334 677.593 Q 1100.580 680.100 1101.009 683.590 Q 1101.438 687.081 1103.316 689.305 Q 1105.193 691.529 1108.447 693.569 Q 1111.701 695.610 1112.857 696.614 Q 1114.012 697.618 1114.912 699.481 Q 1115.811 701.345 1115.746 702.683 Q 1115.680 704.021 1113.576 704.784 Q 1111.472 705.547 1108.778 705.472 Q 1106.084 705.397 1102.746 704.561 Q 1099.408 703.726 1098.960 704.645 Q 1098.513 705.564 1098.373 707.861 Q 1098.232 710.157 1099.939 712.030 Q 1101.646 713.903 1104.145 715.108 Q 1106.643 716.312 1111.962 717.676 Q 1117.281 719.039 1122.070 717.774 Q 1126.860 716.508 1128.323 715.542 Q 1129.785 714.575 1130.357 713.318 Q 1130.929 712.061 1131.505 709.103 Q 1132.082 706.145 1131.388 703.612 Q 1130.695 701.078 1129.554 699.656 Q 1128.413 698.234 1122.599 693.047 Q 1116.785 687.860 1115.521 686.193 Q 1114.257 684.527 1114.235 683.557 Q 1114.212 682.588 1116.803 681.971 Q 1119.393 681.353 1123.577 681.784 Q 1127.761 682.215 1130.313 683.299 Q 1132.866 684.383 1133.527 685.048 L 1134.188 685.713 "></path>
    <path id="STROKE_7D7253EB-7B15-4DC1-87F7-E73974DDC844" opacity="1.000" fill="none" stroke="#000000" stroke-width="3.066" stroke-opacity="1.000" stroke-linecap="round" stroke-linejoin="round" d="M 935.795 79.883 Q 932.787 74.499 930.734 69.895 Q 928.682 65.291 931.025 66.407 Q 933.368 67.523 936.288 69.567 Q 939.208 71.611 940.265 72.955 Q 941.323 74.300 942.784 71.810 Q 944.245 69.320 946.071 64.726 Q 947.896 60.133 948.772 60.769 Q 949.647 61.405 949.580 70.421 Q 949.512 79.438 950.384 78.843 Q 951.255 78.248 959.271 75.498 Q 967.287 72.748 966.383 74.156 Q 965.478 75.564 958.898 80.781 Q 952.317 85.997 952.180 88.740 Q 952.043 91.482 953.411 94.773 Q 954.780 98.064 955.693 101.184 Q 956.606 104.304 955.254 103.861 Q 953.901 103.419 948.805 99.405 Q 943.708 95.391 942.850 93.435 Q 941.993 91.479 941.249 91.591 Q 940.506 91.704 933.198 95.622 Q 925.891 99.540 925.293 99.666 Q 924.695 99.792 925.762 97.151 Q 926.829 94.509 929.763 90.391 Q 932.698 86.273 933.466 84.290 L 934.235 82.307 "></path>
  </g>
</svg>