<?xml version="1.0" encoding="UTF-8"?>
<svg xmlns="http://www.w3.org/2000/svg" xmlns:xlink="http://www.w3.org/1999/xlink" width="7.324423in" height="1.500478in" version="1.1" viewBox="-40.840220 197.007891 966.823888 198.063036">
  <!--
	Exported with Concepts: Smarter Sketching
	Version: 414
	iOS Version: 11.0
	https://concepts.tophatch.com/
	-->
  <title>Untitled</title>
  <desc>Drawing exported from Concepts: Smarter Sketching</desc>
  <g id="Pen" opacity="1.000">
    <path id="STROKE_F32CEAAD-BC22-448F-AFB2-C8B192F1C4B5" opacity="1.000" fill="none" stroke="#000000" stroke-width="1.970" stroke-opacity="1.000" stroke-linecap="round" stroke-linejoin="round" d="M 227.334 283.388 Q 245.439 282.064 252.201 281.434 Q 258.962 280.804 269.304 280.111 Q 279.646 279.417 293.169 279.055 Q 306.693 278.692 345.286 278.692 Q 383.879 278.692 382.521 278.196 L 381.164 277.699 "></path>
    <path id="STROKE_10B95110-2E41-43CE-BA2F-A812555E3A7C" opacity="1.000" fill="none" stroke="#000000" stroke-width="3.001" stroke-opacity="1.000" stroke-linecap="round" stroke-linejoin="round" d="M 383.249 228.461 Q 382.758 242.839 383.004 287.340 Q 383.249 331.840 382.973 337.117 Q 382.696 342.393 397.105 328.516 Q 411.515 314.639 422.590 306.067 Q 433.666 297.495 449.665 286.170 Q 465.664 274.845 454.350 267.685 Q 443.036 260.524 436.224 255.489 Q 429.411 250.455 417.406 243.893 Q 405.401 237.332 394.625 232.534 L 383.848 227.735 "></path>
    <path id="STROKE_6D8F308D-CE97-4DA2-8E90-88506FF6FA57" opacity="1.000" fill="none" stroke="#000000" stroke-width="3.001" stroke-opacity="1.000" stroke-linecap="round" stroke-linejoin="round" d="M 456.001 223.299 Q 455.756 238.173 456.263 244.671 Q 456.770 251.169 457.192 260.639 Q 457.614 270.110 458.214 273.946 Q 458.813 277.783 459.266 286.533 Q 459.719 295.283 460.257 301.666 Q 460.794 308.049 461.217 310.624 Q 461.639 313.199 462.146 323.032 Q 462.653 332.865 462.899 333.729 L 463.145 334.593 "></path>
    <path id="STROKE_39B8B15A-D66E-4B0B-BFEA-8A5771097AF7" opacity="1.000" fill="none" stroke="#000000" stroke-width="1.806" stroke-opacity="1.000" stroke-linecap="round" stroke-linejoin="round" d="M 459.949 275.628 Q 468.475 275.870 475.472 275.628 Q 482.469 275.386 491.410 274.666 Q 500.350 273.946 511.994 273.405 Q 523.638 272.863 545.129 272.714 Q 566.620 272.564 588.110 272.564 Q 609.601 272.564 611.882 272.656 L 614.164 272.748 "></path>
    <path id="STROKE_C29B3290-09AA-4ACE-A55E-B0571E51CACE" opacity="1.000" fill="none" stroke="#000000" stroke-width="6.680" stroke-opacity="1.000" stroke-linecap="round" stroke-linejoin="round" d="M 683.132 252.804 Q 687.651 241.085 687.368 236.682 Q 687.085 232.279 684.400 231.857 Q 681.716 231.435 677.480 234.302 Q 673.245 237.169 668.386 244.070 Q 663.528 250.971 661.189 255.576 Q 658.849 260.181 657.031 265.249 Q 655.212 270.318 654.449 277.139 Q 653.686 283.960 654.570 287.634 Q 655.454 291.308 657.164 294.163 Q 658.874 297.018 662.994 299.486 Q 667.115 301.954 670.438 301.514 L 673.761 301.074 "></path>
    <path id="STROKE_7838A4F6-E523-4B94-BCF4-F0FF663E3AB7" opacity="1.000" fill="none" stroke="#000000" stroke-width="6.928" stroke-opacity="1.000" stroke-linecap="round" stroke-linejoin="round" d="M 690.067 290.294 Q 689.710 280.593 691.146 276.008 Q 692.582 271.423 695.029 266.163 Q 697.477 260.903 700.743 257.632 Q 704.010 254.362 705.756 254.180 Q 707.502 253.998 709.305 259.603 Q 711.108 265.209 712.194 274.578 Q 713.279 283.947 714.434 288.638 L 715.589 293.328 "></path>
    <path id="STROKE_58DD666C-4FD8-4000-AADB-4C69B3A52588" opacity="1.000" fill="none" stroke="#000000" stroke-width="6.928" stroke-opacity="1.000" stroke-linecap="round" stroke-linejoin="round" d="M 692.960 278.483 Q 692.977 277.356 696.200 276.399 Q 699.424 275.441 703.801 275.083 L 708.178 274.726 "></path>
    <path id="STROKE_500563F4-3924-4F36-A9B6-9791E298B9CC" opacity="1.000" fill="none" stroke="#000000" stroke-width="6.928" stroke-opacity="1.000" stroke-linecap="round" stroke-linejoin="round" d="M 735.469 262.232 Q 735.125 266.129 735.441 268.299 Q 735.758 270.470 735.967 273.188 Q 736.177 275.907 736.336 281.494 L 736.494 287.082 "></path>
    <path id="STROKE_2F0218D1-EB7A-495C-A09E-7E151D381D13" opacity="1.000" fill="none" stroke="#000000" stroke-width="6.928" stroke-opacity="1.000" stroke-linecap="round" stroke-linejoin="round" d="M 721.158 261.523 Q 723.771 260.100 730.462 258.631 Q 737.153 257.161 744.916 256.338 L 752.679 255.515 "></path>
    <path id="STROKE_94063A0C-15E3-491D-9577-0CA43E224C09" opacity="1.000" fill="none" stroke="#000000" stroke-width="6.928" stroke-opacity="1.000" stroke-linecap="round" stroke-linejoin="round" d="M 761.652 249.707 Q 764.656 254.499 765.181 258.832 Q 765.707 263.164 765.613 269.512 Q 765.518 275.860 765.189 279.342 Q 764.861 282.823 764.273 284.457 L 763.686 286.091 "></path>
    <path id="STROKE_59B2006B-6EDE-46B8-A1D4-3BDE83F348F1" opacity="1.000" fill="none" stroke="#000000" stroke-width="6.928" stroke-opacity="1.000" stroke-linecap="round" stroke-linejoin="round" d="M 781.697 244.776 Q 780.341 246.928 780.047 257.142 Q 779.752 267.356 780.841 274.030 Q 781.931 280.704 783.575 285.616 Q 785.218 290.528 785.801 290.986 L 786.385 291.444 "></path>
    <path id="STROKE_9288DC08-DC38-4DCC-B70A-ABB122885B1B" opacity="1.000" fill="none" stroke="#000000" stroke-width="6.928" stroke-opacity="1.000" stroke-linecap="round" stroke-linejoin="round" d="M 764.147 279.112 Q 763.177 278.199 766.435 277.302 Q 769.694 276.405 776.876 274.976 L 784.058 273.548 "></path>
    <path id="STROKE_232587CD-043C-455A-8D14-91A2CCA9CD5F" opacity="1.000" fill="none" stroke="#000000" stroke-width="6.928" stroke-opacity="1.000" stroke-linecap="round" stroke-linejoin="round" d="M 810.367 257.338 Q 803.971 259.415 800.610 262.396 Q 797.250 265.376 795.374 269.465 Q 793.498 273.554 793.560 276.592 Q 793.623 279.630 794.887 281.144 Q 796.152 282.658 799.771 284.006 Q 803.389 285.354 807.894 285.421 Q 812.398 285.488 816.759 283.246 Q 821.119 281.005 822.524 278.484 Q 823.929 275.964 823.755 273.273 Q 823.580 270.582 818.686 263.677 Q 813.791 256.772 811.517 255.162 Q 809.244 253.553 807.826 254.511 L 806.408 255.469 "></path>
    <path id="STROKE_883CBDB1-B6AD-42E2-B46B-036991361637" opacity="1.000" fill="none" stroke="#000000" stroke-width="6.928" stroke-opacity="1.000" stroke-linecap="round" stroke-linejoin="round" d="M 832.371 257.745 Q 831.488 260.655 831.902 263.417 Q 832.317 266.179 834.414 275.456 Q 836.511 284.733 837.542 285.755 L 838.573 286.776 "></path>
    <path id="STROKE_A6BF06B1-C4EA-42F3-88B9-2C84C488BAF5" opacity="1.000" fill="none" stroke="#000000" stroke-width="6.928" stroke-opacity="1.000" stroke-linecap="round" stroke-linejoin="round" d="M 827.168 260.176 Q 826.975 258.711 832.010 258.571 Q 837.045 258.432 840.620 259.745 Q 844.194 261.059 848.862 264.581 Q 853.530 268.104 854.859 270.075 Q 856.189 272.045 856.565 274.981 Q 856.942 277.917 855.091 280.330 Q 853.240 282.743 849.529 285.269 Q 845.817 287.795 840.892 290.129 L 835.967 292.463 "></path>
    <path id="STROKE_4AAC51F5-CAB3-4F11-9F67-19E0FAE92FE3" opacity="1.000" fill="none" stroke="#000000" stroke-width="6.928" stroke-opacity="1.000" stroke-linecap="round" stroke-linejoin="round" d="M 888.202 261.847 Q 872.946 263.364 869.572 264.782 Q 866.199 266.200 865.457 269.186 Q 864.715 272.172 864.717 276.879 Q 864.718 281.586 866.077 286.420 Q 867.435 291.254 869.585 292.158 Q 871.735 293.062 876.482 293.065 Q 881.229 293.069 889.854 291.413 L 898.479 289.758 "></path>
    <path id="STROKE_75CF065C-C781-40C0-84FD-30DBC3B73368" opacity="1.000" fill="none" stroke="#000000" stroke-width="6.928" stroke-opacity="1.000" stroke-linecap="round" stroke-linejoin="round" d="M 869.742 281.593 Q 871.780 280.444 877.557 279.725 L 883.334 279.006 "></path>
    <path id="STROKE_C5BFDB2C-E2D2-426F-8C8F-A06536652EA4" opacity="1.000" fill="none" stroke="#000000" stroke-width="2.863" stroke-opacity="1.000" stroke-linecap="round" stroke-linejoin="round" d="M 734.916 304.209 Q 730.417 306.167 728.378 309.208 Q 726.340 312.248 723.967 319.119 Q 721.594 325.990 721.281 330.833 Q 720.967 335.676 723.075 341.848 Q 725.182 348.021 730.295 354.092 L 735.407 360.162 "></path>
    <path id="STROKE_8E3E94A4-6203-4871-8E9E-6A76D62B553F" opacity="1.000" fill="none" stroke="#000000" stroke-width="3.492" stroke-opacity="1.000" stroke-linecap="round" stroke-linejoin="round" d="M 745.799 338.271 Q 748.192 337.260 754.064 336.758 L 759.936 336.255 "></path>
    <path id="STROKE_C683AF5B-3B63-4511-8726-E49BA5E9F9C0" opacity="1.000" fill="none" stroke="#000000" stroke-width="2.596" stroke-opacity="1.000" stroke-linecap="round" stroke-linejoin="round" d="M 766.158 307.396 Q 772.604 311.608 775.096 315.306 Q 777.589 319.004 780.843 325.643 Q 784.097 332.283 785.011 339.310 Q 785.926 346.336 785.116 349.114 Q 784.306 351.891 780.570 356.059 Q 776.833 360.228 771.310 363.143 L 765.787 366.058 "></path>
    <path id="STROKE_633FEE09-FA7E-4A26-A722-288B2C4334F1" opacity="1.000" fill="none" stroke="#000000" stroke-width="7.272" stroke-opacity="1.000" stroke-linecap="round" stroke-linejoin="round" d="M -10.890 298.225 Q -12.971 291.070 -8.868 273.604 Q -4.765 256.139 -1.206 247.108 Q 2.353 238.078 6.007 232.265 Q 9.661 226.452 11.866 225.668 Q 14.071 224.885 16.106 250.149 Q 18.140 275.413 20.392 286.174 Q 22.644 296.934 25.030 302.465 Q 27.417 307.996 31.614 312.694 L 35.810 317.392 "></path>
    <path id="STROKE_35DC448A-7196-42B0-B881-4E8C5ED2CEFB" opacity="1.000" fill="none" stroke="#000000" stroke-width="7.433" stroke-opacity="1.000" stroke-linecap="round" stroke-linejoin="round" d="M -6.951 280.426 Q -6.156 279.432 -2.648 277.973 Q 0.859 276.513 5.327 275.197 L 9.796 273.880 "></path>
    <path id="STROKE_AD834000-CCC9-42CE-8B4F-3D0E00120690" opacity="1.000" fill="none" stroke="#000000" stroke-width="7.433" stroke-opacity="1.000" stroke-linecap="round" stroke-linejoin="round" d="M 39.004 292.212 Q 37.047 290.670 36.698 284.183 Q 36.349 277.696 36.869 271.599 Q 37.389 265.503 39.752 266.644 Q 42.115 267.785 45.414 276.859 Q 48.714 285.932 50.657 288.486 Q 52.600 291.040 56.635 292.181 Q 60.670 293.323 62.361 291.185 Q 64.051 289.046 64.483 281.284 Q 64.914 273.521 63.103 263.607 Q 61.292 253.693 59.906 252.028 L 58.521 250.363 "></path>
    <path id="STROKE_2CFA6D63-D7CD-4D4C-8127-E3642308E465" opacity="1.000" fill="none" stroke="#000000" stroke-width="7.433" stroke-opacity="1.000" stroke-linecap="round" stroke-linejoin="round" d="M 97.018 254.882 Q 90.763 253.816 87.860 256.424 Q 84.958 259.031 82.244 265.445 Q 79.530 271.860 79.269 277.416 Q 79.008 282.972 79.935 284.538 Q 80.862 286.103 84.011 287.560 Q 87.159 289.018 90.299 289.053 Q 93.438 289.087 96.667 287.155 Q 99.896 285.222 101.548 282.922 Q 103.200 280.622 103.633 276.364 Q 104.067 272.107 100.790 265.718 Q 97.512 259.330 95.486 257.980 Q 93.461 256.630 91.352 257.415 L 89.244 258.201 "></path>
    <path id="STROKE_BF5F63F6-F07A-4DF5-B68E-DBEA9E3CE84F" opacity="1.000" fill="none" stroke="#000000" stroke-width="7.433" stroke-opacity="1.000" stroke-linecap="round" stroke-linejoin="round" d="M 115.093 255.569 Q 114.086 255.545 113.865 258.088 Q 113.643 260.631 114.771 265.923 Q 115.899 271.215 118.347 279.134 L 120.795 287.054 "></path>
    <path id="STROKE_3CFDF006-40DE-4A9C-98BF-C4DCB2DBB1D8" opacity="1.000" fill="none" stroke="#000000" stroke-width="7.433" stroke-opacity="1.000" stroke-linecap="round" stroke-linejoin="round" d="M 104.348 256.728 Q 110.036 253.680 113.550 253.764 Q 117.063 253.848 123.839 255.979 Q 130.616 258.109 136.350 261.670 Q 142.085 265.231 143.507 267.194 Q 144.928 269.157 145.235 272.050 Q 145.541 274.943 141.239 279.607 Q 136.937 284.272 133.213 286.313 Q 129.488 288.354 125.618 288.849 L 121.748 289.344 "></path>
    <path id="STROKE_599BB31D-CDB2-4850-A5CD-6BAC9B006C26" opacity="1.000" fill="none" stroke="#000000" stroke-width="7.433" stroke-opacity="1.000" stroke-linecap="round" stroke-linejoin="round" d="M 185.311 251.213 Q 156.882 255.970 155.735 256.867 Q 154.588 257.764 156.094 261.144 Q 157.600 264.523 157.430 271.665 Q 157.260 278.807 157.905 281.877 Q 158.550 284.947 161.517 286.818 Q 164.484 288.690 170.135 288.575 Q 175.785 288.460 182.431 285.733 L 189.077 283.005 "></path>
    <path id="STROKE_D867EC66-3E0C-44F9-94FC-F7B209E506A5" opacity="1.000" fill="none" stroke="#000000" stroke-width="7.433" stroke-opacity="1.000" stroke-linecap="round" stroke-linejoin="round" d="M 159.999 272.683 Q 164.315 271.452 169.522 270.659 L 174.728 269.867 "></path>
    <path id="STROKE_B70EE290-6593-4E64-B310-7444041BED81" opacity="1.000" fill="none" stroke="#000000" stroke-width="3.565" stroke-opacity="1.000" stroke-linecap="round" stroke-linejoin="round" d="M 58.342 313.668 Q 52.113 322.297 50.444 327.571 Q 48.775 332.844 47.985 341.274 Q 47.195 349.703 47.914 352.815 Q 48.633 355.927 51.344 359.962 Q 54.056 363.998 56.866 365.736 Q 59.675 367.475 62.755 368.216 L 65.835 368.956 "></path>
    <path id="STROKE_0FBBAC2C-7694-4B5D-B891-89FCC6FBAEE4" opacity="1.000" fill="none" stroke="#000000" stroke-width="3.789" stroke-opacity="1.000" stroke-linecap="round" stroke-linejoin="round" d="M 71.535 343.836 Q 74.495 342.830 78.289 341.955 Q 82.082 341.081 86.278 340.425 L 90.473 339.770 "></path>
    <path id="STROKE_4F4DA470-8CAD-42D6-A356-8FDCA9B71ECF" opacity="1.000" fill="none" stroke="#000000" stroke-width="3.789" stroke-opacity="1.000" stroke-linecap="round" stroke-linejoin="round" d="M 79.676 328.725 Q 78.776 331.389 78.673 335.735 Q 78.569 340.081 79.024 343.934 Q 79.479 347.787 80.019 349.850 Q 80.559 351.912 81.445 353.445 L 82.330 354.977 "></path>
    <path id="STROKE_DB93B5CD-FE71-44A7-8600-FE915BBC82E3" opacity="1.000" fill="none" stroke="#000000" stroke-width="3.427" stroke-opacity="1.000" stroke-linecap="round" stroke-linejoin="round" d="M 96.306 313.576 Q 99.403 313.151 102.858 315.653 Q 106.314 318.155 111.595 323.216 Q 116.876 328.277 119.718 334.076 Q 122.559 339.875 122.204 343.966 Q 121.850 348.057 118.647 352.490 Q 115.444 356.923 111.138 360.422 Q 106.832 363.920 104.931 364.502 L 103.031 365.084 "></path>
  </g>
</svg>