<?xml version="1.0" encoding="UTF-8"?>
<svg xmlns="http://www.w3.org/2000/svg" xmlns:xlink="http://www.w3.org/1999/xlink" width="4.416595in" height="1.328781in" version="1.1" viewBox="238.128376 200.523945 582.990521 175.399071">
  <!--
	Exported with Concepts: Smarter Sketching
	Version: 414
	iOS Version: 11.0
	https://concepts.tophatch.com/
	-->
  <title>Untitled</title>
  <desc>Drawing exported from Concepts: Smarter Sketching</desc>
  <g id="Fill" opacity="1.000">
    <path id="STROKE_E5B3D949-7439-449D-AADB-A7D5EC193EC4" opacity="0.333" fill="#85929c" stroke="#85929c" stroke-width="1.000" stroke-opacity="1.000" stroke-linecap="round" stroke-linejoin="round" d="M 311.443 277.667 Q 313.666 281.008 310.680 277.298 Q 307.694 273.589 304.342 272.399 Q 300.991 271.209 294.399 272.068 Q 287.807 272.927 282.200 276.274 Q 276.592 279.621 273.707 284.221 Q 270.823 288.822 269.864 298.818 Q 268.905 308.814 270.297 311.130 Q 271.688 313.446 275.904 315.730 Q 280.121 318.015 291.922 319.109 Q 303.723 320.203 306.905 318.085 Q 310.086 315.966 313.268 311.894 Q 316.449 307.821 317.645 301.331 Q 318.841 294.841 317.476 290.839 Q 316.110 286.836 312.665 280.582 Q 309.221 274.327 311.443 277.667 Z"></path>
    <path id="STROKE_940807A7-ADC9-4FEA-8B77-FCFB85F1D118" opacity="0.333" fill="#85929c" stroke="#85929c" stroke-width="1.000" stroke-opacity="1.000" stroke-linecap="round" stroke-linejoin="round" d="M 742.807 262.339 Q 739.456 263.268 739.023 274.721 Q 738.590 286.175 738.921 295.967 Q 739.252 305.760 741.441 306.689 Q 743.630 307.618 753.810 307.688 Q 763.991 307.758 774.859 304.315 Q 785.727 300.873 788.815 293.823 Q 791.903 286.773 790.741 274.359 Q 789.578 261.945 784.344 260.220 Q 779.109 258.496 768.369 258.795 Q 757.628 259.094 751.893 260.252 Q 746.158 261.410 742.807 262.339 Z"></path>
    <path id="STROKE_7294148E-3B74-49FC-B00B-9972E8C2D9C0" opacity="0.333" fill="#85929c" stroke="#85929c" stroke-width="1.000" stroke-opacity="1.000" stroke-linecap="round" stroke-linejoin="round" d="M 662.541 232.217 Q 660.420 235.068 659.928 251.452 Q 659.436 267.837 656.950 291.074 Q 654.464 314.311 654.922 322.946 Q 655.380 331.580 658.528 333.636 Q 661.675 335.691 675.665 336.550 Q 689.655 337.409 691.649 332.611 Q 693.643 327.814 695.764 292.856 Q 697.885 257.898 697.223 245.057 Q 696.561 232.217 680.611 230.792 Q 664.662 229.367 662.541 232.217 Z"></path>
    <path id="STROKE_69C76A2E-19BF-4A0A-A559-ADD0BF5DAA1D" opacity="0.333" fill="#85929c" stroke="#85929c" stroke-width="1.000" stroke-opacity="1.000" stroke-linecap="round" stroke-linejoin="round" d="M 314.956 286.900 Q 317.382 294.510 315.524 288.192 Q 313.666 281.873 309.619 277.966 Q 305.573 274.060 301.729 272.367 Q 297.886 270.675 294.399 270.382 Q 290.912 270.089 287.901 271.177 Q 284.889 272.265 280.740 277.101 Q 276.592 281.937 273.342 287.829 Q 270.093 293.721 269.465 299.575 Q 268.837 305.429 270.398 308.413 Q 271.959 311.397 276.066 314.674 Q 280.172 317.951 283.362 319.338 Q 286.552 320.725 293.975 321.024 Q 301.399 321.323 306.871 317.652 Q 312.343 313.981 314.659 309.609 Q 316.975 305.238 316.576 297.163 Q 316.177 289.089 314.353 284.189 Q 312.529 279.290 314.956 286.900 Z"></path>
    <path id="STROKE_46C7B15B-3C7B-45B4-9710-E7D60F13AB17" opacity="0.333" fill="#85929c" stroke="#85929c" stroke-width="1.000" stroke-opacity="1.000" stroke-linecap="round" stroke-linejoin="round" d="M 664.865 234.998 Q 662.812 234.928 662.914 237.778 Q 663.016 240.629 660.063 264.986 Q 657.111 289.343 656.118 305.499 Q 655.126 321.654 655.253 331.784 Q 655.380 341.914 662.778 341.812 Q 670.176 341.710 681.146 340.418 Q 692.115 339.127 695.229 335.551 Q 698.343 331.975 699.310 320.725 Q 700.277 309.476 700.574 290.241 Q 700.871 271.005 701.634 263.663 Q 702.398 256.320 700.973 246.158 Q 699.547 235.997 696.629 235.169 Q 693.710 234.342 680.314 234.705 Q 666.918 235.068 664.865 234.998 Z"></path>
    <path id="STROKE_55A3314B-531F-4046-ABF5-54DED506AD5C" opacity="0.333" fill="#85929c" stroke="#85929c" stroke-width="1.000" stroke-opacity="1.000" stroke-linecap="round" stroke-linejoin="round" d="M 740.219 263.733 Q 741.051 264.859 739.523 264.693 Q 737.996 264.528 737.996 280.944 Q 737.996 297.361 739.625 300.968 Q 741.254 304.576 762.201 306.097 Q 783.148 307.618 787.457 304.869 Q 791.767 302.120 793.693 297.354 Q 795.619 292.588 795.619 288.287 Q 795.619 283.986 794.058 272.533 Q 792.497 261.079 790.605 258.630 Q 788.713 256.180 780.424 256.581 Q 772.135 256.982 755.762 259.794 Q 739.388 262.606 740.219 263.733 Z"></path>
  </g>
  <g id="Pen" opacity="1.000">
    <path id="STROKE_99E66719-0A74-41B8-A303-694C00629534" opacity="1.000" fill="none" stroke="#000000" stroke-width="9.291" stroke-opacity="1.000" stroke-linecap="round" stroke-linejoin="round" d="M 361.074 246.585 Q 354.033 305.569 350.851 326.783 Q 347.670 347.997 355.924 346.342 Q 364.179 344.688 376.948 344.026 Q 389.716 343.365 417.526 342.970 Q 445.336 342.576 504.180 339.528 Q 563.025 336.480 584.472 336.314 Q 605.919 336.149 627.502 337.243 Q 649.085 338.338 673.553 340.355 Q 698.020 342.372 698.054 326.916 Q 698.088 311.461 699.276 290.571 Q 700.464 269.682 702.093 253.896 Q 703.721 238.109 701.397 235.297 Q 699.072 232.484 690.359 230.925 Q 681.646 229.367 670.371 229.036 Q 659.096 228.705 608.770 228.578 Q 558.443 228.450 490.954 229.704 Q 423.465 230.957 404.698 232.516 Q 385.932 234.075 373.995 236.328 L 362.058 238.580 "></path>
    <path id="STROKE_B266D9D4-500C-49A1-BE76-DFFD9AECDDD6" opacity="1.000" fill="none" stroke="#000000" stroke-width="9.291" stroke-opacity="1.000" stroke-linecap="round" stroke-linejoin="round" d="M 660.420 232.548 Q 660.284 244.128 658.799 264.089 Q 657.315 284.049 656.916 287.823 Q 656.517 291.596 656.118 300.268 Q 655.720 308.941 654.557 316.850 Q 653.395 324.759 652.962 329.595 L 652.530 334.431 "></path>
    <path id="STROKE_BA9A5F05-1867-413F-A5ED-3C13F75370A9" opacity="1.000" fill="none" stroke="#000000" stroke-width="9.291" stroke-opacity="1.000" stroke-linecap="round" stroke-linejoin="round" d="M 737.267 263.332 Q 735.417 308.674 739.820 308.712 Q 744.224 308.750 751.952 307.592 Q 759.681 306.434 766.273 306.396 Q 772.865 306.358 782.545 304.570 Q 792.225 302.782 792.064 294.777 Q 791.903 286.773 792.200 276.611 Q 792.497 266.450 791.267 263.535 Q 790.036 260.621 786.329 259.094 Q 782.622 257.567 775.130 257.471 Q 767.639 257.376 760.640 258.432 Q 753.641 259.489 745.988 260.087 L 738.336 260.685 "></path>
    <path id="STROKE_A72624DA-108B-41D3-A6EC-A228997491F1" opacity="1.000" fill="none" stroke="#000000" stroke-width="9.291" stroke-opacity="1.000" stroke-linecap="round" stroke-linejoin="round" d="M 310.018 271.807 Q 305.963 269.160 301.560 269.027 Q 297.157 268.893 289.827 271.871 Q 282.496 274.849 277.364 280.276 Q 272.231 285.704 269.839 290.075 Q 267.446 294.446 266.750 300.472 Q 266.055 306.498 268.803 311.690 Q 271.552 316.882 276.863 319.465 Q 282.174 322.049 288.172 322.380 Q 294.170 322.710 298.013 321.521 Q 301.857 320.331 305.904 317.983 Q 309.950 315.635 313.361 311.461 Q 316.771 307.287 317.968 303.246 Q 319.164 299.206 319.198 296.495 Q 319.232 293.785 317.272 287.594 Q 315.312 281.402 312.462 278.196 Q 309.611 274.989 306.430 272.666 L 303.248 270.344 "></path>
  </g>
</svg>