<?xml version="1.0" standalone="no"?>
<!DOCTYPE svg PUBLIC "-//W3C//DTD SVG 20010904//EN"
 "http://www.w3.org/TR/2001/REC-SVG-20010904/DTD/svg10.dtd">
<svg version="1.0" xmlns="http://www.w3.org/2000/svg"
 width="288.000000pt" height="288.000000pt" viewBox="0 0 288.000000 288.000000"
 preserveAspectRatio="xMidYMid meet">
<metadata>
Created by potrace 1.11, written by Peter Selinger 2001-2013
</metadata>
<g transform="translate(0.000000,288.000000) scale(0.100000,-0.100000)"
fill="#000000" stroke="none">
<path d="M1870 2864 c-184 -18 -610 -21 -1182 -10 -511 10 -506 11 -576 -69
-54 -61 -73 -126 -81 -280 -4 -71 -7 -654 -6 -1294 l1 -1164 26 -22 26 -22
1221 3 c787 2 1245 7 1289 14 136 21 185 50 222 127 23 47 24 58 31 448 4 220
7 780 7 1245 0 913 3 868 -55 921 -73 69 -187 96 -453 109 -233 12 -291 11
-470 -6z m673 -129 c32 -4 69 -13 83 -20 l24 -12 -25 -17 c-15 -10 -34 -24
-43 -31 -9 -8 -46 -37 -82 -65 -36 -28 -72 -56 -80 -63 -8 -7 -31 -23 -50 -37
-19 -13 -41 -30 -48 -37 -8 -7 -29 -25 -47 -39 l-33 -25 -36 21 c-20 11 -45
20 -54 20 -10 0 -22 4 -27 9 -24 22 -92 24 -710 19 -132 -1 -285 0 -340 3 -55
2 -148 0 -206 -5 -88 -7 -111 -13 -135 -32 -102 -81 -138 -103 -151 -92 -7 6
-13 17 -13 24 0 8 -4 14 -8 14 -4 0 -15 12 -24 28 -9 15 -57 69 -107 121 -50
51 -99 106 -108 122 -10 16 -21 29 -25 29 -4 0 -8 5 -8 12 0 6 -10 23 -22 36
l-23 25 250 -7 c386 -11 1326 -9 1355 3 27 11 593 8 693 -4z m178 -247 c-7
-21 -7 -36 0 -49 10 -19 5 -1415 -6 -1987 -7 -296 -7 -296 -88 -209 -54 58
-160 137 -184 137 -7 0 -40 27 -73 61 -56 57 -71 83 -52 91 12 4 72 95 72 107
0 6 5 11 10 11 6 0 10 9 10 19 0 11 5 23 10 26 6 3 10 19 10 34 0 15 4 31 9
37 23 24 64 511 64 769 1 174 -27 502 -44 519 -5 6 -9 20 -9 32 0 19 -56 141
-71 154 -3 3 -17 23 -32 44 l-26 40 22 15 c12 9 29 21 37 28 31 25 138 109
170 133 19 14 47 36 64 50 30 25 37 30 86 69 l25 19 3 -60 c2 -33 -2 -74 -7
-90z m-646 -169 c5 -5 19 -9 31 -9 13 0 26 -4 29 -10 3 -5 14 -10 25 -10 17 0
41 -24 98 -96 31 -39 72 -129 72 -157 0 -13 4 -27 9 -32 17 -18 24 -159 24
-485 0 -346 -21 -681 -44 -705 -5 -5 -9 -19 -9 -32 0 -13 -4 -31 -9 -41 -5 -9
-17 -34 -26 -56 -17 -39 -93 -121 -132 -143 -13 -7 -31 -13 -41 -13 -10 0 -22
-4 -27 -9 -25 -23 -379 -46 -715 -46 -410 1 -472 9 -615 76 -120 56 -165 98
-165 154 0 13 -5 36 -12 52 -21 49 -29 216 -34 693 -4 329 -2 483 6 525 15 74
60 168 105 217 40 43 147 118 169 118 8 0 18 5 21 10 4 7 164 10 456 9 248 0
453 2 456 5 9 9 317 -6 328 -15z"/>
<path d="M1015 1860 c-3 -5 -15 -10 -26 -10 -27 0 -90 -66 -118 -125 -13 -28
-27 -58 -32 -67 -35 -68 29 -142 94 -110 16 8 31 22 34 31 6 20 16 45 37 93
28 63 106 61 106 -3 0 -21 45 -59 70 -59 27 0 70 49 70 81 0 15 -4 31 -10 34
-5 3 -10 17 -10 31 0 13 -4 24 -10 24 -5 0 -10 5 -10 11 0 17 -52 59 -72 59
-9 0 -20 5 -23 10 -3 6 -26 10 -50 10 -24 0 -47 -4 -50 -10z"/>
<path d="M1652 1849 c-41 -24 -113 -96 -131 -131 -12 -24 -11 -29 8 -57 18
-25 29 -31 60 -31 31 0 43 7 72 40 19 22 43 40 55 40 27 0 59 -31 84 -83 31
-66 43 -77 84 -77 89 0 90 80 3 205 -27 38 -68 75 -84 75 -7 0 -13 3 -13 8 0
8 -72 32 -92 31 -7 0 -28 -9 -46 -20z"/>
<path d="M1540 1300 c-8 -5 -32 -10 -52 -10 -20 0 -40 -4 -43 -10 -3 -5 -19
-10 -35 -10 -16 0 -32 -4 -35 -10 -3 -5 -19 -10 -35 -10 -16 0 -32 -4 -35 -10
-3 -5 -19 -10 -35 -10 -16 0 -32 -4 -35 -10 -3 -5 -17 -10 -30 -10 -13 0 -27
-4 -30 -10 -3 -5 -14 -10 -24 -10 -10 0 -32 -7 -48 -15 -51 -25 -51 -105 0
-124 14 -6 35 -31 50 -63 45 -88 60 -111 105 -155 l43 -43 84 0 c46 0 97 5
112 11 54 22 118 54 137 69 41 33 96 93 96 106 0 8 5 14 10 14 6 0 10 9 10 19
0 11 5 23 10 26 14 9 12 151 -2 178 -22 39 -61 77 -79 77 -10 0 -21 5 -24 10
-8 13 -95 13 -115 0z"/>
</g>
</svg>
