<?xml version="1.0" standalone="no"?>
<!DOCTYPE svg PUBLIC "-//W3C//DTD SVG 20010904//EN"
 "http://www.w3.org/TR/2001/REC-SVG-20010904/DTD/svg10.dtd">
<svg version="1.0" xmlns="http://www.w3.org/2000/svg"
 width="260.000000pt" height="260.000000pt" viewBox="0 0 260.000000 260.000000"
 preserveAspectRatio="xMidYMid meet">
<metadata>
Created by potrace 1.11, written by Peter Selinger 2001-2013
</metadata>
<g transform="translate(0.000000,260.000000) scale(0.100000,-0.100000)"
fill="#000000" stroke="none">
<path d="M1729 2586 c-3 -3 -99 -10 -214 -16 -155 -8 -350 -8 -745 1 -404 9
-545 9 -577 0 -79 -22 -125 -81 -152 -197 -9 -38 -13 -344 -14 -1189 l-1
-1137 29 -25 29 -25 475 8 c262 4 771 8 1131 8 599 1 660 3 715 19 66 20 109
54 132 107 21 47 31 518 31 1515 l0 760 -23 40 c-42 72 -133 109 -315 125
-114 10 -493 14 -501 6z m560 -111 c52 -8 98 -18 103 -23 5 -5 -32 -41 -89
-86 -116 -91 -117 -92 -168 -130 -22 -17 -42 -33 -45 -36 -3 -3 -19 -16 -36
-28 -31 -21 -33 -21 -65 -4 -19 9 -54 22 -79 29 -61 18 -299 26 -445 16 -66
-4 -212 -6 -325 -3 -113 3 -259 3 -326 0 -105 -5 -124 -8 -150 -28 -16 -12
-51 -40 -79 -60 l-49 -38 -42 55 c-22 31 -79 96 -125 145 -69 73 -149 176
-149 191 0 2 307 2 682 -1 414 -3 707 -2 743 4 98 16 536 14 644 -3z m-2119
-85 c0 -11 -4 -20 -10 -20 -5 0 -10 9 -10 20 0 11 5 20 10 20 6 0 10 -9 10
-20z m2299 -812 c0 -930 -9 -1392 -26 -1409 -9 -9 -17 -9 -32 2 -10 8 -56 40
-101 73 -92 66 -230 194 -230 213 0 7 15 32 33 56 35 46 68 121 86 197 44 184
65 689 41 955 -18 193 -50 296 -121 386 -16 20 -29 41 -29 45 1 5 56 50 123
101 67 51 149 115 182 142 33 28 63 51 67 51 4 0 7 -366 7 -812z m-2322 509
c-1 -45 -3 -5 -3 88 0 94 2 130 3 82 2 -48 2 -125 0 -170z m1753 8 c69 -25 99
-46 134 -95 70 -98 91 -170 106 -364 24 -306 -2 -786 -51 -944 -35 -114 -110
-201 -191 -222 -24 -6 -50 -13 -58 -16 -42 -16 -366 -34 -600 -34 -371 0 -462
13 -600 87 -111 60 -126 74 -138 140 -21 105 -33 363 -33 708 0 361 8 456 43
533 31 67 134 167 203 197 l56 25 380 -1 c209 -1 383 2 387 6 13 14 314 -3
362 -20z m-1443 -87 c-3 -7 -5 -2 -5 12 0 14 2 19 5 13 2 -7 2 -19 0 -25z
m-70 -140 c-3 -8 -6 -5 -6 6 -1 11 2 17 5 13 3 -3 4 -12 1 -19z m-20 -120 c-2
-18 -4 -6 -4 27 0 33 2 48 4 33 2 -15 2 -42 0 -60z m-220 -1011 c-1 -194 -2
-32 -2 358 0 391 1 549 2 352 2 -197 2 -517 0 -710z m200 476 c-1 -81 -3 -17
-3 142 0 160 2 226 3 148 2 -78 2 -208 0 -290z m20 -426 c-2 -23 -3 -1 -3 48
0 50 1 68 3 42 2 -26 2 -67 0 -90z m20 -174 c-3 -10 -5 -2 -5 17 0 19 2 27 5
18 2 -10 2 -26 0 -35z m1628 -213 c3 -5 1 -10 -4 -10 -6 0 -11 5 -11 10 0 6 2
10 4 10 3 0 8 -4 11 -10z m-1328 -36 c-3 -3 -12 -4 -19 -1 -8 3 -5 6 6 6 11 1
17 -2 13 -5z m1270 0 c-3 -3 -12 -4 -19 -1 -8 3 -5 6 6 6 11 1 17 -2 13 -5z
m-1224 -21 c-7 -2 -19 -2 -25 0 -7 3 -2 5 12 5 14 0 19 -2 13 -5z m1170 0 c-7
-2 -21 -2 -30 0 -10 3 -4 5 12 5 17 0 24 -2 18 -5z m-1095 -20 c-10 -2 -26 -2
-35 0 -10 3 -2 5 17 5 19 0 27 -2 18 -5z m995 0 c-13 -2 -35 -2 -50 0 -16 2
-5 4 22 4 28 0 40 -2 28 -4z m-643 -17 c14 -2 -34 -4 -107 -5 -72 0 -134 2
-137 7 -4 7 185 5 244 -2z m348 -3 c-43 -2 -113 -2 -155 0 -43 1 -8 3 77 3 85
0 120 -2 78 -3z m-1358 -45 c0 -17 -18 -44 -24 -37 -8 7 5 49 15 49 5 0 9 -6
9 -12z m96 -138 l39 -18 -74 -1 -75 -1 29 30 c19 19 31 26 36 19 3 -6 24 -19
45 -29z m1581 3 c-262 -2 -692 -2 -955 0 -262 1 -47 2 478 2 525 0 740 -1 477
-2z"/>
<path d="M900 1664 c-48 -21 -78 -51 -105 -105 -35 -67 -41 -115 -20 -139 37
-41 80 -19 106 54 18 50 52 86 82 86 18 0 28 -10 43 -42 16 -35 24 -44 50 -46
96 -9 73 142 -29 188 -50 23 -80 24 -127 4z"/>
<path d="M1501 1664 c-47 -20 -121 -102 -121 -135 0 -63 65 -69 120 -11 29 30
44 39 60 35 19 -5 80 -81 80 -101 0 -4 11 -19 24 -31 31 -29 71 -22 88 15 10
22 8 33 -12 72 -37 74 -67 110 -113 136 -58 32 -86 37 -126 20z"/>
<path d="M1375 1163 c-32 -5 -182 -46 -300 -83 -38 -12 -78 -29 -88 -38 -26
-23 -19 -73 12 -88 14 -7 41 -44 63 -86 21 -40 55 -89 74 -108 34 -35 35 -35
122 -35 73 0 96 4 143 26 120 56 189 153 189 263 0 124 -66 170 -215 149z"/>
</g>
</svg>
