<?xml version="1.0" encoding="UTF-8"?>
<svg xmlns="http://www.w3.org/2000/svg" xmlns:xlink="http://www.w3.org/1999/xlink" width="7.324423in" height="6.747609in" version="1.1" viewBox="-40.840220 197.007891 966.823888 890.684381">
  <!--
	Exported with Concepts: Smarter Sketching
	Version: 414
	iOS Version: 11.0
	https://concepts.tophatch.com/
	-->
  <title>Untitled</title>
  <desc>Drawing exported from Concepts: Smarter Sketching</desc>
  <g id="Layer_Copy_1" opacity="1.000">
    <path id="STROKE_C53130D5-515D-49BF-A4E7-CB621F274F08" opacity="0.333" fill="#85929c" stroke="#85929c" stroke-width="1.000" stroke-opacity="1.000" stroke-linecap="round" stroke-linejoin="round" d="M 217.096 989.437 Q 219.319 992.777 216.332 989.068 Q 213.346 985.358 209.995 984.168 Q 206.644 982.978 200.052 983.837 Q 193.460 984.696 187.852 988.043 Q 182.244 991.390 179.359 995.990 Q 176.475 1000.591 175.516 1010.587 Q 174.558 1020.583 175.949 1022.899 Q 177.340 1025.215 181.557 1027.500 Q 185.773 1029.784 197.574 1030.878 Q 209.375 1031.973 212.557 1029.854 Q 215.738 1027.735 218.920 1023.663 Q 222.101 1019.590 223.297 1013.100 Q 224.494 1006.610 223.128 1002.608 Q 221.762 998.606 218.317 992.351 Q 214.873 986.096 217.096 989.437 Z"></path>
    <path id="STROKE_274BD63E-26E4-4D56-88B9-49B058BF0E4C" opacity="0.333" fill="#85929c" stroke="#85929c" stroke-width="1.000" stroke-opacity="1.000" stroke-linecap="round" stroke-linejoin="round" d="M 648.459 974.108 Q 645.108 975.037 644.675 986.490 Q 644.242 997.944 644.573 1007.736 Q 644.904 1017.529 647.093 1018.458 Q 649.282 1019.387 659.463 1019.457 Q 669.643 1019.527 680.511 1016.084 Q 691.379 1012.642 694.467 1005.592 Q 697.555 998.542 696.393 986.128 Q 695.231 973.714 689.996 971.989 Q 684.761 970.265 674.021 970.564 Q 663.280 970.863 657.545 972.021 Q 651.810 973.179 648.459 974.108 Z"></path>
    <path id="STROKE_5793FA4A-238E-4A60-9B7E-621722C8AFB5" opacity="0.333" fill="#85929c" stroke="#85929c" stroke-width="1.000" stroke-opacity="1.000" stroke-linecap="round" stroke-linejoin="round" d="M 568.193 943.986 Q 566.072 946.837 565.580 963.221 Q 565.088 979.606 562.602 1002.843 Q 560.116 1026.081 560.574 1034.715 Q 561.033 1043.349 564.180 1045.405 Q 567.328 1047.460 581.318 1048.319 Q 595.307 1049.178 597.301 1044.380 Q 599.295 1039.583 601.416 1004.625 Q 603.537 969.667 602.875 956.827 Q 602.213 943.986 586.264 942.561 Q 570.314 941.136 568.193 943.986 Z"></path>
    <path id="STROKE_D73E1028-1502-42C0-B3BE-9E4B6AF66506" opacity="0.333" fill="#85929c" stroke="#85929c" stroke-width="1.000" stroke-opacity="1.000" stroke-linecap="round" stroke-linejoin="round" d="M 220.608 998.669 Q 223.034 1006.279 221.176 999.961 Q 219.319 993.642 215.272 989.736 Q 211.225 985.829 207.382 984.136 Q 203.538 982.444 200.052 982.151 Q 196.565 981.858 193.553 982.946 Q 190.541 984.034 186.393 988.870 Q 182.244 993.706 178.995 999.598 Q 175.745 1005.490 175.117 1011.344 Q 174.490 1017.198 176.051 1020.182 Q 177.612 1023.166 181.718 1026.443 Q 185.824 1029.720 189.014 1031.107 Q 192.204 1032.494 199.627 1032.793 Q 207.051 1033.093 212.523 1029.421 Q 217.995 1025.750 220.311 1021.378 Q 222.627 1017.007 222.228 1008.933 Q 221.830 1000.858 220.006 995.959 Q 218.182 991.059 220.608 998.669 Z"></path>
    <path id="STROKE_4C5B942A-81DA-4DEA-80C9-F323D747910A" opacity="0.333" fill="#85929c" stroke="#85929c" stroke-width="1.000" stroke-opacity="1.000" stroke-linecap="round" stroke-linejoin="round" d="M 570.517 946.767 Q 568.464 946.697 568.566 949.547 Q 568.668 952.398 565.716 976.755 Q 562.763 1001.112 561.771 1017.268 Q 560.778 1033.423 560.905 1043.553 Q 561.033 1053.683 568.430 1053.581 Q 575.828 1053.479 586.798 1052.188 Q 597.768 1050.896 600.881 1047.320 Q 603.995 1043.744 604.962 1032.494 Q 605.929 1021.245 606.226 1002.010 Q 606.523 982.775 607.287 975.432 Q 608.050 968.089 606.625 957.927 Q 605.200 947.766 602.281 946.939 Q 599.363 946.111 585.967 946.474 Q 572.571 946.837 570.517 946.767 Z"></path>
    <path id="STROKE_406BE941-AF18-415B-82BE-D84FC94A67FB" opacity="0.333" fill="#85929c" stroke="#85929c" stroke-width="1.000" stroke-opacity="1.000" stroke-linecap="round" stroke-linejoin="round" d="M 645.871 975.502 Q 646.703 976.628 645.176 976.463 Q 643.649 976.297 643.649 992.713 Q 643.649 1009.130 645.278 1012.737 Q 646.906 1016.345 667.853 1017.866 Q 688.800 1019.387 693.110 1016.638 Q 697.419 1013.889 699.345 1009.123 Q 701.271 1004.357 701.271 1000.056 Q 701.271 995.755 699.710 984.302 Q 698.149 972.848 696.257 970.399 Q 694.365 967.949 686.076 968.350 Q 677.788 968.751 661.414 971.563 Q 645.040 974.375 645.871 975.502 Z"></path>
  </g>
  <g id="Layer_Copy_2" opacity="1.000">
    <path id="STROKE_503F00F1-34C1-40E3-92E4-53067AEE125D" opacity="1.000" fill="none" stroke="#000000" stroke-width="9.291" stroke-opacity="1.000" stroke-linecap="round" stroke-linejoin="round" d="M 266.726 958.354 Q 259.685 1017.338 256.503 1038.552 Q 253.322 1059.766 261.577 1058.112 Q 269.832 1056.457 282.600 1055.795 Q 295.368 1055.134 323.178 1054.739 Q 350.988 1054.345 409.833 1051.297 Q 468.677 1048.249 490.124 1048.083 Q 511.571 1047.918 533.154 1049.012 Q 554.737 1050.107 579.205 1052.124 Q 603.673 1054.141 603.706 1038.685 Q 603.740 1023.230 604.928 1002.340 Q 606.116 981.451 607.745 965.665 Q 609.374 949.878 607.049 947.066 Q 604.724 944.253 596.012 942.695 Q 587.299 941.136 576.023 940.805 Q 564.748 940.474 514.422 940.347 Q 464.096 940.219 396.606 941.473 Q 329.117 942.726 310.351 944.285 Q 291.584 945.844 279.647 948.097 L 267.711 950.349 "></path>
    <path id="STROKE_2475C9D5-95B2-48B7-AAE7-5165226FDE3A" opacity="1.000" fill="none" stroke="#000000" stroke-width="9.291" stroke-opacity="1.000" stroke-linecap="round" stroke-linejoin="round" d="M 566.072 944.317 Q 565.936 955.898 564.452 975.858 Q 562.967 995.818 562.568 999.592 Q 562.169 1003.365 561.771 1012.038 Q 561.372 1020.710 560.210 1028.619 Q 559.047 1036.528 558.615 1041.364 L 558.182 1046.200 "></path>
    <path id="STROKE_FB35FD3C-667E-4C60-9AF5-BF433D9B61C0" opacity="1.000" fill="none" stroke="#000000" stroke-width="9.291" stroke-opacity="1.000" stroke-linecap="round" stroke-linejoin="round" d="M 642.919 975.101 Q 641.070 1020.443 645.473 1020.481 Q 649.876 1020.519 657.605 1019.361 Q 665.333 1018.203 671.925 1018.165 Q 678.517 1018.127 688.198 1016.339 Q 697.878 1014.551 697.716 1006.546 Q 697.555 998.542 697.852 988.380 Q 698.149 978.219 696.919 975.304 Q 695.689 972.390 691.981 970.863 Q 688.274 969.336 680.783 969.241 Q 673.291 969.145 666.292 970.201 Q 659.293 971.258 651.640 971.856 L 643.988 972.454 "></path>
    <path id="STROKE_7B7EDDEA-54D6-4F56-9DBD-5E546F558E0F" opacity="1.000" fill="none" stroke="#000000" stroke-width="9.291" stroke-opacity="1.000" stroke-linecap="round" stroke-linejoin="round" d="M 215.670 983.576 Q 211.615 980.929 207.212 980.796 Q 202.809 980.662 195.479 983.640 Q 188.149 986.618 183.016 992.045 Q 177.883 997.473 175.491 1001.844 Q 173.098 1006.216 172.403 1012.241 Q 171.707 1018.267 174.456 1023.459 Q 177.205 1028.651 182.515 1031.235 Q 187.826 1033.818 193.824 1034.149 Q 199.823 1034.480 203.666 1033.290 Q 207.509 1032.100 211.556 1029.752 Q 215.603 1027.404 219.013 1023.230 Q 222.424 1019.056 223.620 1015.016 Q 224.816 1010.975 224.850 1008.264 Q 224.884 1005.554 222.924 999.363 Q 220.964 993.172 218.114 989.965 Q 215.263 986.758 212.082 984.435 L 208.900 982.113 "></path>
  </g>
  <g id="Pen" opacity="1.000">
    <path id="STROKE_F32CEAAD-BC22-448F-AFB2-C8B192F1C4B5" opacity="1.000" fill="none" stroke="#000000" stroke-width="1.970" stroke-opacity="1.000" stroke-linecap="round" stroke-linejoin="round" d="M 227.334 283.388 Q 245.439 282.064 252.201 281.434 Q 258.962 280.804 269.304 280.111 Q 279.646 279.417 293.169 279.055 Q 306.693 278.692 345.286 278.692 Q 383.879 278.692 382.521 278.196 L 381.164 277.699 "></path>
    <path id="STROKE_10B95110-2E41-43CE-BA2F-A812555E3A7C" opacity="1.000" fill="none" stroke="#000000" stroke-width="3.001" stroke-opacity="1.000" stroke-linecap="round" stroke-linejoin="round" d="M 383.249 228.461 Q 382.758 242.839 383.004 287.340 Q 383.249 331.840 382.973 337.117 Q 382.696 342.393 397.105 328.516 Q 411.515 314.639 422.590 306.067 Q 433.666 297.495 449.665 286.170 Q 465.664 274.845 454.350 267.685 Q 443.036 260.524 436.224 255.489 Q 429.411 250.455 417.406 243.893 Q 405.401 237.332 394.625 232.534 L 383.848 227.735 "></path>
    <path id="STROKE_6D8F308D-CE97-4DA2-8E90-88506FF6FA57" opacity="1.000" fill="none" stroke="#000000" stroke-width="3.001" stroke-opacity="1.000" stroke-linecap="round" stroke-linejoin="round" d="M 456.001 223.299 Q 455.756 238.173 456.263 244.671 Q 456.770 251.169 457.192 260.639 Q 457.614 270.110 458.214 273.946 Q 458.813 277.783 459.266 286.533 Q 459.719 295.283 460.257 301.666 Q 460.794 308.049 461.217 310.624 Q 461.639 313.199 462.146 323.032 Q 462.653 332.865 462.899 333.729 L 463.145 334.593 "></path>
    <path id="STROKE_39B8B15A-D66E-4B0B-BFEA-8A5771097AF7" opacity="1.000" fill="none" stroke="#000000" stroke-width="1.806" stroke-opacity="1.000" stroke-linecap="round" stroke-linejoin="round" d="M 459.949 275.628 Q 468.475 275.870 475.472 275.628 Q 482.469 275.386 491.410 274.666 Q 500.350 273.946 511.994 273.405 Q 523.638 272.863 545.129 272.714 Q 566.620 272.564 588.110 272.564 Q 609.601 272.564 611.882 272.656 L 614.164 272.748 "></path>
    <path id="STROKE_C29B3290-09AA-4ACE-A55E-B0571E51CACE" opacity="1.000" fill="none" stroke="#000000" stroke-width="6.680" stroke-opacity="1.000" stroke-linecap="round" stroke-linejoin="round" d="M 683.132 252.804 Q 687.651 241.085 687.368 236.682 Q 687.085 232.279 684.400 231.857 Q 681.716 231.435 677.480 234.302 Q 673.245 237.169 668.386 244.070 Q 663.528 250.971 661.189 255.576 Q 658.849 260.181 657.031 265.249 Q 655.212 270.318 654.449 277.139 Q 653.686 283.960 654.570 287.634 Q 655.454 291.308 657.164 294.163 Q 658.874 297.018 662.994 299.486 Q 667.115 301.954 670.438 301.514 L 673.761 301.074 "></path>
    <path id="STROKE_7838A4F6-E523-4B94-BCF4-F0FF663E3AB7" opacity="1.000" fill="none" stroke="#000000" stroke-width="6.928" stroke-opacity="1.000" stroke-linecap="round" stroke-linejoin="round" d="M 690.067 290.294 Q 689.710 280.593 691.146 276.008 Q 692.582 271.423 695.029 266.163 Q 697.477 260.903 700.743 257.632 Q 704.010 254.362 705.756 254.180 Q 707.502 253.998 709.305 259.603 Q 711.108 265.209 712.194 274.578 Q 713.279 283.947 714.434 288.638 L 715.589 293.328 "></path>
    <path id="STROKE_58DD666C-4FD8-4000-AADB-4C69B3A52588" opacity="1.000" fill="none" stroke="#000000" stroke-width="6.928" stroke-opacity="1.000" stroke-linecap="round" stroke-linejoin="round" d="M 692.960 278.483 Q 692.977 277.356 696.200 276.399 Q 699.424 275.441 703.801 275.083 L 708.178 274.726 "></path>
    <path id="STROKE_500563F4-3924-4F36-A9B6-9791E298B9CC" opacity="1.000" fill="none" stroke="#000000" stroke-width="6.928" stroke-opacity="1.000" stroke-linecap="round" stroke-linejoin="round" d="M 735.469 262.232 Q 735.125 266.129 735.441 268.299 Q 735.758 270.470 735.967 273.188 Q 736.177 275.907 736.336 281.494 L 736.494 287.082 "></path>
    <path id="STROKE_2F0218D1-EB7A-495C-A09E-7E151D381D13" opacity="1.000" fill="none" stroke="#000000" stroke-width="6.928" stroke-opacity="1.000" stroke-linecap="round" stroke-linejoin="round" d="M 721.158 261.523 Q 723.771 260.100 730.462 258.631 Q 737.153 257.161 744.916 256.338 L 752.679 255.515 "></path>
    <path id="STROKE_94063A0C-15E3-491D-9577-0CA43E224C09" opacity="1.000" fill="none" stroke="#000000" stroke-width="6.928" stroke-opacity="1.000" stroke-linecap="round" stroke-linejoin="round" d="M 761.652 249.707 Q 764.656 254.499 765.181 258.832 Q 765.707 263.164 765.613 269.512 Q 765.518 275.860 765.189 279.342 Q 764.861 282.823 764.273 284.457 L 763.686 286.091 "></path>
    <path id="STROKE_59B2006B-6EDE-46B8-A1D4-3BDE83F348F1" opacity="1.000" fill="none" stroke="#000000" stroke-width="6.928" stroke-opacity="1.000" stroke-linecap="round" stroke-linejoin="round" d="M 781.697 244.776 Q 780.341 246.928 780.047 257.142 Q 779.752 267.356 780.841 274.030 Q 781.931 280.704 783.575 285.616 Q 785.218 290.528 785.801 290.986 L 786.385 291.444 "></path>
    <path id="STROKE_9288DC08-DC38-4DCC-B70A-ABB122885B1B" opacity="1.000" fill="none" stroke="#000000" stroke-width="6.928" stroke-opacity="1.000" stroke-linecap="round" stroke-linejoin="round" d="M 764.147 279.112 Q 763.177 278.199 766.435 277.302 Q 769.694 276.405 776.876 274.976 L 784.058 273.548 "></path>
    <path id="STROKE_232587CD-043C-455A-8D14-91A2CCA9CD5F" opacity="1.000" fill="none" stroke="#000000" stroke-width="6.928" stroke-opacity="1.000" stroke-linecap="round" stroke-linejoin="round" d="M 810.367 257.338 Q 803.971 259.415 800.610 262.396 Q 797.250 265.376 795.374 269.465 Q 793.498 273.554 793.560 276.592 Q 793.623 279.630 794.887 281.144 Q 796.152 282.658 799.771 284.006 Q 803.389 285.354 807.894 285.421 Q 812.398 285.488 816.759 283.246 Q 821.119 281.005 822.524 278.484 Q 823.929 275.964 823.755 273.273 Q 823.580 270.582 818.686 263.677 Q 813.791 256.772 811.517 255.162 Q 809.244 253.553 807.826 254.511 L 806.408 255.469 "></path>
    <path id="STROKE_883CBDB1-B6AD-42E2-B46B-036991361637" opacity="1.000" fill="none" stroke="#000000" stroke-width="6.928" stroke-opacity="1.000" stroke-linecap="round" stroke-linejoin="round" d="M 832.371 257.745 Q 831.488 260.655 831.902 263.417 Q 832.317 266.179 834.414 275.456 Q 836.511 284.733 837.542 285.755 L 838.573 286.776 "></path>
    <path id="STROKE_A6BF06B1-C4EA-42F3-88B9-2C84C488BAF5" opacity="1.000" fill="none" stroke="#000000" stroke-width="6.928" stroke-opacity="1.000" stroke-linecap="round" stroke-linejoin="round" d="M 827.168 260.176 Q 826.975 258.711 832.010 258.571 Q 837.045 258.432 840.620 259.745 Q 844.194 261.059 848.862 264.581 Q 853.530 268.104 854.859 270.075 Q 856.189 272.045 856.565 274.981 Q 856.942 277.917 855.091 280.330 Q 853.240 282.743 849.529 285.269 Q 845.817 287.795 840.892 290.129 L 835.967 292.463 "></path>
    <path id="STROKE_4AAC51F5-CAB3-4F11-9F67-19E0FAE92FE3" opacity="1.000" fill="none" stroke="#000000" stroke-width="6.928" stroke-opacity="1.000" stroke-linecap="round" stroke-linejoin="round" d="M 888.202 261.847 Q 872.946 263.364 869.572 264.782 Q 866.199 266.200 865.457 269.186 Q 864.715 272.172 864.717 276.879 Q 864.718 281.586 866.077 286.420 Q 867.435 291.254 869.585 292.158 Q 871.735 293.062 876.482 293.065 Q 881.229 293.069 889.854 291.413 L 898.479 289.758 "></path>
    <path id="STROKE_75CF065C-C781-40C0-84FD-30DBC3B73368" opacity="1.000" fill="none" stroke="#000000" stroke-width="6.928" stroke-opacity="1.000" stroke-linecap="round" stroke-linejoin="round" d="M 869.742 281.593 Q 871.780 280.444 877.557 279.725 L 883.334 279.006 "></path>
    <path id="STROKE_C5BFDB2C-E2D2-426F-8C8F-A06536652EA4" opacity="1.000" fill="none" stroke="#000000" stroke-width="2.863" stroke-opacity="1.000" stroke-linecap="round" stroke-linejoin="round" d="M 734.916 304.209 Q 730.417 306.167 728.378 309.208 Q 726.340 312.248 723.967 319.119 Q 721.594 325.990 721.281 330.833 Q 720.967 335.676 723.075 341.848 Q 725.182 348.021 730.295 354.092 L 735.407 360.162 "></path>
    <path id="STROKE_8E3E94A4-6203-4871-8E9E-6A76D62B553F" opacity="1.000" fill="none" stroke="#000000" stroke-width="3.492" stroke-opacity="1.000" stroke-linecap="round" stroke-linejoin="round" d="M 745.799 338.271 Q 748.192 337.260 754.064 336.758 L 759.936 336.255 "></path>
    <path id="STROKE_C683AF5B-3B63-4511-8726-E49BA5E9F9C0" opacity="1.000" fill="none" stroke="#000000" stroke-width="2.596" stroke-opacity="1.000" stroke-linecap="round" stroke-linejoin="round" d="M 766.158 307.396 Q 772.604 311.608 775.096 315.306 Q 777.589 319.004 780.843 325.643 Q 784.097 332.283 785.011 339.310 Q 785.926 346.336 785.116 349.114 Q 784.306 351.891 780.570 356.059 Q 776.833 360.228 771.310 363.143 L 765.787 366.058 "></path>
    <path id="STROKE_633FEE09-FA7E-4A26-A722-288B2C4334F1" opacity="1.000" fill="none" stroke="#000000" stroke-width="7.272" stroke-opacity="1.000" stroke-linecap="round" stroke-linejoin="round" d="M -10.890 298.225 Q -12.971 291.070 -8.868 273.604 Q -4.765 256.139 -1.206 247.108 Q 2.353 238.078 6.007 232.265 Q 9.661 226.452 11.866 225.668 Q 14.071 224.885 16.106 250.149 Q 18.140 275.413 20.392 286.174 Q 22.644 296.934 25.030 302.465 Q 27.417 307.996 31.614 312.694 L 35.810 317.392 "></path>
    <path id="STROKE_35DC448A-7196-42B0-B881-4E8C5ED2CEFB" opacity="1.000" fill="none" stroke="#000000" stroke-width="7.433" stroke-opacity="1.000" stroke-linecap="round" stroke-linejoin="round" d="M -6.951 280.426 Q -6.156 279.432 -2.648 277.973 Q 0.859 276.513 5.327 275.197 L 9.796 273.880 "></path>
    <path id="STROKE_AD834000-CCC9-42CE-8B4F-3D0E00120690" opacity="1.000" fill="none" stroke="#000000" stroke-width="7.433" stroke-opacity="1.000" stroke-linecap="round" stroke-linejoin="round" d="M 39.004 292.212 Q 37.047 290.670 36.698 284.183 Q 36.349 277.696 36.869 271.599 Q 37.389 265.503 39.752 266.644 Q 42.115 267.785 45.414 276.859 Q 48.714 285.932 50.657 288.486 Q 52.600 291.040 56.635 292.181 Q 60.670 293.323 62.361 291.185 Q 64.051 289.046 64.483 281.284 Q 64.914 273.521 63.103 263.607 Q 61.292 253.693 59.906 252.028 L 58.521 250.363 "></path>
    <path id="STROKE_2CFA6D63-D7CD-4D4C-8127-E3642308E465" opacity="1.000" fill="none" stroke="#000000" stroke-width="7.433" stroke-opacity="1.000" stroke-linecap="round" stroke-linejoin="round" d="M 97.018 254.882 Q 90.763 253.816 87.860 256.424 Q 84.958 259.031 82.244 265.445 Q 79.530 271.860 79.269 277.416 Q 79.008 282.972 79.935 284.538 Q 80.862 286.103 84.011 287.560 Q 87.159 289.018 90.299 289.053 Q 93.438 289.087 96.667 287.155 Q 99.896 285.222 101.548 282.922 Q 103.200 280.622 103.633 276.364 Q 104.067 272.107 100.790 265.718 Q 97.512 259.330 95.486 257.980 Q 93.461 256.630 91.352 257.415 L 89.244 258.201 "></path>
    <path id="STROKE_BF5F63F6-F07A-4DF5-B68E-DBEA9E3CE84F" opacity="1.000" fill="none" stroke="#000000" stroke-width="7.433" stroke-opacity="1.000" stroke-linecap="round" stroke-linejoin="round" d="M 115.093 255.569 Q 114.086 255.545 113.865 258.088 Q 113.643 260.631 114.771 265.923 Q 115.899 271.215 118.347 279.134 L 120.795 287.054 "></path>
    <path id="STROKE_3CFDF006-40DE-4A9C-98BF-C4DCB2DBB1D8" opacity="1.000" fill="none" stroke="#000000" stroke-width="7.433" stroke-opacity="1.000" stroke-linecap="round" stroke-linejoin="round" d="M 104.348 256.728 Q 110.036 253.680 113.550 253.764 Q 117.063 253.848 123.839 255.979 Q 130.616 258.109 136.350 261.670 Q 142.085 265.231 143.507 267.194 Q 144.928 269.157 145.235 272.050 Q 145.541 274.943 141.239 279.607 Q 136.937 284.272 133.213 286.313 Q 129.488 288.354 125.618 288.849 L 121.748 289.344 "></path>
    <path id="STROKE_599BB31D-CDB2-4850-A5CD-6BAC9B006C26" opacity="1.000" fill="none" stroke="#000000" stroke-width="7.433" stroke-opacity="1.000" stroke-linecap="round" stroke-linejoin="round" d="M 185.311 251.213 Q 156.882 255.970 155.735 256.867 Q 154.588 257.764 156.094 261.144 Q 157.600 264.523 157.430 271.665 Q 157.260 278.807 157.905 281.877 Q 158.550 284.947 161.517 286.818 Q 164.484 288.690 170.135 288.575 Q 175.785 288.460 182.431 285.733 L 189.077 283.005 "></path>
    <path id="STROKE_D867EC66-3E0C-44F9-94FC-F7B209E506A5" opacity="1.000" fill="none" stroke="#000000" stroke-width="7.433" stroke-opacity="1.000" stroke-linecap="round" stroke-linejoin="round" d="M 159.999 272.683 Q 164.315 271.452 169.522 270.659 L 174.728 269.867 "></path>
    <path id="STROKE_B70EE290-6593-4E64-B310-7444041BED81" opacity="1.000" fill="none" stroke="#000000" stroke-width="3.565" stroke-opacity="1.000" stroke-linecap="round" stroke-linejoin="round" d="M 58.342 313.668 Q 52.113 322.297 50.444 327.571 Q 48.775 332.844 47.985 341.274 Q 47.195 349.703 47.914 352.815 Q 48.633 355.927 51.344 359.962 Q 54.056 363.998 56.866 365.736 Q 59.675 367.475 62.755 368.216 L 65.835 368.956 "></path>
    <path id="STROKE_0FBBAC2C-7694-4B5D-B891-89FCC6FBAEE4" opacity="1.000" fill="none" stroke="#000000" stroke-width="3.789" stroke-opacity="1.000" stroke-linecap="round" stroke-linejoin="round" d="M 71.535 343.836 Q 74.495 342.830 78.289 341.955 Q 82.082 341.081 86.278 340.425 L 90.473 339.770 "></path>
    <path id="STROKE_4F4DA470-8CAD-42D6-A356-8FDCA9B71ECF" opacity="1.000" fill="none" stroke="#000000" stroke-width="3.789" stroke-opacity="1.000" stroke-linecap="round" stroke-linejoin="round" d="M 79.676 328.725 Q 78.776 331.389 78.673 335.735 Q 78.569 340.081 79.024 343.934 Q 79.479 347.787 80.019 349.850 Q 80.559 351.912 81.445 353.445 L 82.330 354.977 "></path>
    <path id="STROKE_DB93B5CD-FE71-44A7-8600-FE915BBC82E3" opacity="1.000" fill="none" stroke="#000000" stroke-width="3.427" stroke-opacity="1.000" stroke-linecap="round" stroke-linejoin="round" d="M 96.306 313.576 Q 99.403 313.151 102.858 315.653 Q 106.314 318.155 111.595 323.216 Q 116.876 328.277 119.718 334.076 Q 122.559 339.875 122.204 343.966 Q 121.850 348.057 118.647 352.490 Q 115.444 356.923 111.138 360.422 Q 106.832 363.920 104.931 364.502 L 103.031 365.084 "></path>
    <path id="STROKE_3F989690-290E-429D-988E-B0E115E0A89A" opacity="1.000" fill="none" stroke="#000000" stroke-width="2.859" stroke-opacity="1.000" stroke-linecap="round" stroke-linejoin="round" d="M 344.444 600.099 Q 342.323 601.295 340.040 605.036 Q 337.758 608.778 335.400 617.679 Q 333.041 626.581 332.481 630.984 Q 331.921 635.387 331.853 640.751 Q 331.786 646.115 333.576 652.962 Q 335.366 659.808 336.995 662.659 Q 338.624 665.509 341.203 666.998 Q 343.782 668.487 345.445 668.455 Q 347.108 668.423 349.127 664.154 Q 351.146 659.884 352.707 653.331 Q 354.268 646.777 354.633 636.647 Q 354.997 626.517 352.512 615.758 Q 350.026 604.998 348.270 603.210 L 346.514 601.422 "></path>
    <path id="STROKE_5B093506-4F7C-4EEF-B2C0-E9DF8C6EAEB8" opacity="1.000" fill="none" stroke="#000000" stroke-width="3.001" stroke-opacity="1.000" stroke-linecap="round" stroke-linejoin="round" d="M 345.173 600.366 Q 351.672 599.831 357.772 600.232 Q 363.872 600.633 374.918 600.366 Q 385.964 600.099 394.778 600.035 Q 403.593 599.971 407.470 599.609 Q 411.347 599.246 424.642 598.979 Q 437.936 598.711 446.394 598.412 Q 454.853 598.113 459.460 597.617 Q 464.066 597.121 467.647 597.121 Q 471.227 597.121 487.041 595.899 Q 502.855 594.677 508.853 594.575 L 514.851 594.474 "></path>
    <path id="STROKE_965CE31C-9D95-43AE-86CA-8DF31E01AF60" opacity="1.000" fill="none" stroke="#000000" stroke-width="3.001" stroke-opacity="1.000" stroke-linecap="round" stroke-linejoin="round" d="M 346.972 669.009 Q 374.426 667.953 383.173 667.953 Q 391.919 667.953 401.167 667.393 Q 410.414 666.833 414.699 666.699 Q 418.983 666.566 427.000 666.565 Q 435.018 666.565 437.868 666.400 Q 440.719 666.235 453.546 666.203 Q 466.374 666.171 472.050 665.967 Q 477.725 665.764 493.964 665.732 Q 510.202 665.700 514.478 665.038 L 518.754 664.377 "></path>
    <path id="STROKE_1B8EEAE8-CE78-473E-ACB8-4FF0A25E6513" opacity="1.000" fill="none" stroke="#000000" stroke-width="3.001" stroke-opacity="1.000" stroke-linecap="round" stroke-linejoin="round" d="M 515.055 595.263 Q 518.635 598.253 520.688 602.357 Q 522.741 606.461 525.625 615.662 Q 528.510 624.863 528.909 634.725 Q 529.307 644.588 526.355 652.433 Q 523.403 660.279 521.579 662.729 L 519.755 665.178 "></path>
    <path id="STROKE_78E493CA-C783-47AB-B082-C876533DB423" opacity="1.000" fill="none" stroke="#000000" stroke-width="3.001" stroke-opacity="1.000" stroke-linecap="round" stroke-linejoin="round" d="M 530.631 629.890 Q 538.046 630.679 553.300 629.158 Q 568.554 627.637 580.024 627.440 Q 591.494 627.243 600.309 626.778 Q 609.124 626.314 623.114 625.219 Q 637.104 624.125 647.751 624.125 Q 658.398 624.125 664.201 623.896 Q 670.004 623.667 688.864 623.667 Q 707.724 623.667 718.201 623.272 Q 728.679 622.878 747.013 621.681 Q 765.346 620.485 774.263 620.619 L 783.179 620.752 "></path>
    <path id="STROKE_C8F830E2-B65A-4B31-BBD4-3B973D43FD23" opacity="1.000" fill="none" stroke="#000000" stroke-width="3.058" stroke-opacity="1.000" stroke-linecap="round" stroke-linejoin="round" d="M 84.804 643.907 Q 92.349 644.821 107.919 643.496 Q 123.488 642.171 135.181 642.139 Q 146.874 642.107 155.865 641.764 Q 164.856 641.421 179.130 640.511 Q 193.405 639.603 204.257 639.760 Q 215.108 639.917 221.026 639.769 Q 226.944 639.621 246.165 639.899 Q 265.387 640.177 276.071 639.930 Q 286.756 639.682 305.459 638.734 Q 324.162 637.785 333.248 638.053 L 342.334 638.321 "></path>
    <path id="STROKE_FB4E7026-ABDA-43EB-A90E-554441CD791C" opacity="1.000" fill="none" stroke="#000000" stroke-width="9.291" stroke-opacity="1.000" stroke-linecap="round" stroke-linejoin="round" d="M 479.437 601.526 Q 484.553 609.657 485.920 615.597 Q 487.286 621.537 487.591 625.782 Q 487.895 630.027 487.921 637.225 Q 487.947 644.423 486.095 650.946 Q 484.243 657.469 482.624 660.169 L 481.005 662.870 "></path>
  </g>
</svg>