<?xml version="1.0" encoding="UTF-8"?>
<svg xmlns="http://www.w3.org/2000/svg" xmlns:xlink="http://www.w3.org/1999/xlink" width="4.899674in" height="10.896271in" version="1.1" viewBox="177.769995 134.224462 646.756977 1438.307819">
  <!--
	Exported with Concepts: Smarter Sketching
	Version: 414
	iOS Version: 11.0
	https://concepts.tophatch.com/
	-->
  <title>Untitled</title>
  <desc>Drawing exported from Concepts: Smarter Sketching</desc>
  <g id="Fill" opacity="1.000">
    <path id="STROKE_A42D1938-AFAF-415D-9DF3-7721486CDC7F" opacity="0.333" fill="#00b7d9" stroke="#00b7d9" stroke-width="1.000" stroke-opacity="1.000" stroke-linecap="round" stroke-linejoin="round" d="M 403.677 392.490 Q 404.969 394.135 407.765 389.962 Q 410.560 385.789 410.426 383.708 Q 410.291 381.627 407.717 377.407 Q 405.142 373.187 403.062 371.419 Q 400.982 369.651 396.629 368.665 Q 392.276 367.680 386.763 367.819 Q 381.249 367.959 378.282 368.828 Q 375.315 369.697 368.949 374.439 Q 362.583 379.181 361.660 385.006 Q 360.737 390.831 370.519 395.238 Q 380.301 399.645 382.006 401.869 Q 383.711 404.094 384.318 409.623 Q 384.926 415.151 383.061 417.691 Q 381.196 420.232 376.087 423.218 Q 370.978 426.204 365.070 427.294 Q 359.162 428.383 356.645 426.244 Q 354.128 424.105 352.664 419.290 Q 351.200 414.474 348.552 415.549 Q 345.904 416.624 342.722 419.573 Q 339.540 422.521 340.123 428.214 Q 340.707 433.907 343.914 436.902 Q 347.122 439.897 352.602 442.278 Q 358.082 444.660 363.983 445.491 Q 369.884 446.322 376.001 446.345 Q 382.118 446.368 386.434 444.739 Q 390.749 443.110 396.274 439.778 Q 401.800 436.447 404.625 430.722 Q 407.450 424.998 407.583 419.610 Q 407.715 414.222 404.813 410.419 Q 401.911 406.616 394.373 402.796 Q 386.836 398.976 384.990 396.515 Q 383.143 394.054 382.510 390.793 Q 381.876 387.531 383.292 386.007 Q 384.709 384.483 389.091 383.877 Q 393.474 383.271 397.930 387.058 Q 402.385 390.845 403.677 392.490 Z"></path>
    <path id="STROKE_A5A25455-282A-45FE-82C2-8C76FDA4D532" opacity="0.333" fill="#00b7d9" stroke="#00b7d9" stroke-width="1.000" stroke-opacity="1.000" stroke-linecap="round" stroke-linejoin="round" d="M 420.928 404.651 Q 420.112 405.849 418.816 411.694 Q 417.519 417.540 416.638 424.917 Q 415.757 432.293 416.558 435.346 Q 417.358 438.399 419.850 440.956 Q 422.342 443.512 424.701 443.704 Q 427.059 443.895 431.560 441.760 Q 436.062 439.625 439.393 441.304 Q 442.724 442.984 447.681 442.585 Q 452.638 442.185 455.864 440.072 Q 459.091 437.959 462.585 434.064 Q 466.079 430.170 468.906 422.502 Q 471.732 414.835 470.858 407.590 Q 469.984 400.344 463.101 400.692 Q 456.218 401.040 454.678 403.715 Q 453.139 406.390 452.621 410.042 Q 452.104 413.695 448.844 416.688 Q 445.585 419.681 444.313 414.217 Q 443.041 408.753 439.237 409.921 Q 435.433 411.089 432.220 416.026 Q 429.006 420.962 428.591 419.480 Q 428.176 417.998 429.914 411.229 Q 431.652 404.460 429.857 402.720 Q 428.061 400.979 424.903 402.216 Q 421.745 403.454 420.928 404.651 Z"></path>
    <path id="STROKE_293091CB-7434-4985-A8B6-625CFF26880D" opacity="0.333" fill="#00b7d9" stroke="#00b7d9" stroke-width="1.000" stroke-opacity="1.000" stroke-linecap="round" stroke-linejoin="round" d="M 488.444 401.756 Q 486.701 403.323 483.293 415.821 Q 479.886 428.318 478.654 435.787 Q 477.423 443.256 478.762 443.559 Q 480.100 443.862 487.543 442.805 Q 494.987 441.748 495.254 438.348 Q 495.522 434.948 498.019 416.965 Q 500.517 398.982 495.352 399.585 Q 490.186 400.188 488.444 401.756 Z"></path>
    <path id="STROKE_351D73D3-F33D-4E89-8A5B-87C45A790FA2" opacity="0.333" fill="#00b7d9" stroke="#00b7d9" stroke-width="1.000" stroke-opacity="1.000" stroke-linecap="round" stroke-linejoin="round" d="M 517.040 403.023 Q 515.197 401.349 513.672 406.362 Q 512.148 411.376 519.931 411.450 Q 527.714 411.523 523.227 427.324 Q 518.740 443.126 523.811 443.909 Q 528.882 444.693 530.296 443.960 Q 531.709 443.227 534.245 433.985 Q 536.781 424.743 537.636 419.656 Q 538.491 414.569 540.767 412.937 Q 543.043 411.305 548.533 411.072 Q 554.023 410.839 553.906 405.748 Q 553.789 400.657 550.177 399.510 Q 546.565 398.363 544.050 395.744 Q 541.535 393.125 542.874 388.457 Q 544.213 383.790 546.730 379.705 Q 549.247 375.620 550.418 371.414 Q 551.590 367.208 546.359 366.286 Q 541.129 365.364 538.891 369.219 Q 536.654 373.074 534.229 384.353 Q 531.804 395.631 530.773 398.726 Q 529.742 401.821 524.312 403.259 Q 518.883 404.697 517.040 403.023 Z"></path>
    <path id="STROKE_04E70E0F-D601-433A-B37A-9E3278B97DAF" opacity="0.333" fill="#00b7d9" stroke="#00b7d9" stroke-width="1.000" stroke-opacity="1.000" stroke-linecap="round" stroke-linejoin="round" d="M 588.538 416.263 Q 589.117 416.750 590.686 412.479 Q 592.255 408.208 590.342 406.231 Q 588.428 404.254 584.978 402.854 Q 581.527 401.454 578.056 400.819 Q 574.585 400.184 570.288 403.013 Q 565.992 405.842 562.706 411.125 Q 559.420 416.407 556.658 424.262 Q 553.896 432.116 553.885 435.259 Q 553.873 438.402 556.992 441.397 Q 560.110 444.392 561.891 445.185 Q 563.673 445.979 568.532 446.321 Q 573.392 446.664 579.191 444.490 Q 584.990 442.315 586.810 439.081 Q 588.630 435.847 585.372 433.892 Q 582.113 431.937 576.459 431.480 Q 570.806 431.023 569.679 429.721 Q 568.552 428.418 568.330 425.737 Q 568.109 423.055 570.530 419.250 Q 572.951 415.444 575.504 414.227 Q 578.058 413.009 581.021 413.203 Q 583.984 413.396 585.971 414.586 Q 587.959 415.776 588.538 416.263 Z"></path>
    <path id="STROKE_A12736EF-FDDC-4155-8BBA-6F1ADCB28B18" opacity="0.333" fill="#00b7d9" stroke="#00b7d9" stroke-width="1.000" stroke-opacity="1.000" stroke-linecap="round" stroke-linejoin="round" d="M 612.079 366.465 Q 611.586 368.126 610.465 370.064 Q 609.343 372.003 607.771 383.445 Q 606.199 394.887 603.127 411.133 Q 600.055 427.380 599.130 433.783 Q 598.205 440.186 597.126 443.374 Q 596.047 446.562 599.544 446.806 Q 603.040 447.050 604.926 445.279 Q 606.812 443.508 607.731 438.674 Q 608.650 433.841 610.383 428.552 Q 612.116 423.264 614.792 419.411 Q 617.467 415.557 618.790 415.424 Q 620.112 415.291 621.653 418.583 Q 623.194 421.874 623.250 425.920 Q 623.306 429.966 621.350 437.752 Q 619.395 445.538 625.351 445.747 Q 631.308 445.956 633.462 445.248 Q 635.616 444.540 636.966 437.214 Q 638.315 429.888 638.755 423.043 Q 639.196 416.199 638.589 411.942 Q 637.983 407.685 635.767 404.320 Q 633.550 400.955 630.172 400.854 Q 626.794 400.752 623.501 401.549 Q 620.208 402.346 617.333 403.931 Q 614.458 405.516 615.454 399.043 Q 616.451 392.569 619.125 382.749 Q 621.800 372.930 622.186 369.530 Q 622.572 366.131 617.572 365.467 Q 612.571 364.804 612.079 366.465 Z"></path>
    <path id="STROKE_1516F4F2-8D11-4741-B578-07CAE952BAFD" opacity="0.333" fill="#e85764" stroke="#e85764" stroke-width="1.000" stroke-opacity="1.000" stroke-linecap="round" stroke-linejoin="round" d="M 325.016 835.897 Q 326.019 834.938 322.263 847.493 Q 318.506 860.049 313.747 873.610 Q 308.988 887.170 302.183 902.000 Q 295.378 916.830 301.314 916.403 Q 307.251 915.975 313.780 912.864 Q 320.308 909.754 323.126 896.761 Q 325.944 883.768 328.085 897.288 Q 330.225 910.808 336.676 910.880 Q 343.127 910.952 350.960 909.552 Q 358.794 908.153 356.630 905.439 Q 354.465 902.726 347.368 890.688 Q 340.271 878.650 339.341 875.311 Q 338.411 871.972 346.972 858.549 Q 355.533 845.127 355.666 841.849 Q 355.800 838.572 352.221 835.231 Q 348.643 831.889 342.857 831.258 Q 337.072 830.626 330.543 833.741 Q 324.014 836.856 325.016 835.897 Z"></path>
    <path id="STROKE_1B0345C4-965A-4BF2-B5C5-90C8350D7FDF" opacity="0.333" fill="#e85764" stroke="#e85764" stroke-width="1.000" stroke-opacity="1.000" stroke-linecap="round" stroke-linejoin="round" d="M 381.160 883.869 Q 380.617 883.718 389.216 883.673 Q 397.815 883.629 400.992 882.839 Q 404.169 882.049 403.317 877.723 Q 402.464 873.396 400.175 869.407 Q 397.885 865.418 395.423 863.341 Q 392.962 861.263 389.269 860.016 Q 385.576 858.768 381.322 858.534 Q 377.068 858.301 374.815 859.169 Q 372.562 860.037 369.537 862.411 Q 366.511 864.786 364.960 868.283 Q 363.409 871.780 363.163 879.187 Q 362.917 886.595 364.053 890.448 Q 365.189 894.302 366.766 897.104 Q 368.343 899.906 370.211 901.555 Q 372.079 903.204 377.730 905.086 Q 383.381 906.967 388.218 907.516 Q 393.055 908.064 396.528 906.217 Q 400.001 904.369 402.010 902.056 Q 404.019 899.743 404.107 898.424 Q 404.194 897.106 394.917 896.149 Q 385.641 895.193 383.495 892.412 Q 381.349 889.630 381.526 886.825 Q 381.702 884.020 381.160 883.869 Z"></path>
    <path id="STROKE_B8D093F2-0A9B-4ACB-8C4A-8FA5D66F6EB0" opacity="0.333" fill="#e85764" stroke="#e85764" stroke-width="1.000" stroke-opacity="1.000" stroke-linecap="round" stroke-linejoin="round" d="M 451.140 875.428 Q 453.615 875.809 454.428 870.653 Q 455.242 865.497 450.440 863.911 Q 445.639 862.324 437.403 861.334 Q 429.166 860.344 424.243 861.563 Q 419.319 862.782 418.829 866.101 Q 418.338 869.420 419.595 871.134 Q 420.852 872.849 426.297 876.352 Q 431.742 879.855 434.440 883.449 Q 437.139 887.044 437.661 889.031 Q 438.183 891.019 434.077 892.719 Q 429.970 894.419 425.474 893.094 Q 420.978 891.770 419.254 893.519 Q 417.529 895.268 417.498 898.053 Q 417.467 900.837 419.224 902.670 Q 420.981 904.504 426.665 907.211 Q 432.348 909.919 438.586 910.179 Q 444.823 910.439 448.376 909.508 Q 451.930 908.578 454.293 906.532 Q 456.656 904.486 456.952 901.256 Q 457.248 898.026 455.397 894.323 Q 453.546 890.620 451.537 888.593 Q 449.528 886.566 443.904 882.331 Q 438.279 878.096 437.217 876.338 Q 436.154 874.580 438.507 872.833 Q 440.861 871.086 444.763 873.067 Q 448.665 875.047 451.140 875.428 Z"></path>
    <path id="STROKE_CF1B0DEF-ACE3-4768-B426-0497A366403F" opacity="0.333" fill="#e85764" stroke="#e85764" stroke-width="1.000" stroke-opacity="1.000" stroke-linecap="round" stroke-linejoin="round" d="M 475.489 863.529 Q 470.632 866.939 469.420 869.923 Q 468.207 872.907 467.096 879.239 Q 465.986 885.571 465.071 895.469 Q 464.156 905.368 465.064 906.298 Q 465.973 907.229 474.176 906.872 Q 482.379 906.515 482.087 899.129 Q 481.795 891.743 482.012 874.499 Q 482.229 857.255 481.288 858.687 Q 480.347 860.118 475.489 863.529 Z"></path>
    <path id="STROKE_6D53C37B-32E9-41C1-B4C7-327CBDB274E9" opacity="0.333" fill="#e85764" stroke="#e85764" stroke-width="1.000" stroke-opacity="1.000" stroke-linecap="round" stroke-linejoin="round" d="M 533.079 873.515 Q 535.241 874.881 536.421 870.482 Q 537.601 866.083 536.162 866.067 Q 534.723 866.051 528.433 862.443 Q 522.142 858.835 516.601 857.454 Q 511.060 856.072 508.202 856.394 Q 505.345 856.716 502.775 858.292 Q 500.206 859.869 498.597 862.136 Q 496.987 864.404 497.956 868.542 Q 498.926 872.679 507.441 877.967 Q 515.956 883.255 518.286 888.423 Q 520.617 893.592 518.233 897.529 Q 515.849 901.466 511.376 900.187 Q 506.904 898.908 505.622 897.360 Q 504.339 895.813 500.087 897.562 Q 495.835 899.310 495.990 902.187 Q 496.145 905.063 497.779 907.113 Q 499.413 909.163 503.034 910.832 Q 506.655 912.500 511.932 913.761 Q 517.209 915.022 523.354 914.805 Q 529.500 914.588 534.003 911.527 Q 538.505 908.467 540.240 905.230 Q 541.976 901.994 540.342 897.776 Q 538.708 893.558 529.784 887.042 Q 520.860 880.525 517.948 876.529 Q 515.036 872.533 517.563 870.366 Q 520.091 868.200 525.504 870.174 Q 530.918 872.148 533.079 873.515 Z"></path>
    <path id="STROKE_E9AABB12-DF8D-48C0-9B7C-984D70E6DAA5" opacity="0.333" fill="#e85764" stroke="#e85764" stroke-width="1.000" stroke-opacity="1.000" stroke-linecap="round" stroke-linejoin="round" d="M 576.672 826.772 Q 576.404 827.499 574.750 829.371 Q 573.096 831.244 571.509 838.065 Q 569.921 844.885 569.097 850.962 Q 568.273 857.039 568.510 859.141 Q 568.746 861.243 566.372 860.532 Q 563.997 859.821 559.414 859.842 Q 554.830 859.863 554.042 860.634 Q 553.253 861.406 552.030 866.934 Q 550.808 872.461 559.161 873.262 Q 567.514 874.063 567.159 876.608 Q 566.804 879.153 563.787 888.887 Q 560.770 898.621 560.000 904.154 Q 559.231 909.687 563.025 910.555 Q 566.818 911.423 568.495 909.650 Q 570.171 907.878 571.511 902.206 Q 572.850 896.534 574.554 885.302 Q 576.257 874.070 577.403 873.258 Q 578.549 872.445 584.049 872.625 Q 589.550 872.804 591.947 872.051 Q 594.343 871.298 595.159 865.906 Q 595.976 860.514 587.558 858.978 Q 579.140 857.441 578.856 855.271 Q 578.572 853.100 579.654 847.189 Q 580.736 841.279 582.631 834.579 Q 584.526 827.880 583.800 825.228 Q 583.073 822.576 580.007 824.310 Q 576.940 826.044 576.672 826.772 Z"></path>
    <path id="STROKE_8B4B06CE-DA23-4AFC-BAD3-F697930E15C2" opacity="0.333" fill="#e85764" stroke="#e85764" stroke-width="1.000" stroke-opacity="1.000" stroke-linecap="round" stroke-linejoin="round" d="M 641.911 875.086 Q 643.011 876.232 643.048 875.076 Q 643.085 873.920 640.140 870.726 Q 637.195 867.532 632.519 865.498 Q 627.844 863.464 623.349 863.673 Q 618.854 863.881 614.514 867.583 Q 610.173 871.284 606.779 876.883 Q 603.385 882.482 602.350 890.633 Q 601.316 898.785 602.229 901.484 Q 603.142 904.183 607.156 906.378 Q 611.171 908.572 617.869 909.776 Q 624.567 910.981 627.725 909.791 Q 630.882 908.602 634.839 905.132 Q 638.796 901.662 640.511 898.615 Q 642.226 895.569 642.832 890.030 Q 643.439 884.490 642.125 879.215 Q 640.812 873.940 641.911 875.086 Z"></path>
    <path id="STROKE_870C8A02-3B0E-4EA0-A03A-0F4718A386F9" opacity="0.333" fill="#e85764" stroke="#e85764" stroke-width="1.000" stroke-opacity="1.000" stroke-linecap="round" stroke-linejoin="round" d="M 655.880 862.005 Q 657.073 861.333 656.142 863.967 Q 655.212 866.600 651.661 879.675 Q 648.111 892.751 647.109 900.122 Q 646.108 907.494 647.063 908.593 Q 648.018 909.692 653.061 909.159 Q 658.104 908.626 659.319 896.726 Q 660.534 884.827 662.985 881.457 Q 665.435 878.088 668.710 876.660 Q 671.985 875.232 674.149 876.340 Q 676.314 877.448 676.283 880.187 Q 676.252 882.925 681.551 882.182 Q 686.850 881.439 688.758 879.551 Q 690.666 877.663 687.951 871.143 Q 685.237 864.623 683.113 862.618 Q 680.989 860.612 677.707 860.458 Q 674.425 860.303 670.889 863.497 Q 667.352 866.691 665.550 863.460 Q 663.748 860.229 659.218 861.453 Q 654.687 862.676 655.880 862.005 Z"></path>
    <path id="STROKE_32FFD89E-C1C1-43D7-A33B-A233CE648662" opacity="1.000" fill="#ffffff" stroke="#ffffff" stroke-width="1.000" stroke-opacity="1.000" stroke-linecap="round" stroke-linejoin="round" d="M 338.887 848.364 Q 338.101 848.850 337.398 848.465 Q 336.695 848.081 334.878 849.970 Q 333.061 851.859 332.501 853.268 Q 331.941 854.676 332.349 856.100 Q 332.756 857.524 334.127 857.630 Q 335.499 857.736 337.569 856.417 Q 339.640 855.098 339.894 853.427 Q 340.149 851.757 339.910 849.818 Q 339.672 847.879 338.887 848.364 Z"></path>
    <path id="STROKE_9B215661-CD1F-4F34-BD0C-775B07076D63" opacity="1.000" fill="#ffffff" stroke="#ffffff" stroke-width="1.000" stroke-opacity="1.000" stroke-linecap="round" stroke-linejoin="round" d="M 382.548 873.314 Q 382.517 873.926 382.161 872.226 Q 381.805 870.526 383.450 869.433 Q 385.094 868.340 386.560 868.148 Q 388.025 867.956 388.724 868.694 Q 389.424 869.432 390.128 871.843 Q 390.833 874.255 386.706 873.478 Q 382.579 872.702 382.548 873.314 Z"></path>
    <path id="STROKE_B64EA632-F797-49C3-A204-D421A5C17C21" opacity="1.000" fill="#ffffff" stroke="#ffffff" stroke-width="1.000" stroke-opacity="1.000" stroke-linecap="round" stroke-linejoin="round" d="M 627.153 878.222 Q 627.434 878.461 625.426 878.579 Q 623.417 878.697 620.365 881.235 Q 617.314 883.772 616.153 885.908 Q 614.992 888.045 614.783 890.024 Q 614.573 892.004 616.033 894.496 Q 617.492 896.988 619.969 897.229 Q 622.445 897.470 624.089 896.427 Q 625.734 895.385 627.677 892.976 Q 629.621 890.567 629.124 886.362 Q 628.627 882.157 627.749 880.070 Q 626.871 877.983 627.153 878.222 Z"></path>
    <path id="STROKE_775A43B5-FD6D-417A-81F5-A754F2F882E9" opacity="0.333" fill="#85929c" stroke="#85929c" stroke-width="1.000" stroke-opacity="1.000" stroke-linecap="round" stroke-linejoin="round" d="M 326.243 1450.066 Q 324.639 1451.393 327.042 1447.674 Q 329.445 1443.955 330.346 1440.037 Q 331.248 1436.118 329.035 1434.532 Q 326.823 1432.946 324.015 1432.086 Q 321.206 1431.225 315.833 1431.008 Q 310.459 1430.790 306.119 1432.024 Q 301.779 1433.258 298.407 1435.238 Q 295.035 1437.218 289.732 1442.489 Q 284.429 1447.759 281.364 1453.234 Q 278.299 1458.709 276.912 1463.473 Q 275.526 1468.237 275.393 1471.461 Q 275.260 1474.685 277.106 1481.810 Q 278.952 1488.934 282.482 1493.233 Q 286.012 1497.532 291.119 1500.239 Q 296.227 1502.946 304.291 1503.785 Q 312.356 1504.625 318.641 1502.977 Q 324.927 1501.328 328.160 1496.769 Q 331.394 1492.210 330.613 1488.675 Q 329.833 1485.140 325.143 1484.407 Q 320.453 1483.674 316.491 1483.622 Q 312.529 1483.569 307.721 1482.682 Q 302.913 1481.796 300.573 1480.710 Q 298.234 1479.625 295.551 1473.865 Q 292.867 1468.105 292.807 1465.821 Q 292.747 1463.536 294.555 1460.419 Q 296.364 1457.301 298.504 1455.249 Q 300.644 1453.196 305.618 1450.036 Q 310.593 1446.876 315.097 1446.259 Q 319.602 1445.641 321.778 1447.723 Q 323.953 1449.804 325.900 1449.272 Q 327.847 1448.739 326.243 1450.066 Z"></path>
    <path id="STROKE_4241C753-6FAC-4561-BE0A-E7282E60A2E1" opacity="0.333" fill="#85929c" stroke="#85929c" stroke-width="1.000" stroke-opacity="1.000" stroke-linecap="round" stroke-linejoin="round" d="M 375.190 1458.611 Q 374.194 1460.965 372.323 1458.781 Q 370.452 1456.596 366.953 1455.877 Q 363.455 1455.158 360.337 1456.777 Q 357.219 1458.396 353.450 1462.290 Q 349.681 1466.184 346.599 1471.921 Q 343.516 1477.659 342.877 1481.852 Q 342.238 1486.045 344.233 1489.600 Q 346.228 1493.155 349.565 1495.359 Q 352.902 1497.562 356.759 1497.759 Q 360.615 1497.956 363.901 1496.659 Q 367.187 1495.362 370.511 1491.725 Q 373.835 1488.089 373.659 1492.379 Q 373.482 1496.668 378.389 1497.232 Q 383.296 1497.796 384.916 1494.603 Q 386.537 1491.410 386.735 1474.112 Q 386.934 1456.814 386.399 1455.433 Q 385.863 1454.051 381.025 1455.154 Q 376.186 1456.257 375.190 1458.611 Z"></path>
    <path id="STROKE_53BA85D1-B1AD-486C-8742-39E2EF613C57" opacity="0.333" fill="#85929c" stroke="#85929c" stroke-width="1.000" stroke-opacity="1.000" stroke-linecap="round" stroke-linejoin="round" d="M 405.308 1457.080 Q 404.150 1458.085 403.758 1457.177 Q 403.366 1456.269 400.870 1472.521 Q 398.374 1488.773 396.731 1495.954 Q 395.088 1503.135 390.914 1516.184 Q 386.740 1529.233 384.070 1536.524 Q 381.401 1543.815 386.391 1544.291 Q 391.381 1544.766 397.851 1543.623 Q 404.321 1542.480 404.975 1540.037 Q 405.628 1537.595 406.674 1524.656 Q 407.720 1511.717 409.450 1504.761 Q 411.180 1497.805 418.777 1497.939 Q 426.375 1498.073 432.420 1495.668 Q 438.466 1493.263 440.538 1491.512 Q 442.611 1489.761 445.110 1484.044 Q 447.609 1478.327 447.528 1473.687 Q 447.447 1469.047 445.419 1465.166 Q 443.391 1461.285 440.272 1458.445 Q 437.153 1455.604 433.493 1454.125 Q 429.832 1452.647 426.698 1453.278 Q 423.563 1453.910 418.749 1457.611 Q 413.936 1461.311 413.722 1457.718 Q 413.507 1454.125 409.986 1455.099 Q 406.466 1456.074 405.308 1457.080 Z"></path>
    <path id="STROKE_D5DF26B6-CB26-4138-A580-D584E6EBC372" opacity="0.333" fill="#85929c" stroke="#85929c" stroke-width="1.000" stroke-opacity="1.000" stroke-linecap="round" stroke-linejoin="round" d="M 497.729 1454.626 Q 497.905 1454.309 492.498 1454.266 Q 487.091 1454.222 486.979 1458.742 Q 486.866 1463.262 482.734 1459.589 Q 478.601 1455.916 474.702 1454.378 Q 470.803 1452.840 467.294 1452.968 Q 463.784 1453.095 460.932 1454.370 Q 458.081 1455.645 456.057 1458.771 Q 454.034 1461.897 453.032 1466.961 Q 452.030 1472.024 451.828 1478.265 Q 451.626 1484.506 452.473 1486.649 Q 453.320 1488.792 457.585 1491.446 Q 461.851 1494.099 467.195 1494.434 Q 472.538 1494.768 474.743 1493.720 Q 476.949 1492.672 480.822 1489.363 Q 484.695 1486.054 485.599 1492.427 Q 486.502 1498.801 491.219 1498.425 Q 495.936 1498.050 497.477 1496.320 Q 499.018 1494.591 499.143 1485.168 Q 499.267 1475.745 497.976 1467.089 Q 496.684 1458.433 497.118 1456.688 Q 497.553 1454.944 497.729 1454.626 Z"></path>
    <path id="STROKE_76E7EEDF-8E41-4719-9E14-DCCB694B0F4F" opacity="0.333" fill="#85929c" stroke="#85929c" stroke-width="1.000" stroke-opacity="1.000" stroke-linecap="round" stroke-linejoin="round" d="M 541.161 1467.806 Q 542.562 1467.622 541.846 1466.939 Q 541.129 1466.257 542.304 1461.106 Q 543.479 1455.955 543.292 1454.875 Q 543.104 1453.796 538.660 1451.633 Q 534.215 1449.471 531.676 1449.179 Q 529.137 1448.888 525.522 1450.153 Q 521.908 1451.417 518.836 1454.092 Q 515.764 1456.767 513.469 1460.063 Q 511.174 1463.359 508.838 1469.802 Q 506.501 1476.245 506.131 1482.164 Q 505.761 1488.083 508.394 1492.583 Q 511.028 1497.083 512.270 1498.120 Q 513.513 1499.158 517.501 1500.231 Q 521.488 1501.305 527.145 1500.039 Q 532.801 1498.773 535.548 1496.913 Q 538.295 1495.053 540.265 1491.433 Q 542.235 1487.813 538.818 1485.462 Q 535.401 1483.111 531.044 1483.463 Q 526.686 1483.815 523.547 1482.489 Q 520.408 1481.163 519.751 1479.954 Q 519.094 1478.745 518.942 1474.922 Q 518.791 1471.100 521.905 1467.495 Q 525.019 1463.890 527.828 1463.635 Q 530.636 1463.381 533.735 1465.435 Q 536.834 1467.490 538.297 1467.740 Q 539.760 1467.989 541.161 1467.806 Z"></path>
    <path id="STROKE_894289C6-91BD-4196-9DD5-2BE6A0DF168D" opacity="0.333" fill="#85929c" stroke="#85929c" stroke-width="1.000" stroke-opacity="1.000" stroke-linecap="round" stroke-linejoin="round" d="M 560.364 1456.829 Q 558.564 1460.014 558.124 1458.286 Q 557.683 1456.558 556.895 1460.693 Q 556.107 1464.828 554.570 1479.281 Q 553.033 1493.734 552.253 1497.807 Q 551.474 1501.881 554.152 1502.410 Q 556.830 1502.939 559.799 1501.845 Q 562.768 1500.751 566.666 1497.824 Q 570.565 1494.896 570.953 1489.825 Q 571.342 1484.753 571.456 1476.116 Q 571.570 1467.478 571.257 1460.063 Q 570.943 1452.649 566.554 1453.146 Q 562.164 1453.644 560.364 1456.829 Z"></path>
    <path id="STROKE_018F7DC4-0728-487D-8DA4-B77F7CD99093" opacity="0.333" fill="#85929c" stroke="#85929c" stroke-width="1.000" stroke-opacity="1.000" stroke-linecap="round" stroke-linejoin="round" d="M 587.369 1454.908 Q 584.775 1454.234 583.367 1461.127 Q 581.960 1468.019 585.925 1468.509 Q 589.890 1468.999 594.174 1468.007 Q 598.458 1467.014 598.545 1471.745 Q 598.632 1476.475 597.772 1483.846 Q 596.912 1491.217 599.066 1494.045 Q 601.220 1496.872 604.468 1496.713 Q 607.716 1496.554 609.524 1494.508 Q 611.331 1492.462 611.302 1481.663 Q 611.272 1470.864 610.782 1467.794 Q 610.291 1464.725 615.957 1465.002 Q 621.623 1465.279 623.329 1464.634 Q 625.036 1463.989 626.148 1461.928 Q 627.259 1459.867 627.391 1456.166 Q 627.522 1452.465 626.715 1451.810 Q 625.909 1451.154 620.409 1451.283 Q 614.910 1451.412 612.296 1450.536 Q 609.682 1449.660 608.513 1431.727 Q 607.344 1413.794 601.653 1415.408 Q 595.962 1417.021 595.884 1420.700 Q 595.805 1424.379 597.373 1431.928 Q 598.942 1439.477 599.376 1446.226 Q 599.810 1452.974 594.887 1454.278 Q 589.963 1455.582 587.369 1454.908 Z"></path>
    <path id="STROKE_80B787F3-19E4-4075-AADE-0C020B90AEA2" opacity="0.333" fill="#85929c" stroke="#85929c" stroke-width="1.000" stroke-opacity="1.000" stroke-linecap="round" stroke-linejoin="round" d="M 669.862 1473.590 Q 669.749 1473.095 670.027 1471.842 Q 670.305 1470.589 667.582 1466.705 Q 664.858 1462.821 662.375 1460.566 Q 659.891 1458.312 656.877 1456.640 Q 653.862 1454.968 650.711 1454.544 Q 647.560 1454.121 644.358 1455.364 Q 641.155 1456.606 637.620 1460.940 Q 634.084 1465.275 632.767 1467.619 Q 631.449 1469.964 630.309 1474.206 Q 629.168 1478.449 629.318 1480.700 Q 629.468 1482.952 630.825 1486.094 Q 632.182 1489.237 635.694 1493.423 Q 639.207 1497.610 642.899 1498.915 Q 646.592 1500.221 649.133 1500.400 Q 651.673 1500.579 657.604 1498.352 Q 663.535 1496.125 665.759 1492.009 Q 667.982 1487.893 668.979 1480.989 Q 669.975 1474.085 669.862 1473.590 Z"></path>
    <path id="STROKE_D73BFA4D-E6A9-4580-A475-4476864A8077" opacity="0.333" fill="#85929c" stroke="#85929c" stroke-width="1.000" stroke-opacity="1.000" stroke-linecap="round" stroke-linejoin="round" d="M 680.016 1457.417 Q 680.997 1458.423 678.669 1468.748 Q 676.341 1479.072 675.240 1487.141 Q 674.138 1495.210 675.961 1496.547 Q 677.783 1497.884 683.200 1497.170 Q 688.618 1496.456 689.526 1489.406 Q 690.434 1482.355 690.479 1479.001 Q 690.523 1475.647 691.708 1472.566 Q 692.893 1469.485 696.588 1468.367 Q 700.283 1467.249 701.550 1468.697 Q 702.818 1470.144 703.551 1474.097 Q 704.284 1478.050 708.115 1477.893 Q 711.947 1477.737 714.591 1476.868 Q 717.236 1476.000 715.461 1468.768 Q 713.687 1461.536 711.449 1458.298 Q 709.210 1455.060 707.088 1454.302 Q 704.967 1453.545 701.370 1453.497 Q 697.773 1453.450 695.685 1454.645 Q 693.597 1455.840 690.368 1459.096 Q 687.138 1462.352 687.290 1459.375 Q 687.442 1456.399 685.615 1455.415 Q 683.788 1454.432 681.411 1455.421 Q 679.034 1456.411 680.016 1457.417 Z"></path>
    <path id="STROKE_380B58E5-C45A-40F7-8D10-D2AFD3A3AA97" opacity="1.000" fill="#ffffff" stroke="#ffffff" stroke-width="1.000" stroke-opacity="1.000" stroke-linecap="round" stroke-linejoin="round" d="M 369.416 1481.787 Q 368.663 1481.020 368.602 1477.109 Q 368.542 1473.198 368.155 1471.325 Q 367.769 1469.452 365.198 1469.244 Q 362.628 1469.036 360.685 1470.088 Q 358.741 1471.139 357.728 1472.500 Q 356.715 1473.861 355.674 1477.348 Q 354.634 1480.835 354.308 1483.428 Q 353.982 1486.021 355.698 1486.862 Q 357.415 1487.704 360.247 1487.887 Q 363.080 1488.071 364.405 1487.415 Q 365.730 1486.759 367.949 1484.657 Q 370.168 1482.555 369.416 1481.787 Z"></path>
    <path id="STROKE_E7B3A0F1-C37A-4C19-B021-4F1BA2695961" opacity="1.000" fill="#ffffff" stroke="#ffffff" stroke-width="1.000" stroke-opacity="1.000" stroke-linecap="round" stroke-linejoin="round" d="M 420.375 1469.300 Q 419.186 1470.423 418.298 1478.176 Q 417.410 1485.928 418.614 1485.416 Q 419.817 1484.905 423.597 1484.169 Q 427.376 1483.434 428.210 1482.626 Q 429.043 1481.818 430.249 1478.827 Q 431.456 1475.836 431.523 1473.010 Q 431.590 1470.183 430.379 1469.029 Q 429.167 1467.874 427.151 1467.645 Q 425.134 1467.417 423.349 1467.797 Q 421.564 1468.177 420.375 1469.300 Z"></path>
    <path id="STROKE_2A75E79B-9CBD-4089-BDB5-EA463DBB9821" opacity="1.000" fill="#ffffff" stroke="#ffffff" stroke-width="1.000" stroke-opacity="1.000" stroke-linecap="round" stroke-linejoin="round" d="M 481.013 1474.365 Q 480.822 1473.515 478.470 1470.360 Q 476.119 1467.204 473.871 1466.916 Q 471.623 1466.629 470.179 1467.277 Q 468.734 1467.926 466.838 1469.942 Q 464.941 1471.959 463.920 1473.904 Q 462.900 1475.848 462.737 1477.422 Q 462.574 1478.996 465.360 1480.464 Q 468.145 1481.931 471.328 1482.175 Q 474.511 1482.419 476.402 1480.839 Q 478.293 1479.260 479.748 1477.237 Q 481.204 1475.215 481.013 1474.365 Z"></path>
    <path id="STROKE_2BC8646F-ACF4-41C3-B0D2-9F82719F39DA" opacity="1.000" fill="#ffffff" stroke="#ffffff" stroke-width="1.000" stroke-opacity="1.000" stroke-linecap="round" stroke-linejoin="round" d="M 653.441 1473.227 Q 654.141 1473.472 651.196 1472.760 Q 648.251 1472.048 647.186 1472.853 Q 646.120 1473.658 644.929 1475.510 Q 643.738 1477.363 642.987 1480.999 Q 642.235 1484.635 643.741 1486.203 Q 645.246 1487.772 647.756 1487.979 Q 650.267 1488.186 651.584 1487.564 Q 652.901 1486.942 654.480 1485.178 Q 656.059 1483.416 656.098 1480.471 Q 656.137 1477.526 655.398 1475.705 Q 654.659 1473.883 653.700 1473.433 Q 652.741 1472.982 653.441 1473.227 Z"></path>
    <path id="STROKE_5EE9B9F9-D9B7-41E9-8557-8FD686DFCAB1" opacity="0.333" fill="#85929c" stroke="#85929c" stroke-width="1.000" stroke-opacity="1.000" stroke-linecap="round" stroke-linejoin="round" d="M 569.182 1428.549 Q 570.682 1428.310 569.413 1426.919 Q 568.145 1425.528 565.375 1425.200 Q 562.604 1424.872 560.187 1426.096 Q 557.770 1427.321 555.659 1430.266 Q 553.548 1433.211 553.499 1434.669 Q 553.450 1436.127 554.366 1437.514 Q 555.283 1438.900 557.749 1440.189 Q 560.216 1441.478 563.458 1441.751 Q 566.701 1442.024 568.289 1441.232 Q 569.878 1440.439 570.403 1438.079 Q 570.928 1435.719 569.306 1432.253 Q 567.683 1428.787 569.182 1428.549 Z"></path>
    <path id="STROKE_4D75034F-6072-48F6-94FF-77A176ECA7CC" opacity="0.333" fill="#e85764" stroke="#e85764" stroke-width="1.000" stroke-opacity="1.000" stroke-linecap="round" stroke-linejoin="round" d="M 485.043 835.338 Q 484.113 834.331 481.106 834.106 Q 478.099 833.881 475.050 835.474 Q 472.002 837.066 470.752 838.903 Q 469.501 840.740 469.279 842.774 Q 469.057 844.808 470.633 846.521 Q 472.209 848.234 474.854 849.164 Q 477.499 850.094 480.124 849.970 Q 482.749 849.846 483.958 848.618 Q 485.167 847.389 485.570 841.867 Q 485.973 836.346 485.043 835.338 Z"></path>
    <path id="STROKE_47342B8E-0E2E-4904-9D86-D9FDC472F4DD" opacity="0.333" fill="#00b7d9" stroke="#00b7d9" stroke-width="1.000" stroke-opacity="1.000" stroke-linecap="round" stroke-linejoin="round" d="M 499.690 372.597 Q 499.716 373.208 498.958 372.317 Q 498.200 371.425 496.412 371.974 Q 494.625 372.522 491.721 376.061 Q 488.817 379.600 488.714 380.880 Q 488.611 382.161 489.728 383.007 Q 490.844 383.853 493.988 383.941 Q 497.133 384.030 499.869 382.292 Q 502.605 380.554 502.891 379.185 Q 503.177 377.816 501.420 374.901 Q 499.663 371.985 499.690 372.597 Z"></path>
  </g>
  <g id="Pen" opacity="1.000">
    <path id="STROKE_322B4212-36FC-4104-A846-7559F4EA9A0D" opacity="1.000" fill="none" stroke="#000000" stroke-width="3.001" stroke-opacity="1.000" stroke-linecap="round" stroke-linejoin="round" d="M 203.652 269.921 Q 217.040 269.857 217.973 269.724 Q 218.907 269.590 224.379 269.590 Q 229.851 269.590 232.727 269.227 Q 235.603 268.865 237.927 268.865 Q 240.252 268.865 242.941 268.597 Q 245.631 268.330 254.479 268.330 Q 263.328 268.330 267.103 268.101 Q 270.879 267.872 275.825 268.006 Q 280.771 268.139 285.505 268.139 Q 290.239 268.139 291.961 268.006 Q 293.684 267.872 298.757 267.872 Q 303.830 267.872 305.459 267.675 Q 307.088 267.477 318.991 267.446 Q 330.894 267.414 337.384 266.752 Q 343.874 266.090 347.259 265.957 Q 350.644 265.823 352.604 265.556 Q 354.564 265.289 364.668 265.225 Q 374.772 265.161 380.711 265.524 Q 386.650 265.887 392.215 265.919 L 397.781 265.950 "></path>
    <path id="STROKE_571FDDE8-6CD0-47F3-96F8-1796D300D08E" opacity="1.000" fill="none" stroke="#000000" stroke-width="3.001" stroke-opacity="1.000" stroke-linecap="round" stroke-linejoin="round" d="M 600.206 269.132 Q 615.121 267.999 626.065 267.999 Q 637.009 267.999 639.096 268.235 Q 641.183 268.470 660.340 268.438 Q 679.497 268.407 684.341 268.108 Q 689.185 267.808 701.818 267.808 Q 714.450 267.808 718.794 268.038 Q 723.138 268.267 736.101 268.267 Q 749.065 268.267 759.932 268.006 Q 770.800 267.745 778.529 267.745 Q 786.258 267.745 791.459 267.942 Q 796.659 268.139 797.652 267.872 L 798.644 267.605 "></path>
    <path id="STROKE_EFAC9440-D7FE-492C-B95A-AEDA87B06C7C" opacity="1.000" fill="none" stroke="#000000" stroke-width="3.107" stroke-opacity="1.000" stroke-linecap="round" stroke-linejoin="round" d="M 400.908 266.098 Q 413.603 257.227 423.356 251.458 Q 433.109 245.690 435.092 244.799 Q 437.076 243.909 454.131 233.783 Q 471.186 223.657 475.345 220.837 Q 479.505 218.017 490.762 211.358 Q 502.020 204.699 506.012 202.614 Q 510.003 200.528 521.556 193.695 Q 533.108 186.862 542.655 180.901 Q 552.203 174.940 559.090 170.866 Q 565.978 166.792 570.717 164.226 Q 575.455 161.661 576.199 160.900 L 576.943 160.138 "></path>
    <path id="STROKE_B35627DB-C4D5-474C-A4B1-2942FAEA149C" opacity="1.000" fill="none" stroke="#000000" stroke-width="2.091" stroke-opacity="1.000" stroke-linecap="round" stroke-linejoin="round" d="M 406.316 392.246 Q 410.557 386.669 410.745 385.487 Q 410.933 384.306 409.788 381.483 Q 408.643 378.660 405.872 376.080 Q 403.102 373.500 399.421 371.797 Q 395.740 370.094 393.383 369.738 Q 391.025 369.382 387.871 369.371 Q 384.718 369.359 381.312 370.342 Q 377.905 371.325 375.025 372.839 Q 372.144 374.353 369.034 377.072 Q 365.924 379.790 363.543 383.804 Q 361.163 387.819 361.043 389.788 Q 360.923 391.757 362.860 393.658 Q 364.798 395.559 370.674 396.692 Q 376.550 397.826 378.560 399.082 Q 380.571 400.339 383.156 403.354 Q 385.741 406.369 386.403 408.430 Q 387.066 410.491 386.992 412.620 Q 386.919 414.749 385.148 417.584 Q 383.377 420.418 381.677 421.710 Q 379.977 423.001 377.798 423.896 Q 375.619 424.790 371.377 425.788 Q 367.135 426.786 364.242 426.917 Q 361.349 427.049 359.426 425.975 Q 357.504 424.900 355.662 422.928 Q 353.820 420.957 352.139 417.087 Q 350.458 413.217 347.158 415.868 Q 343.858 418.519 341.187 421.007 Q 338.517 423.496 338.534 425.274 Q 338.551 427.052 340.966 430.992 Q 343.382 434.931 346.272 437.373 Q 349.161 439.816 352.231 441.677 Q 355.300 443.538 360.576 445.104 Q 365.852 446.671 370.764 447.014 Q 375.677 447.357 379.712 446.310 Q 383.747 445.262 389.295 441.997 Q 394.844 438.733 398.258 435.740 Q 401.671 432.748 402.976 430.903 Q 404.281 429.058 405.334 426.493 Q 406.387 423.927 406.691 421.985 Q 406.994 420.044 407.008 416.461 Q 407.021 412.877 406.199 410.700 Q 405.378 408.523 404.109 407.060 Q 402.840 405.597 399.603 404.060 Q 396.366 402.523 394.050 402.097 Q 391.734 401.670 387.733 399.993 Q 383.732 398.315 381.700 396.342 Q 379.669 394.370 378.849 391.566 Q 378.030 388.762 379.561 386.594 Q 381.093 384.425 383.345 383.047 Q 385.596 381.668 387.755 381.494 Q 389.913 381.320 392.546 382.716 Q 395.178 384.113 399.469 389.006 Q 403.761 393.899 404.623 393.209 L 405.485 392.519 "></path>
    <path id="STROKE_D1B64609-FF31-4E57-BC62-036C22B975E6" opacity="1.000" fill="none" stroke="#000000" stroke-width="1.848" stroke-opacity="1.000" stroke-linecap="round" stroke-linejoin="round" d="M 423.002 403.316 Q 422.673 402.577 420.653 410.038 Q 418.634 417.500 417.899 422.236 Q 417.164 426.973 416.912 432.480 Q 416.660 437.987 417.347 439.928 Q 418.033 441.869 420.091 443.219 Q 422.149 444.570 423.773 444.647 Q 425.396 444.724 426.946 444.152 Q 428.495 443.580 430.661 441.365 Q 432.827 439.150 434.087 436.728 Q 435.346 434.305 436.213 437.131 Q 437.080 439.958 439.185 441.397 Q 441.290 442.836 444.555 443.057 Q 447.820 443.279 450.484 442.688 Q 453.148 442.098 455.096 440.950 Q 457.045 439.801 459.281 437.889 Q 461.517 435.977 463.303 433.925 Q 465.089 431.873 466.284 429.241 Q 467.480 426.609 468.541 421.643 Q 469.603 416.677 469.942 411.543 Q 470.282 406.409 468.954 403.190 Q 467.626 399.971 465.699 400.333 Q 463.771 400.694 459.994 400.840 Q 456.218 400.986 455.220 401.378 Q 454.223 401.770 454.205 406.718 Q 454.186 411.666 453.740 413.585 Q 453.295 415.504 451.897 418.273 Q 450.500 421.042 449.222 421.869 Q 447.945 422.695 446.646 422.762 Q 445.348 422.828 444.362 420.210 Q 443.376 417.592 443.395 412.364 Q 443.415 407.136 440.004 407.679 Q 436.594 408.222 434.990 410.737 Q 433.386 413.251 432.451 416.026 Q 431.516 418.802 430.470 419.491 Q 429.424 420.181 428.855 416.987 Q 428.286 413.792 428.708 411.896 Q 429.130 409.999 430.584 406.372 Q 432.038 402.745 432.275 401.293 Q 432.511 399.840 427.590 401.671 Q 422.670 403.502 422.647 403.222 L 422.624 402.941 "></path>
    <circle id="STROKE_D9BB54CB-C922-4ABD-A4AA-2FCC1800AA48" opacity="1.000" fill="#000000" stroke="#000000" stroke-width="0.1" stroke-opacity="1.000" fill-opacity="1.000" cx="486.460" cy="404.478" r="1.048"></circle>
    <path id="STROKE_30C173E1-D7EB-4661-8056-94BF9B2C4A5B" opacity="1.000" fill="none" stroke="#000000" stroke-width="1.968" stroke-opacity="1.000" stroke-linecap="round" stroke-linejoin="round" d="M 486.606 403.509 Q 487.210 403.556 484.121 418.047 Q 481.032 432.537 479.626 435.862 Q 478.221 439.186 477.637 441.612 Q 477.053 444.037 477.885 443.484 Q 478.717 442.932 480.639 442.592 Q 482.560 442.253 487.522 442.271 Q 492.483 442.290 493.591 442.525 Q 494.698 442.760 494.580 438.021 Q 494.461 433.281 494.871 428.192 Q 495.282 423.103 496.132 419.247 Q 496.982 415.392 497.780 412.874 Q 498.578 410.356 499.517 406.496 Q 500.456 402.636 500.556 401.272 Q 500.656 399.907 495.397 400.164 Q 490.138 400.420 489.206 400.856 L 488.274 401.293 "></path>
    <path id="STROKE_F1B10218-6BBE-4929-BFC6-C258BCDB9C49" opacity="1.000" fill="none" stroke="#000000" stroke-width="2.096" stroke-opacity="1.000" stroke-linecap="round" stroke-linejoin="round" d="M 515.706 401.626 Q 511.349 412.618 514.759 412.124 Q 518.170 411.630 520.784 411.639 Q 523.398 411.649 525.510 411.057 Q 527.623 410.465 524.807 419.888 Q 521.992 429.311 521.220 431.251 Q 520.448 433.191 518.898 438.898 Q 517.347 444.605 520.891 444.712 Q 524.436 444.818 526.962 444.619 Q 529.488 444.419 530.621 437.671 Q 531.755 430.922 532.837 426.787 Q 533.920 422.652 534.699 418.747 Q 535.478 414.842 536.480 413.179 Q 537.483 411.515 541.792 411.602 Q 546.101 411.690 549.345 411.146 Q 552.590 410.602 554.044 405.357 Q 555.498 400.112 547.420 399.642 Q 539.343 399.172 542.942 389.356 Q 546.541 379.539 548.108 375.824 Q 549.675 372.109 551.799 368.463 Q 553.922 364.816 550.076 364.753 Q 546.229 364.689 543.606 365.444 Q 540.983 366.199 540.402 367.909 Q 539.820 369.618 538.428 375.744 Q 537.036 381.869 534.808 389.583 Q 532.580 397.297 531.698 398.614 Q 530.816 399.931 525.436 400.880 Q 520.056 401.829 518.782 401.731 L 517.508 401.633 "></path>
    <path id="STROKE_8BA14285-AC6F-4ED6-8902-614066E1FF99" opacity="1.000" fill="none" stroke="#000000" stroke-width="2.096" stroke-opacity="1.000" stroke-linecap="round" stroke-linejoin="round" d="M 588.845 416.375 Q 588.516 415.778 590.570 411.807 Q 592.624 407.836 592.578 407.328 Q 592.533 406.822 589.992 404.682 Q 587.451 402.543 584.865 401.333 Q 582.279 400.124 579.245 399.832 Q 576.211 399.541 573.844 400.225 Q 571.476 400.910 568.760 402.892 Q 566.043 404.873 564.250 407.223 Q 562.457 409.572 560.316 413.125 Q 558.175 416.678 556.653 420.861 Q 555.132 425.043 554.659 427.931 Q 554.186 430.819 554.176 433.384 Q 554.167 435.949 554.950 437.295 Q 555.733 438.640 558.592 441.287 Q 561.452 443.934 564.689 445.333 Q 567.926 446.733 572.187 446.886 Q 576.449 447.040 579.583 445.896 Q 582.717 444.752 584.690 443.421 Q 586.663 442.090 588.201 439.828 Q 589.739 437.567 586.991 435.080 Q 584.244 432.594 579.749 433.204 Q 575.253 433.814 572.383 432.692 Q 569.512 431.570 567.903 429.158 Q 566.293 426.747 566.280 424.017 Q 566.266 421.288 567.311 419.420 Q 568.355 417.552 570.544 415.502 Q 572.733 413.452 574.799 412.673 Q 576.865 411.893 579.176 411.902 Q 581.488 411.911 584.150 413.472 Q 586.811 415.034 587.802 416.309 L 588.794 417.584 "></path>
    <path id="STROKE_4C27D493-4BA1-4DED-80C6-33B3AE78C51B" opacity="1.000" fill="none" stroke="#000000" stroke-width="1.872" stroke-opacity="1.000" stroke-linecap="round" stroke-linejoin="round" d="M 611.361 364.933 Q 609.990 373.490 606.819 390.661 Q 603.649 407.832 600.518 420.958 Q 597.386 434.083 596.794 438.705 Q 596.202 443.326 595.171 446.283 Q 594.141 449.240 595.952 448.438 Q 597.763 447.635 599.452 447.642 Q 601.141 447.648 603.367 446.754 Q 605.594 445.860 605.728 440.009 Q 605.863 434.159 607.837 427.783 Q 609.811 421.406 611.554 419.679 Q 613.297 417.951 616.447 417.363 Q 619.597 416.774 620.959 418.767 Q 622.321 420.759 622.447 423.467 Q 622.573 426.175 621.116 432.065 Q 619.660 437.954 619.061 442.878 Q 618.461 447.802 621.195 447.443 Q 623.929 447.084 627.892 447.886 Q 631.855 448.687 632.395 445.173 Q 632.936 441.658 634.591 433.480 Q 636.245 425.301 636.744 422.084 Q 637.242 418.868 637.237 413.782 Q 637.232 408.696 635.833 405.521 Q 634.434 402.346 632.631 401.045 Q 630.828 399.745 627.213 399.456 Q 623.599 399.166 620.395 401.351 Q 617.192 403.535 616.714 401.568 Q 616.235 399.601 616.873 396.874 Q 617.512 394.147 618.935 384.438 Q 620.359 374.729 620.511 370.289 Q 620.664 365.848 619.096 365.264 Q 617.527 364.680 615.025 364.835 L 612.523 364.990 "></path>
    <path id="STROKE_90547EF0-35AE-4D56-BCC4-F43DE7419348" opacity="1.000" fill="none" stroke="#000000" stroke-width="3.001" stroke-opacity="1.000" stroke-linecap="round" stroke-linejoin="round" d="M 299.023 668.540 Q 300.024 690.849 299.786 705.515 Q 299.549 720.182 300.049 724.680 Q 300.550 729.179 300.321 738.087 Q 300.092 746.995 304.826 746.168 Q 309.560 745.341 322.693 745.538 Q 335.826 745.735 354.720 744.507 Q 373.613 743.279 384.456 743.247 Q 395.298 743.216 401.160 743.744 Q 407.023 744.272 425.959 744.240 Q 444.895 744.208 463.390 744.507 Q 481.885 744.806 485.864 744.475 Q 489.842 744.145 506.055 744.043 Q 522.268 743.941 557.866 744.176 Q 593.465 744.412 607.556 744.208 Q 621.648 744.005 637.199 744.043 Q 652.750 744.081 668.030 743.419 Q 683.309 742.758 691.437 743.018 Q 699.564 743.279 699.921 724.878 Q 700.277 706.476 700.642 698.166 Q 701.006 689.856 700.777 678.638 Q 700.548 667.421 695.942 667.484 Q 691.335 667.548 683.674 666.390 Q 676.013 665.232 664.611 665.035 Q 653.208 664.837 642.697 665.932 Q 632.185 667.026 611.272 667.720 Q 590.360 668.413 569.438 668.012 Q 548.517 667.611 529.920 668.076 Q 511.324 668.540 494.619 669.202 Q 477.914 669.864 469.990 670.526 Q 462.066 671.187 447.576 670.793 Q 433.085 670.398 401.059 670.201 Q 369.032 670.004 349.443 669.469 Q 329.853 668.935 319.079 669.234 Q 308.304 669.533 304.758 669.068 Q 301.212 668.604 299.922 669.501 L 298.633 670.398 "></path>
    <path id="STROKE_E4A44B52-5A5B-4798-8369-B2A1B87D296E" opacity="1.000" fill="none" stroke="#000000" stroke-width="1.935" stroke-opacity="1.000" stroke-linecap="round" stroke-linejoin="round" d="M 325.953 832.207 Q 314.157 868.309 311.772 874.531 Q 309.386 880.753 306.330 888.007 Q 303.274 895.260 300.593 902.545 Q 297.911 909.830 297.242 912.865 Q 296.574 915.901 298.446 914.956 Q 300.319 914.011 305.356 913.994 Q 310.393 913.978 314.349 912.775 Q 318.305 911.573 318.533 908.460 Q 318.761 905.347 319.776 901.136 Q 320.790 896.925 321.783 890.402 Q 322.775 883.878 324.077 883.702 Q 325.379 883.526 326.042 891.792 Q 326.705 900.057 328.239 906.750 Q 329.772 913.442 331.717 912.566 Q 333.662 911.690 336.335 911.629 Q 339.008 911.568 346.610 912.007 Q 354.211 912.446 356.978 912.146 Q 359.745 911.846 358.552 908.762 Q 357.359 905.679 355.733 902.853 Q 354.108 900.028 350.686 895.722 Q 347.263 891.417 344.928 886.647 Q 342.593 881.878 340.047 877.605 Q 337.501 873.331 338.056 871.827 Q 338.611 870.324 343.827 864.577 Q 349.043 858.831 352.244 853.702 Q 355.446 848.572 355.948 843.721 Q 356.449 838.870 354.967 836.232 Q 353.485 833.594 350.197 831.861 Q 346.909 830.128 345.166 829.705 Q 343.423 829.282 339.185 829.824 Q 334.946 830.367 330.249 832.486 Q 325.551 834.606 326.944 834.431 L 328.336 834.256 "></path>
    <path id="STROKE_9A957D81-83B5-484B-B1CB-C9DF2BD7B814" opacity="1.000" fill="none" stroke="#000000" stroke-width="2.265" stroke-opacity="1.000" stroke-linecap="round" stroke-linejoin="round" d="M 336.889 846.950 Q 334.994 847.681 334.444 848.197 Q 333.894 848.712 333.339 849.717 Q 332.784 850.722 332.624 852.584 Q 332.464 854.446 333.050 854.997 Q 333.637 855.548 334.718 855.632 Q 335.799 855.717 336.445 855.253 Q 337.092 854.788 337.623 853.778 Q 338.154 852.768 338.310 851.283 Q 338.466 849.797 337.818 848.729 Q 337.171 847.660 336.679 847.374 L 336.186 847.087 "></path>
    <path id="STROKE_0C9944E3-2110-4338-9BE6-051CC6B74C54" opacity="1.000" fill="none" stroke="#000000" stroke-width="2.265" stroke-opacity="1.000" stroke-linecap="round" stroke-linejoin="round" d="M 379.119 882.522 Q 387.578 881.964 394.571 882.228 Q 401.564 882.492 402.768 882.410 Q 403.972 882.328 404.529 881.206 Q 405.086 880.083 404.907 877.156 Q 404.728 874.229 403.625 871.241 Q 402.522 868.254 401.482 866.614 Q 400.442 864.975 398.001 863.156 Q 395.561 861.338 390.917 860.270 Q 386.273 859.202 382.466 859.513 Q 378.659 859.824 376.479 860.743 Q 374.298 861.662 373.126 862.642 Q 371.954 863.622 370.108 865.887 Q 368.263 868.152 367.516 869.513 Q 366.769 870.874 365.888 873.957 Q 365.007 877.040 364.548 879.724 Q 364.089 882.408 364.057 885.215 Q 364.026 888.022 365.346 892.730 Q 366.666 897.439 368.622 899.864 Q 370.578 902.289 372.852 903.897 Q 375.125 905.506 378.277 906.956 Q 381.430 908.406 384.993 908.727 Q 388.557 909.048 390.690 908.627 Q 392.823 908.207 396.360 906.664 Q 399.896 905.121 401.561 903.842 Q 403.226 902.564 404.572 900.642 Q 405.917 898.721 402.963 896.852 Q 400.009 894.982 399.466 894.903 Q 398.923 894.825 396.665 896.096 Q 394.408 897.368 390.386 897.491 Q 386.363 897.614 384.883 897.007 Q 383.402 896.401 381.581 894.327 Q 379.760 892.252 378.763 888.985 Q 377.765 885.718 377.850 884.113 L 377.934 882.509 "></path>
    <path id="STROKE_255B3267-8594-4F3A-8EB8-FC607F46B03F" opacity="1.000" fill="none" stroke="#000000" stroke-width="2.265" stroke-opacity="1.000" stroke-linecap="round" stroke-linejoin="round" d="M 381.400 873.206 Q 381.083 871.270 381.635 870.569 Q 382.187 869.868 383.161 869.334 Q 384.134 868.801 385.412 868.607 Q 386.690 868.413 388.358 869.610 Q 390.025 870.808 390.555 872.061 Q 391.085 873.314 391.029 874.021 Q 390.973 874.728 389.318 874.546 Q 387.663 874.364 385.396 874.339 Q 383.129 874.313 382.068 873.993 L 381.008 873.673 "></path>
    <path id="STROKE_1BCA8283-90FA-484A-937B-46DCA93D32C9" opacity="1.000" fill="none" stroke="#000000" stroke-width="2.265" stroke-opacity="1.000" stroke-linecap="round" stroke-linejoin="round" d="M 451.211 875.592 Q 455.234 870.494 455.448 868.633 Q 455.663 866.772 454.846 865.724 Q 454.029 864.676 451.801 863.377 Q 449.572 862.078 446.159 860.743 Q 442.745 859.408 436.557 859.130 Q 430.368 858.852 427.075 859.731 Q 423.782 860.610 421.498 862.122 Q 419.213 863.634 418.273 864.966 Q 417.333 866.297 417.199 868.042 Q 417.064 869.786 419.242 873.516 Q 421.419 877.245 422.425 878.127 Q 423.431 879.009 427.574 880.565 Q 431.716 882.122 433.054 883.080 Q 434.391 884.038 436.176 887.196 Q 437.961 890.354 438.034 891.961 Q 438.106 893.567 436.238 894.063 Q 434.371 894.559 431.722 894.529 Q 429.074 894.500 427.446 894.128 Q 425.818 893.756 424.017 892.012 Q 422.217 890.269 417.868 892.533 Q 413.519 894.797 413.826 897.136 Q 414.132 899.475 415.566 902.112 Q 417.000 904.750 417.747 905.488 Q 418.495 906.227 421.081 907.507 Q 423.666 908.788 426.280 909.710 Q 428.894 910.633 434.912 911.009 Q 440.930 911.384 443.973 910.167 Q 447.016 908.949 449.846 906.813 Q 452.675 904.677 453.595 902.941 Q 454.516 901.206 454.691 897.974 Q 454.866 894.743 454.254 892.709 Q 453.642 890.675 451.619 887.727 Q 449.596 884.780 447.347 883.172 Q 445.097 881.564 442.250 880.398 Q 439.403 879.233 437.623 877.893 Q 435.842 876.554 434.888 875.341 Q 433.934 874.129 433.777 873.039 Q 433.620 871.949 435.574 870.769 Q 437.528 869.589 439.700 869.495 Q 441.872 869.402 445.779 873.033 L 449.687 876.663 "></path>
    <path id="STROKE_8A351E45-B5B5-438C-8AEE-C7FC3F86744C" opacity="1.000" fill="none" stroke="#000000" stroke-width="2.258" stroke-opacity="1.000" stroke-linecap="round" stroke-linejoin="round" d="M 471.729 866.198 Q 470.006 880.754 468.385 888.405 Q 466.763 896.055 466.333 898.857 Q 465.902 901.660 464.842 905.611 Q 463.782 909.563 467.233 909.225 Q 470.683 908.887 473.729 909.017 Q 476.775 909.146 478.461 908.643 Q 480.148 908.141 480.228 900.949 Q 480.309 893.758 480.519 887.434 Q 480.728 881.110 481.428 875.885 Q 482.127 870.659 483.447 864.588 Q 484.766 858.517 483.647 859.162 Q 482.527 859.807 479.449 860.385 Q 476.371 860.963 474.279 862.005 L 472.187 863.047 "></path>
    <path id="STROKE_7BEFEC2B-758F-4C8A-A64B-CFDBA54CFA1C" opacity="1.000" fill="none" stroke="#000000" stroke-width="2.265" stroke-opacity="1.000" stroke-linecap="round" stroke-linejoin="round" d="M 534.440 874.029 Q 538.109 867.132 538.189 866.470 Q 538.269 865.809 534.260 863.148 Q 530.250 860.486 528.206 859.447 Q 526.162 858.409 523.074 857.739 Q 519.985 857.070 515.192 856.898 Q 510.399 856.727 508.028 857.358 Q 505.657 857.989 502.282 859.720 Q 498.906 861.451 497.514 863.254 Q 496.121 865.057 495.745 867.365 Q 495.368 869.674 495.968 870.646 Q 496.568 871.619 500.599 874.426 Q 504.631 877.233 508.582 879.231 Q 512.532 881.230 514.126 882.454 Q 515.721 883.678 518.901 888.621 Q 522.080 893.563 522.138 894.861 Q 522.196 896.158 520.861 897.132 Q 519.526 898.105 517.489 898.650 Q 515.451 899.194 513.298 899.242 Q 511.145 899.291 508.986 898.205 Q 506.828 897.120 504.926 895.729 Q 503.025 894.338 500.433 895.770 Q 497.841 897.201 496.366 898.318 Q 494.890 899.435 494.504 900.397 Q 494.119 901.359 495.042 903.165 Q 495.965 904.971 497.017 906.044 Q 498.069 907.117 500.953 908.800 Q 503.836 910.483 505.180 910.897 Q 506.524 911.311 512.495 912.062 Q 518.467 912.814 520.401 912.836 Q 522.336 912.857 526.124 912.074 Q 529.912 911.291 532.439 909.152 Q 534.966 907.012 536.347 904.103 Q 537.728 901.193 537.975 898.058 Q 538.221 894.923 537.102 891.795 Q 535.982 888.667 533.603 885.642 Q 531.224 882.618 529.912 881.542 Q 528.600 880.467 522.888 878.140 Q 517.176 875.813 515.957 874.997 Q 514.739 874.180 514.561 872.836 Q 514.382 871.492 515.320 870.368 Q 516.257 869.245 517.943 868.298 Q 519.628 867.351 521.832 867.140 Q 524.035 866.929 524.833 867.500 Q 525.631 868.071 528.286 871.194 Q 530.942 874.316 531.998 875.081 L 533.053 875.845 "></path>
    <path id="STROKE_E50F2575-F278-4AF8-89D8-16DFA54EC8C2" opacity="1.000" fill="none" stroke="#000000" stroke-width="2.265" stroke-opacity="1.000" stroke-linecap="round" stroke-linejoin="round" d="M 553.535 861.073 Q 552.744 860.457 551.848 864.288 Q 550.953 868.119 550.832 870.290 Q 550.711 872.460 553.546 872.492 Q 556.382 872.524 560.173 871.977 Q 563.964 871.430 565.255 871.725 Q 566.545 872.021 565.725 875.621 Q 564.905 879.222 563.892 885.442 Q 562.879 891.661 561.425 897.350 Q 559.971 903.038 558.548 907.485 Q 557.126 911.931 562.392 911.963 Q 567.658 911.995 568.328 911.558 Q 568.998 911.121 569.657 906.856 Q 570.315 902.592 572.401 891.813 Q 574.487 881.034 574.573 879.262 Q 574.659 877.490 575.617 874.553 Q 576.575 871.616 579.693 871.769 Q 582.812 871.922 584.847 871.568 Q 586.883 871.214 590.280 871.348 Q 593.676 871.481 594.103 865.209 Q 594.530 858.938 591.934 858.555 Q 589.339 858.172 583.194 858.317 Q 577.049 858.461 578.073 851.230 Q 579.097 844.000 581.129 835.859 Q 583.161 827.719 584.573 824.243 Q 585.984 820.767 580.455 822.642 Q 574.925 824.516 572.678 835.153 Q 570.431 845.789 569.588 851.394 Q 568.745 856.999 567.621 858.542 Q 566.498 860.084 563.475 860.051 Q 560.452 860.017 557.137 860.642 L 553.823 861.267 "></path>
    <path id="STROKE_F38C18FF-07E9-4783-8A0C-8F679D28272B" opacity="1.000" fill="none" stroke="#000000" stroke-width="2.265" stroke-opacity="1.000" stroke-linecap="round" stroke-linejoin="round" d="M 634.495 864.573 Q 629.318 862.492 627.474 862.494 Q 625.630 862.496 622.975 863.079 Q 620.320 863.661 616.232 865.906 Q 612.143 868.150 609.896 870.646 Q 607.649 873.143 605.916 876.166 Q 604.183 879.190 602.724 882.643 Q 601.264 886.095 600.662 889.109 Q 600.060 892.122 599.953 895.776 Q 599.845 899.430 601.104 903.149 Q 602.362 906.868 606.252 909.388 Q 610.142 911.908 611.981 912.377 Q 613.820 912.847 616.751 912.975 Q 619.682 913.103 624.088 911.642 Q 628.494 910.181 630.589 908.930 Q 632.682 907.679 635.022 905.533 Q 637.362 903.387 639.474 900.581 Q 641.585 897.775 642.551 895.731 Q 643.517 893.688 644.049 890.465 Q 644.581 887.242 644.503 883.963 Q 644.424 880.683 643.512 877.888 Q 642.600 875.094 641.253 872.861 Q 639.905 870.628 637.756 868.174 Q 635.607 865.719 634.067 864.427 L 632.528 863.136 "></path>
    <path id="STROKE_2325A73D-DCA1-4E68-9159-C802A484E5D3" opacity="1.000" fill="none" stroke="#000000" stroke-width="2.265" stroke-opacity="1.000" stroke-linecap="round" stroke-linejoin="round" d="M 627.069 877.659 Q 623.184 877.942 621.357 879.078 Q 619.530 880.214 617.780 882.058 Q 616.030 883.902 615.429 885.238 Q 614.827 886.574 614.630 889.075 Q 614.433 891.576 615.239 893.567 Q 616.045 895.557 616.747 896.082 Q 617.448 896.607 619.289 896.913 Q 621.130 897.220 623.175 895.991 Q 625.220 894.762 626.396 893.428 Q 627.572 892.095 628.056 890.993 Q 628.540 889.892 628.843 886.028 Q 629.147 882.163 628.643 880.692 Q 628.139 879.222 627.109 878.317 L 626.080 877.412 "></path>
    <path id="STROKE_4D64AEB3-7155-46EB-9F80-69BA77D6C5E6" opacity="1.000" fill="none" stroke="#000000" stroke-width="2.153" stroke-opacity="1.000" stroke-linecap="round" stroke-linejoin="round" d="M 654.763 864.564 Q 654.204 863.714 653.956 866.967 Q 653.708 870.220 652.599 878.557 Q 651.490 886.893 650.216 893.178 Q 648.943 899.463 648.074 903.085 Q 647.205 906.708 646.725 909.650 Q 646.244 912.593 651.904 911.500 Q 657.564 910.406 658.252 909.970 Q 658.940 909.533 658.913 903.302 Q 658.886 897.071 659.312 893.066 Q 659.737 889.062 660.186 886.755 Q 660.635 884.447 661.530 882.806 Q 662.426 881.165 664.668 879.114 Q 666.910 877.062 668.974 876.309 Q 671.038 875.557 673.167 875.554 Q 675.295 875.550 677.215 876.869 Q 679.135 878.187 679.672 880.977 Q 680.210 883.768 685.440 882.697 Q 690.670 881.626 690.873 880.776 Q 691.076 879.926 690.423 876.690 Q 689.770 873.454 688.853 871.058 Q 687.937 868.662 685.773 865.881 Q 683.609 863.100 680.816 861.486 Q 678.022 859.872 676.058 859.732 Q 674.095 859.592 672.888 859.955 Q 671.680 860.318 667.870 863.132 Q 664.059 865.946 663.930 862.358 Q 663.801 858.769 658.904 859.798 Q 654.007 860.828 654.141 861.278 L 654.275 861.728 "></path>
    <path id="STROKE_0FA20BFD-FAC1-451E-BF0D-3FFB4AB06F2E" opacity="1.000" fill="none" stroke="#000000" stroke-width="2.932" stroke-opacity="1.000" stroke-linecap="round" stroke-linejoin="round" d="M 301.288 1170.406 Q 325.733 1171.092 331.585 1171.108 Q 337.436 1171.124 342.532 1170.775 Q 347.628 1170.426 356.405 1170.513 Q 365.182 1170.601 368.457 1170.854 Q 371.732 1171.108 382.902 1171.219 Q 394.072 1171.331 399.837 1170.946 Q 405.602 1170.561 416.947 1170.104 Q 428.293 1169.647 457.810 1169.984 Q 487.328 1170.321 500.794 1170.982 Q 514.261 1171.644 521.518 1171.810 Q 528.774 1171.975 542.609 1172.113 Q 556.444 1172.251 562.606 1171.870 Q 568.768 1171.489 608.026 1171.923 Q 647.285 1172.357 656.066 1172.002 Q 664.848 1171.647 672.782 1170.978 Q 680.716 1170.308 684.710 1170.127 L 688.704 1169.945 "></path>
    <path id="STROKE_F8786DC3-0300-4B4B-AFDB-17B88520FF29" opacity="1.000" fill="none" stroke="#000000" stroke-width="2.932" stroke-opacity="1.000" stroke-linecap="round" stroke-linejoin="round" d="M 494.940 1171.196 Q 495.288 1154.477 494.698 1151.103 Q 494.108 1147.729 494.167 1141.843 Q 494.225 1135.958 494.502 1134.413 Q 494.778 1132.867 494.807 1125.348 Q 494.837 1117.830 495.464 1112.971 Q 496.091 1108.111 496.125 1104.616 Q 496.160 1101.120 495.537 1097.618 Q 494.914 1094.116 495.124 1090.180 Q 495.333 1086.244 495.390 1080.495 Q 495.448 1074.745 495.983 1074.479 L 496.519 1074.212 "></path>
    <path id="STROKE_C7193577-4886-43DB-8839-97004FF6FC60" opacity="1.000" fill="none" stroke="#000000" stroke-width="2.986" stroke-opacity="1.000" stroke-linecap="round" stroke-linejoin="round" d="M 687.981 1266.455 Q 663.082 1265.860 657.122 1265.869 Q 651.162 1265.878 645.973 1266.255 Q 640.785 1266.632 631.845 1266.580 Q 622.905 1266.528 619.569 1266.284 Q 616.232 1266.039 604.855 1265.973 Q 593.479 1265.907 587.608 1266.324 Q 581.738 1266.740 570.185 1267.254 Q 558.631 1267.768 528.567 1267.550 Q 498.502 1267.333 484.784 1266.716 Q 471.066 1266.100 463.674 1265.962 Q 456.282 1265.824 442.191 1265.742 Q 428.100 1265.661 421.826 1266.075 Q 415.552 1266.489 375.566 1266.214 Q 335.579 1265.939 326.637 1266.338 Q 317.695 1266.737 309.617 1267.452 Q 301.539 1268.168 297.472 1268.369 L 293.405 1268.571 "></path>
    <path id="STROKE_ABF6583C-F19C-4AAB-847F-6688D2C9518F" opacity="1.000" fill="none" stroke="#000000" stroke-width="2.986" stroke-opacity="1.000" stroke-linecap="round" stroke-linejoin="round" d="M 490.745 1266.474 Q 490.462 1283.503 491.077 1286.937 Q 491.693 1290.371 491.658 1296.366 Q 491.623 1302.360 491.349 1303.935 Q 491.074 1305.510 491.076 1313.168 Q 491.078 1320.826 490.460 1325.778 Q 489.842 1330.729 489.821 1334.290 Q 489.801 1337.850 490.450 1341.414 Q 491.099 1344.978 490.903 1348.988 Q 490.707 1352.998 490.673 1358.854 Q 490.639 1364.710 490.094 1364.984 L 489.550 1365.258 "></path>
    <path id="STROKE_EC23BA33-963C-4F16-BF77-8C236B696428" opacity="1.000" fill="none" stroke="#000000" stroke-width="1.351" stroke-opacity="1.000" stroke-linecap="round" stroke-linejoin="round" d="M 324.302 1448.515 Q 327.844 1445.334 330.728 1441.392 Q 333.612 1437.450 332.816 1435.919 Q 332.021 1434.388 329.543 1432.452 Q 327.066 1430.517 324.467 1429.620 Q 321.868 1428.724 318.262 1428.612 Q 314.656 1428.501 310.990 1429.468 Q 307.325 1430.434 304.253 1431.897 Q 301.181 1433.360 297.468 1436.204 Q 293.755 1439.047 292.317 1440.664 Q 290.880 1442.280 289.031 1445.105 Q 287.181 1447.931 285.109 1452.168 Q 283.037 1456.405 282.002 1459.310 Q 280.966 1462.214 279.257 1469.459 Q 277.547 1476.704 277.455 1478.911 Q 277.364 1481.119 277.653 1482.384 Q 277.942 1483.649 279.756 1486.923 Q 281.571 1490.196 283.799 1492.566 Q 286.027 1494.936 288.466 1496.425 Q 290.904 1497.914 293.503 1498.811 Q 296.102 1499.707 301.026 1500.392 Q 305.949 1501.078 308.316 1501.151 Q 310.682 1501.225 313.840 1500.099 Q 316.998 1498.972 321.152 1496.220 Q 325.305 1493.467 329.136 1489.895 Q 332.966 1486.322 332.924 1486.054 Q 332.882 1485.786 329.919 1484.179 Q 326.956 1482.573 325.270 1481.115 Q 323.585 1479.657 322.831 1479.736 Q 322.076 1479.815 319.844 1481.132 Q 317.613 1482.449 314.315 1482.584 Q 311.017 1482.719 307.751 1482.145 Q 304.485 1481.571 301.119 1480.044 Q 297.752 1478.517 297.052 1477.934 Q 296.352 1477.352 294.966 1475.103 Q 293.580 1472.855 293.002 1471.123 Q 292.425 1469.391 292.346 1467.202 Q 292.267 1465.014 293.627 1460.678 Q 294.987 1456.342 296.452 1454.353 Q 297.917 1452.363 299.259 1451.472 Q 300.602 1450.581 302.960 1449.575 Q 305.318 1448.570 309.799 1447.635 Q 314.279 1446.701 316.908 1447.088 Q 319.536 1447.475 321.729 1449.097 L 323.922 1450.719 "></path>
    <path id="STROKE_B1FF2C4A-E64C-4E56-88A3-0A490D1B6A2B" opacity="1.000" fill="none" stroke="#000000" stroke-width="1.693" stroke-opacity="1.000" stroke-linecap="round" stroke-linejoin="round" d="M 374.456 1461.411 Q 374.471 1460.264 372.485 1458.428 Q 370.499 1456.593 368.664 1456.190 Q 366.828 1455.788 363.665 1456.014 Q 360.502 1456.240 357.643 1457.901 Q 354.784 1459.562 352.607 1461.853 Q 350.430 1464.143 348.328 1467.653 Q 346.226 1471.164 344.866 1475.053 Q 343.507 1478.943 343.222 1482.036 Q 342.938 1485.129 344.040 1489.140 Q 345.142 1493.151 346.561 1494.631 Q 347.980 1496.111 350.947 1497.429 Q 353.915 1498.747 357.649 1498.974 Q 361.384 1499.202 362.566 1498.908 Q 363.748 1498.613 366.416 1497.281 Q 369.084 1495.948 370.832 1494.421 Q 372.579 1492.894 373.680 1490.169 Q 374.780 1487.444 374.191 1490.065 Q 373.601 1492.687 373.459 1495.314 Q 373.317 1497.941 373.576 1498.412 Q 373.836 1498.882 378.750 1498.591 Q 383.664 1498.299 384.214 1496.960 Q 384.764 1495.620 385.239 1484.579 Q 385.713 1473.537 386.391 1469.392 Q 387.069 1465.247 387.213 1459.438 Q 387.358 1453.630 382.034 1454.511 Q 376.710 1455.392 375.964 1456.576 Q 375.218 1457.759 374.612 1459.892 L 374.006 1462.025 "></path>
    <path id="STROKE_B5BEDDD1-EE28-4D3A-AF85-360C259DBF46" opacity="1.000" fill="none" stroke="#000000" stroke-width="1.742" stroke-opacity="1.000" stroke-linecap="round" stroke-linejoin="round" d="M 369.907 1473.991 Q 368.948 1479.636 368.904 1481.250 Q 368.861 1482.863 368.339 1483.761 Q 367.817 1484.659 365.239 1485.619 Q 362.661 1486.578 359.848 1486.894 Q 357.035 1487.209 356.068 1486.670 Q 355.101 1486.130 354.208 1485.120 Q 353.315 1484.110 353.000 1482.671 Q 352.685 1481.231 352.706 1479.642 Q 352.727 1478.054 353.038 1476.402 Q 353.348 1474.749 354.837 1472.645 Q 356.326 1470.541 357.932 1469.479 Q 359.537 1468.417 362.003 1467.834 Q 364.468 1467.251 365.045 1467.301 Q 365.622 1467.351 366.601 1468.269 Q 367.580 1469.186 368.446 1470.969 L 369.311 1472.751 "></path>
    <path id="STROKE_63710253-BBDF-4602-A4BD-726532D8D7C9" opacity="1.000" fill="none" stroke="#000000" stroke-width="1.650" stroke-opacity="1.000" stroke-linecap="round" stroke-linejoin="round" d="M 402.875 1457.989 Q 402.069 1468.410 400.556 1477.425 Q 399.044 1486.439 397.932 1490.489 Q 396.819 1494.539 395.202 1499.449 Q 393.586 1504.359 392.537 1508.275 Q 391.489 1512.190 390.268 1515.865 Q 389.047 1519.540 388.058 1524.101 Q 387.069 1528.662 386.165 1531.921 Q 385.261 1535.180 383.126 1540.720 Q 380.992 1546.260 384.101 1545.439 Q 387.209 1544.618 390.332 1544.417 Q 393.456 1544.216 394.646 1544.538 Q 395.837 1544.859 399.094 1544.839 Q 402.350 1544.818 402.243 1540.926 Q 402.136 1537.034 403.272 1526.511 Q 404.408 1515.988 405.321 1510.720 Q 406.235 1505.453 407.374 1502.792 Q 408.514 1500.131 408.982 1499.852 Q 409.450 1499.574 413.895 1499.633 Q 418.340 1499.691 424.563 1498.007 Q 430.787 1496.322 433.811 1495.079 Q 436.834 1493.836 439.070 1492.184 Q 441.307 1490.531 442.851 1487.638 Q 444.396 1484.745 445.134 1480.753 Q 445.872 1476.762 445.656 1472.962 Q 445.440 1469.162 444.436 1466.252 Q 443.433 1463.342 440.665 1460.255 Q 437.896 1457.169 436.253 1455.954 Q 434.610 1454.739 432.209 1453.870 Q 429.808 1453.001 426.931 1452.964 Q 424.055 1452.925 421.255 1453.904 Q 418.456 1454.882 415.850 1457.498 Q 413.245 1460.114 413.261 1457.175 Q 413.277 1454.236 409.339 1454.362 Q 405.402 1454.488 404.460 1455.491 L 403.518 1456.494 "></path>
    <path id="STROKE_E43690B9-CF2E-4E5D-BD91-0798C6DBBEC2" opacity="1.000" fill="none" stroke="#000000" stroke-width="1.742" stroke-opacity="1.000" stroke-linecap="round" stroke-linejoin="round" d="M 418.708 1471.807 Q 418.914 1473.356 418.102 1476.110 Q 417.290 1478.865 416.813 1481.488 Q 416.337 1484.111 417.245 1483.944 Q 418.153 1483.778 420.854 1483.813 Q 423.555 1483.849 424.847 1483.357 Q 426.140 1482.864 427.591 1481.889 Q 429.042 1480.915 430.282 1479.253 Q 431.521 1477.592 431.730 1476.843 Q 431.938 1476.094 431.972 1473.533 Q 432.005 1470.972 431.010 1469.145 Q 430.015 1467.318 428.697 1466.749 Q 427.379 1466.179 425.455 1466.065 Q 423.531 1465.950 420.943 1467.241 Q 418.355 1468.532 418.373 1468.889 L 418.391 1469.246 "></path>
    <path id="STROKE_F25BF821-7A2F-4664-B7F3-FBB2398C6B5D" opacity="1.000" fill="none" stroke="#000000" stroke-width="1.729" stroke-opacity="1.000" stroke-linecap="round" stroke-linejoin="round" d="M 487.930 1455.180 Q 487.647 1463.705 487.006 1463.386 Q 486.365 1463.068 483.966 1460.717 Q 481.568 1458.366 479.347 1457.143 Q 477.126 1455.920 474.349 1455.179 Q 471.573 1454.437 469.358 1454.497 Q 467.142 1454.557 464.979 1455.828 Q 462.816 1457.099 461.512 1458.496 Q 460.208 1459.893 458.873 1462.331 Q 457.538 1464.768 456.887 1466.947 Q 456.235 1469.126 454.869 1475.602 Q 453.504 1482.079 453.478 1484.066 Q 453.451 1486.054 454.606 1489.097 Q 455.761 1492.141 456.520 1492.992 Q 457.279 1493.843 459.212 1494.973 Q 461.145 1496.103 462.981 1496.501 Q 464.816 1496.899 466.803 1496.925 Q 468.791 1496.952 471.434 1496.235 Q 474.077 1495.518 477.471 1493.222 Q 480.865 1490.927 482.156 1488.846 Q 483.446 1486.764 484.041 1486.747 Q 484.636 1486.729 484.671 1490.952 Q 484.706 1495.174 485.998 1496.385 Q 487.290 1497.595 489.697 1497.627 Q 492.103 1497.659 494.923 1497.233 Q 497.744 1496.808 497.948 1492.941 Q 498.152 1489.074 497.996 1484.192 Q 497.839 1479.309 497.825 1471.795 Q 497.811 1464.281 497.186 1459.724 Q 496.561 1455.166 496.259 1454.874 Q 495.957 1454.581 492.723 1454.648 L 489.488 1454.716 "></path>
    <path id="STROKE_587DDC95-758E-418A-89C4-BFB01255F746" opacity="1.000" fill="none" stroke="#000000" stroke-width="1.742" stroke-opacity="1.000" stroke-linecap="round" stroke-linejoin="round" d="M 481.838 1471.316 Q 481.216 1478.113 479.936 1479.378 Q 478.657 1480.644 477.071 1481.906 Q 475.486 1483.168 474.263 1483.593 Q 473.039 1484.019 471.177 1483.994 Q 469.314 1483.970 467.519 1482.642 Q 465.724 1481.314 463.871 1477.556 Q 462.018 1473.798 461.963 1472.825 Q 461.908 1471.851 463.510 1469.728 Q 465.112 1467.604 466.451 1466.564 Q 467.790 1465.524 468.615 1465.267 Q 469.440 1465.010 471.427 1465.037 Q 473.415 1465.063 474.186 1465.383 Q 474.958 1465.704 477.151 1467.300 Q 479.344 1468.896 480.432 1470.151 L 481.520 1471.406 "></path>
    <path id="STROKE_0AB8D8AC-6039-46A6-97D7-2D73E2301E48" opacity="1.000" fill="none" stroke="#000000" stroke-width="1.738" stroke-opacity="1.000" stroke-linecap="round" stroke-linejoin="round" d="M 539.694 1467.086 Q 543.151 1460.106 543.564 1458.833 Q 543.977 1457.560 542.100 1455.632 Q 540.222 1453.705 539.036 1453.005 Q 537.851 1452.306 535.605 1451.702 Q 533.359 1451.099 529.350 1451.000 Q 525.342 1450.900 524.120 1451.241 Q 522.898 1451.581 520.337 1452.936 Q 517.776 1454.292 516.315 1456.018 Q 514.854 1457.744 512.886 1460.921 Q 510.919 1464.098 510.329 1465.394 Q 509.740 1466.690 508.614 1471.381 Q 507.487 1476.073 507.363 1478.590 Q 507.239 1481.107 507.672 1483.479 Q 508.105 1485.850 509.245 1488.316 Q 510.385 1490.782 512.196 1493.019 Q 514.007 1495.256 515.979 1496.407 Q 517.952 1497.559 519.852 1498.179 Q 521.753 1498.798 524.514 1498.992 Q 527.275 1499.186 529.871 1498.600 Q 532.467 1498.014 535.675 1496.510 Q 538.884 1495.007 541.033 1493.090 Q 543.182 1491.173 543.436 1490.339 Q 543.691 1489.506 543.123 1488.768 Q 542.555 1488.030 539.535 1485.560 Q 536.515 1483.091 534.020 1484.183 Q 531.525 1485.276 529.292 1485.378 Q 527.060 1485.480 525.073 1484.970 Q 523.086 1484.459 522.279 1483.829 Q 521.472 1483.198 519.952 1480.791 Q 518.432 1478.384 518.131 1477.564 Q 517.831 1476.745 517.715 1473.914 Q 517.600 1471.084 518.304 1469.636 Q 519.008 1468.189 519.926 1467.338 Q 520.843 1466.488 522.515 1465.559 Q 524.186 1464.630 526.432 1463.975 Q 528.678 1463.321 531.600 1463.360 Q 534.521 1463.398 535.536 1463.722 Q 536.552 1464.045 537.484 1465.493 Q 538.416 1466.941 539.073 1467.371 L 539.730 1467.800 "></path>
    <path id="STROKE_6727D17A-559F-44A3-8ED7-E80CCFE642B6" opacity="1.000" fill="none" stroke="#000000" stroke-width="1.539" stroke-opacity="1.000" stroke-linecap="round" stroke-linejoin="round" d="M 558.375 1456.552 Q 557.820 1458.270 557.562 1462.841 Q 557.303 1467.412 555.646 1477.045 Q 553.990 1486.677 553.404 1492.879 Q 552.818 1499.082 552.154 1500.508 Q 551.489 1501.935 554.271 1501.021 Q 557.052 1500.106 562.300 1499.823 Q 567.548 1499.539 568.195 1498.975 Q 568.843 1498.410 568.691 1496.641 Q 568.539 1494.872 568.684 1489.016 Q 568.829 1483.161 569.318 1474.439 Q 569.807 1465.717 570.153 1463.092 Q 570.500 1460.468 570.538 1457.575 Q 570.576 1454.683 570.059 1453.525 Q 569.542 1452.368 568.925 1452.359 Q 568.308 1452.351 565.393 1453.485 Q 562.478 1454.619 559.905 1454.784 Q 557.332 1454.950 557.995 1455.333 L 558.658 1455.715 "></path>
    <path id="STROKE_146AC07C-E9C8-4896-B0DC-7B9CE6720250" opacity="1.000" fill="none" stroke="#000000" stroke-width="1.738" stroke-opacity="1.000" stroke-linecap="round" stroke-linejoin="round" d="M 583.705 1455.477 Q 583.363 1454.759 582.867 1460.542 Q 582.372 1466.324 583.456 1466.118 Q 584.541 1465.911 589.760 1466.091 Q 594.979 1466.270 596.805 1465.678 Q 598.631 1465.087 598.814 1466.193 Q 598.998 1467.300 598.585 1471.513 Q 598.173 1475.725 598.128 1479.105 Q 598.084 1482.486 597.410 1486.788 Q 596.735 1491.090 596.830 1494.184 Q 596.925 1497.277 600.973 1497.395 Q 605.021 1497.512 606.439 1497.335 Q 607.857 1497.158 608.131 1493.118 Q 608.406 1489.078 608.560 1482.119 Q 608.714 1475.159 608.685 1470.962 Q 608.655 1466.765 611.444 1466.602 Q 614.232 1466.440 618.080 1466.690 Q 621.928 1466.941 624.127 1466.371 Q 626.326 1465.801 626.296 1459.506 Q 626.266 1453.211 625.909 1451.944 Q 625.552 1450.678 620.766 1451.146 Q 615.980 1451.614 611.976 1451.629 Q 607.972 1451.644 607.981 1444.087 Q 607.990 1436.531 607.702 1434.803 Q 607.413 1433.075 607.162 1428.938 Q 606.911 1424.802 607.039 1421.470 Q 607.169 1418.137 607.577 1415.976 Q 607.984 1413.815 602.630 1415.312 Q 597.275 1416.809 597.024 1417.357 Q 596.774 1417.906 596.730 1421.244 Q 596.685 1424.582 597.432 1428.500 Q 598.179 1432.417 598.940 1441.666 Q 599.702 1450.914 598.099 1451.734 Q 596.497 1452.554 593.233 1453.105 Q 589.970 1453.657 587.138 1453.620 L 584.307 1453.582 "></path>
    <path id="STROKE_FA9A6EB6-1BDA-42BC-985A-28723B405BF2" opacity="1.000" fill="none" stroke="#000000" stroke-width="1.738" stroke-opacity="1.000" stroke-linecap="round" stroke-linejoin="round" d="M 662.384 1457.682 Q 660.642 1455.455 658.838 1454.597 Q 657.034 1453.739 654.215 1453.579 Q 651.397 1453.420 647.896 1454.575 Q 644.394 1455.730 642.464 1456.835 Q 640.533 1457.940 638.423 1459.820 Q 636.312 1461.701 634.585 1464.057 Q 632.858 1466.413 631.445 1469.235 Q 630.032 1472.058 629.217 1476.216 Q 628.402 1480.375 628.356 1483.880 Q 628.309 1487.384 628.902 1489.107 Q 629.495 1490.830 631.675 1493.209 Q 633.854 1495.589 636.041 1496.965 Q 638.228 1498.342 643.148 1499.660 Q 648.068 1500.978 650.271 1501.101 Q 652.474 1501.225 656.177 1500.049 Q 659.880 1498.873 662.009 1497.483 Q 664.138 1496.093 666.308 1493.474 Q 668.478 1490.855 669.436 1488.757 Q 670.393 1486.659 671.002 1481.499 Q 671.610 1476.339 671.068 1472.652 Q 670.527 1468.965 669.140 1466.450 Q 667.754 1463.935 664.779 1460.390 L 661.805 1456.846 "></path>
    <path id="STROKE_B9D45FCC-5480-4C25-82C4-74354BA217C7" opacity="1.000" fill="none" stroke="#000000" stroke-width="1.742" stroke-opacity="1.000" stroke-linecap="round" stroke-linejoin="round" d="M 652.885 1470.108 Q 649.361 1469.665 648.520 1470.074 Q 647.679 1470.482 646.361 1471.788 Q 645.044 1473.095 644.261 1474.799 Q 643.479 1476.504 643.083 1478.435 Q 642.686 1480.366 642.668 1481.737 Q 642.650 1483.107 643.058 1484.069 Q 643.467 1485.031 644.585 1485.955 Q 645.703 1486.879 648.079 1487.278 Q 650.454 1487.677 651.364 1487.293 Q 652.274 1486.909 653.741 1485.680 Q 655.208 1484.451 656.014 1482.917 Q 656.819 1481.382 657.080 1480.160 Q 657.342 1478.939 657.232 1477.689 Q 657.123 1476.439 655.556 1474.284 Q 653.989 1472.129 652.608 1471.108 Q 651.227 1470.086 651.499 1469.920 L 651.772 1469.754 "></path>
    <path id="STROKE_D3FCADD8-7E82-46DB-9A14-A633841D2019" opacity="1.000" fill="none" stroke="#000000" stroke-width="1.579" stroke-opacity="1.000" stroke-linecap="round" stroke-linejoin="round" d="M 678.729 1457.654 Q 679.177 1460.854 678.209 1465.665 Q 677.241 1470.477 676.834 1473.194 Q 676.427 1475.912 675.831 1482.104 Q 675.234 1488.296 674.133 1493.648 Q 673.032 1499.000 677.307 1498.688 Q 681.583 1498.377 684.183 1498.412 Q 686.783 1498.446 687.745 1497.945 Q 688.706 1497.445 688.264 1486.730 Q 687.821 1476.016 688.829 1473.871 Q 689.838 1471.727 690.908 1470.587 Q 691.978 1469.447 693.212 1468.803 Q 694.445 1468.160 696.738 1467.648 Q 699.032 1467.137 700.424 1467.330 Q 701.816 1467.522 702.472 1468.266 Q 703.128 1469.010 703.806 1471.393 Q 704.484 1473.777 704.440 1477.159 Q 704.395 1480.541 709.829 1480.024 Q 715.263 1479.506 716.129 1479.103 Q 716.995 1478.700 717.352 1475.445 Q 717.709 1472.189 717.351 1467.944 Q 716.992 1463.700 716.472 1462.176 Q 715.952 1460.652 714.099 1457.805 Q 712.246 1454.959 709.664 1453.554 Q 707.082 1452.149 704.679 1451.924 Q 702.276 1451.699 699.340 1452.857 Q 696.404 1454.014 692.059 1457.636 Q 687.715 1461.259 688.236 1456.950 Q 688.758 1452.641 685.217 1453.428 Q 681.677 1454.216 681.471 1454.580 L 681.265 1454.945 "></path>
    <path id="STROKE_399D5FD5-EE42-4617-A058-3307E40EAA28" opacity="1.000" fill="none" stroke="#000000" stroke-width="0.923" stroke-opacity="1.000" stroke-linecap="round" stroke-linejoin="round" d="M 568.427 1425.711 Q 567.154 1424.696 565.375 1424.588 Q 563.597 1424.481 562.629 1424.670 Q 561.662 1424.859 560.252 1425.688 Q 558.843 1426.516 557.560 1427.901 Q 556.278 1429.287 555.560 1430.966 Q 554.842 1432.645 554.790 1434.310 Q 554.738 1435.976 555.570 1437.008 Q 556.401 1438.040 558.670 1439.001 Q 560.939 1439.962 564.414 1440.188 Q 567.889 1440.413 569.242 1439.932 Q 570.594 1439.450 571.419 1438.732 Q 572.244 1438.013 572.698 1437.055 Q 573.152 1436.096 573.172 1434.581 Q 573.192 1433.067 570.860 1430.091 Q 568.528 1427.115 567.612 1425.701 L 566.696 1424.286 "></path>
    <path id="STROKE_0D4D46C4-7661-488D-AA81-1130455C6E8F" opacity="1.000" fill="none" stroke="#000000" stroke-width="3.000" stroke-opacity="1.000" stroke-linecap="round" stroke-linejoin="round" d="M 483.069 833.641 Q 480.723 831.866 479.695 831.847 Q 478.667 831.827 477.215 832.734 Q 475.763 833.641 474.244 835.718 Q 472.725 837.795 472.203 839.046 Q 471.682 840.298 471.501 842.170 Q 471.320 844.041 471.723 845.149 Q 472.126 846.258 474.425 847.610 Q 476.724 848.962 479.514 849.063 Q 482.304 849.164 483.854 848.339 Q 485.404 847.513 486.314 846.262 Q 487.223 845.010 487.388 842.530 Q 487.554 840.050 485.471 835.919 L 483.389 831.789 "></path>
    <path id="STROKE_B1377754-E8ED-4D33-93E2-EBEB2A309135" opacity="1.000" fill="none" stroke="#000000" stroke-width="3.001" stroke-opacity="1.000" stroke-linecap="round" stroke-linejoin="round" d="M 499.633 372.077 Q 496.774 371.425 495.684 371.988 Q 494.594 372.551 492.986 373.994 Q 491.378 375.438 490.383 377.384 Q 489.388 379.331 489.400 380.654 Q 489.411 381.978 489.994 382.604 Q 490.578 383.230 493.333 383.630 Q 496.088 384.030 498.665 382.841 Q 501.241 381.652 502.281 380.045 Q 503.322 378.439 503.398 377.281 Q 503.474 376.124 502.148 374.235 Q 500.822 372.345 499.751 372.002 L 498.680 371.659 "></path>
  </g>
</svg>