<?xml version="1.0" encoding="UTF-8" standalone="no"?><!DOCTYPE svg PUBLIC "-//W3C//DTD SVG 1.1//EN" "http://www.w3.org/Graphics/SVG/1.1/DTD/svg11.dtd"><svg width="100%" height="100%" viewBox="0 0 288 288" version="1.1" xmlns="http://www.w3.org/2000/svg" xmlns:xlink="http://www.w3.org/1999/xlink" xml:space="preserve" xmlns:serif="http://www.serif.com/" style="fill-rule:evenodd;clip-rule:evenodd;stroke-linejoin:round;stroke-miterlimit:1.41421;"><g><path d="M182.991,87.069l-41.244,23.811l0,23.81l41.244,-23.81l0,-23.811Z" style="fill:#ef7a73;fill-rule:nonzero;stroke:#3d3d3d;stroke-width:1.5px;"/><path d="M182.991,134.69l0,23.812l20.621,-11.906l-20.621,-11.906Z" style="fill:#49b5c1;fill-rule:nonzero;stroke:#3d3d3d;stroke-width:1.5px;"/><path d="M182.991,206.125l-20.622,-11.905l0,23.811l20.622,11.904l0,-23.81Z" style="fill:#49b5c1;fill-rule:nonzero;stroke:#3d3d3d;stroke-width:1.5px;"/><path d="M100.506,134.69l20.621,-11.905l0,-23.81l-41.243,23.81l20.622,11.905Z" style="fill:#ef7a73;fill-rule:nonzero;stroke:#3d3d3d;stroke-width:1.5px;"/><path d="M244.854,146.596l20.621,11.906l0,-23.812l-20.621,11.906Z" style="fill:#ef7a73;fill-rule:nonzero;stroke:#3d3d3d;stroke-width:1.5px;"/><path d="M265.475,158.502l-82.484,47.623l0,23.81l82.484,-47.621l0,-23.812Z" style="fill:#ef7a73;fill-rule:nonzero;stroke:#3d3d3d;stroke-width:1.5px;"/><path d="M141.747,206.125l0,23.81l20.622,-11.904l0,-23.811l-20.622,11.905Z" style="fill:#ef7a73;fill-rule:nonzero;stroke:#3d3d3d;stroke-width:1.5px;"/><path d="M244.854,146.596l20.621,-11.906l-41.243,-23.81l-41.241,23.81l20.621,11.906l-41.243,23.812l-82.485,-47.623l41.243,-23.81l20.62,11.905l41.244,-23.811l-41.244,-23.812l-20.62,11.906l-20.621,-11.906l-82.485,47.623l20.621,11.905l-20.621,11.905l123.726,71.435l20.622,-11.905l20.622,11.905l82.484,-47.623l-20.621,-11.906Z" style="fill:#fec52c;fill-rule:nonzero;stroke:#3d3d3d;stroke-width:1.5px;"/><path d="M18.021,110.88l0,23.81l20.621,-11.905l-20.621,-11.905Z" style="fill:#49b5c1;fill-rule:nonzero;stroke:#3d3d3d;stroke-width:1.5px;"/><path d="M141.747,110.88l-20.62,-11.905l0,23.81l20.62,11.905l0,-23.81Z" style="fill:#49b5c1;fill-rule:nonzero;stroke:#3d3d3d;stroke-width:1.5px;"/><path d="M18.021,158.502l123.726,71.433l0,-23.81l-123.726,-71.435l0,23.812Z" style="fill:#49b5c1;fill-rule:nonzero;stroke:#3d3d3d;stroke-width:1.5px;"/></g></svg>