<?xml version="1.0" encoding="UTF-8"?>
<svg xmlns="http://www.w3.org/2000/svg" xmlns:xlink="http://www.w3.org/1999/xlink" width="5.683099in" height="0.956820in" version="1.1" viewBox="87.112371 215.140875 750.169056 126.300190">
  <!--
	Exported with Concepts: Smarter Sketching
	Version: 414
	iOS Version: 11.0
	https://concepts.tophatch.com/
	-->
  <title>Untitled</title>
  <desc>Drawing exported from Concepts: Smarter Sketching</desc>
  <g id="Pen" opacity="1.000">
    <path id="STROKE_AFE71566-F144-4F52-BCBB-1A53EAD2E74E" opacity="1.000" fill="none" stroke="#000000" stroke-width="2.859" stroke-opacity="1.000" stroke-linecap="round" stroke-linejoin="round" d="M 372.663 246.648 Q 370.542 247.844 368.260 251.586 Q 365.978 255.327 363.619 264.229 Q 361.261 273.131 360.701 277.534 Q 360.141 281.937 360.073 287.301 Q 360.005 292.665 361.795 299.511 Q 363.585 306.358 365.214 309.208 Q 366.843 312.059 369.422 313.548 Q 372.001 315.037 373.664 315.005 Q 375.327 314.973 377.346 310.704 Q 379.365 306.434 380.927 299.880 Q 382.488 293.327 382.852 283.197 Q 383.217 273.067 380.731 262.307 Q 378.246 251.548 376.489 249.760 L 374.733 247.972 "></path>
    <path id="STROKE_9F0EE9B6-D1F8-49B0-A3F8-EA4972518FAF" opacity="1.000" fill="none" stroke="#000000" stroke-width="3.001" stroke-opacity="1.000" stroke-linecap="round" stroke-linejoin="round" d="M 373.393 246.915 Q 379.891 246.381 385.991 246.782 Q 392.091 247.183 403.137 246.915 Q 414.183 246.648 422.998 246.585 Q 431.813 246.521 435.690 246.158 Q 439.567 245.796 452.861 245.528 Q 466.156 245.261 474.614 244.962 Q 483.073 244.663 487.679 244.167 Q 492.286 243.670 495.866 243.670 Q 499.446 243.670 515.260 242.449 Q 531.074 241.227 537.072 241.125 L 543.071 241.023 "></path>
    <path id="STROKE_097E25E9-4DE2-4D5A-B703-A98F8C9B849E" opacity="1.000" fill="none" stroke="#000000" stroke-width="3.001" stroke-opacity="1.000" stroke-linecap="round" stroke-linejoin="round" d="M 375.191 315.559 Q 402.645 314.502 411.392 314.502 Q 420.139 314.502 429.386 313.942 Q 438.634 313.382 442.918 313.249 Q 447.203 313.115 455.220 313.115 Q 463.237 313.115 466.088 312.950 Q 468.938 312.784 481.766 312.753 Q 494.594 312.721 500.269 312.517 Q 505.945 312.313 522.183 312.282 Q 538.421 312.250 542.697 311.588 L 546.973 310.926 "></path>
    <path id="STROKE_DA39EC58-815E-45A4-BEE9-D3F6EA421E28" opacity="1.000" fill="none" stroke="#000000" stroke-width="3.001" stroke-opacity="1.000" stroke-linecap="round" stroke-linejoin="round" d="M 543.274 241.812 Q 546.854 244.803 548.907 248.907 Q 550.961 253.011 553.845 262.212 Q 556.730 271.413 557.128 281.275 Q 557.527 291.138 554.575 298.983 Q 551.622 306.829 549.798 309.278 L 547.974 311.728 "></path>
    <path id="STROKE_F39584B3-8648-4509-8D04-7E99AE7C77C1" opacity="1.000" fill="none" stroke="#000000" stroke-width="3.001" stroke-opacity="1.000" stroke-linecap="round" stroke-linejoin="round" d="M 558.851 276.439 Q 566.266 277.228 581.520 275.708 Q 596.774 274.187 608.244 273.990 Q 619.714 273.792 628.529 273.328 Q 637.344 272.863 651.333 271.769 Q 665.323 270.675 675.971 270.675 Q 686.618 270.675 692.421 270.445 Q 698.224 270.216 717.084 270.216 Q 735.943 270.216 746.421 269.822 Q 756.898 269.427 775.232 268.231 Q 793.566 267.035 802.482 267.169 L 811.399 267.302 "></path>
    <path id="STROKE_945F7DC4-C0C5-4706-BF9A-5D419A0F5907" opacity="1.000" fill="none" stroke="#000000" stroke-width="3.058" stroke-opacity="1.000" stroke-linecap="round" stroke-linejoin="round" d="M 113.023 290.457 Q 120.569 291.370 136.138 290.045 Q 151.708 288.720 163.401 288.689 Q 175.094 288.657 184.085 288.313 Q 193.076 287.970 207.350 287.061 Q 221.625 286.152 232.476 286.309 Q 243.328 286.466 249.246 286.318 Q 255.163 286.171 274.385 286.449 Q 293.607 286.727 304.291 286.480 Q 314.975 286.232 333.679 285.283 Q 352.382 284.335 361.467 284.602 L 370.553 284.870 "></path>
    <path id="STROKE_6D61BB47-E3F7-4534-8BB2-DA351A1931BF" opacity="1.000" fill="none" stroke="#000000" stroke-width="9.291" stroke-opacity="1.000" stroke-linecap="round" stroke-linejoin="round" d="M 507.657 248.076 Q 512.773 256.206 514.140 262.146 Q 515.506 268.086 515.810 272.331 Q 516.115 276.576 516.141 283.774 Q 516.167 290.972 514.314 297.495 Q 512.462 304.018 510.843 306.719 L 509.224 309.419 "></path>
  </g>
</svg>