<?xml version="1.0" standalone="no"?> <!DOCTYPE svg PUBLIC "-//W3C//DTD SVG 1.0//EN" "http://www.w3.org/TR/2001/REC-SVG-20010904/DTD/svg10.dtd" > <svg xmlns="http://www.w3.org/2000/svg" width="100%" height="100%">
<defs >
<font horiz-adv-x="547" ><font-face
    font-family="Riffic"
    units-per-em="1000"
    panose-1="2 0 10 3 3 0 0 2 0 4"
    ascent="779"
    descent="-273"
    alphabetic="0" />
<missing-glyph horiz-adv-x="238" />
<glyph unicode=" " glyph-name="space" horiz-adv-x="292" />
<glyph unicode="!" glyph-name="exclam" horiz-adv-x="256" d="M-5 755H214L210 262L13 254L-5 755ZM-4 112Q-4 129 1 150T19 188T51 216T101 228Q216 228 216 101Q216 91 211 74T194 40T163 9T116 -4Q81 -4 58 8T22 37T3 75T-4 112Z" />
<glyph unicode="&quot;" glyph-name="quotedbl" horiz-adv-x="329" d="M0 791L164 806V518H35L0 791ZM187 777L349 801L308 500L187 518V777Z" />
<glyph unicode="#" glyph-name="numbersign" horiz-adv-x="347" d="M173 525H144V477L57 486V525H8L-2 624H51V644H-2V733H47V781H136V733H166V781H254V733H293L302 653H254V631H302L312 525H254V486H174L173 525ZM140 629H174L169 649H140V629Z" />
<glyph unicode="$" glyph-name="dollar" horiz-adv-x="584" d="M178 39Q133 50 88 72T-2 133L118 253Q157 214 193 201T262 187Q290 187 308 191T337 203T352 220T357 238Q355 256 325 261T237 268Q184 269 144 285T78 327T38 387T25 461Q25 522 56 563T141 626L131
707L340 752L353 644Q401 633 440 609T522 552L417 417Q367 456 332 475T258 494Q220 494 207 479T193 448Q195 426 217 420T271 413T338 412T402 403Q460 385 491 340T522 238Q522 184 490 133T394 47L402 -29L178 -51V39Z" />
<glyph unicode="%" glyph-name="percent" horiz-adv-x="985" d="M507 714H691L437 -11L238 91L507 714ZM-2 581Q0 621 20 651T70 702T138 733T211 743Q246 743 279 732T337 699T378 648T394 578Q394 537 380 500T340 435T280 390T206 373Q165 373 127 389T59 433T12
499T-2 581ZM197 624Q177 624 158 610T139 566Q139 554 145 544T160 527T179 515T197 510Q215 510 234 525T254 566Q254 592 236 608T197 624ZM935 170Q935 130 918 99T874 45T811 11T739 -1Q701 -1 667 12T606 49T563 106T547 181Q547 221 561 256T601 318T658
360T726 375Q766 375 804 358T871 313T917 247T935 170ZM675 175Q674 152 688 136T726 120Q750 120 770 135T791 177Q791 206 774 221T738 236Q728 236 717 233T697 223T681 205T675 175Z" />
<glyph unicode="&amp;" glyph-name="ampersand" horiz-adv-x="602" d="M549 267L510 280Q531 239 531 201Q531 157 509 119T450 54T370 10T282 -6Q235 -6 185 4T92 40T23 106T-4 210Q-4 223 -3 246T5 295T26 343T66 375Q38 390 23 415T2 467T-6 517T-7 553Q-7
604 18 640T82 700T166 735T250 747Q289 747 328 735T400 699T453 640T474 559L325 493Q325 522 317 540T297 570T270 585T239 589Q204 589 188 570T172 526Q172 488 198 461T267 433L270 335Q252 335 235 327T205 305T184 274T176 238Q176 218 184 203T205 178T234
162T269 156Q285 156 301 162T330 180T350 205T358 237Q358 250 356 264T349 291T333 312T308 321V435H563L549 267Z" />
<glyph unicode="&apos;" glyph-name="quotesingle" horiz-adv-x="182" d="M0 781L171 793V516H35L0 781Z" />
<glyph unicode="(" glyph-name="parenleft" horiz-adv-x="346" d="M164 -93Q123 -44 93 15T42 137T12 265T2 395Q2 452 12 508T42 617T93 719T164 808L288 700Q229 631 204 543T179 364Q179 267 203 172T290 0L164 -93Z" />
<glyph unicode=")" glyph-name="parenright" horiz-adv-x="358" d="M157 808Q196 767 226 720T278 620T309 511T320 398Q320 333 310 267T280 136T230 13T157 -98L0 1Q64 79 103 174T142 371Q142 459 116 545T33 700L157 808Z" />
<glyph unicode="*" glyph-name="asterisk" horiz-adv-x="279" d="M192 609L229 573L188 522L150 578V517H91V573L43 522L4 573L50 609H-1V671H60L14 710L52 751L91 721V761H151V717L197 754L237 710L190 677H242V609H192Z" />
<glyph unicode="+" glyph-name="plus" horiz-adv-x="556" d="M155 473V639H337V480H492V310H322L314 146Q276 144 234 142T146 135L151 302H10L-1 473H155Z" />
<glyph unicode="," glyph-name="comma" horiz-adv-x="311" d="M127 -126L-20 -101L83 217L274 145L127 -126Z" />
<glyph unicode="-" glyph-name="hyphen" horiz-adv-x="408" d="M367 341L351 175H5V341H367Z" />
<glyph unicode="." glyph-name="period" horiz-adv-x="236" d="M-10 112Q-10 129 -5 150T13 188T45 216T95 228Q210 228 210 101Q210 91 205 74T188 40T157 9T110 -4Q75 -4 52 8T16 37T-3 75T-10 112Z" />
<glyph unicode="/" glyph-name="slash" horiz-adv-x="542" d="M314 759H514L192 -30L1 0L314 759Z" />
<glyph unicode="0" glyph-name="zero" horiz-adv-x="717" d="M341 215Q374 215 395 232T430 276T449 333T455 391Q455 416 448 442T426 489T390 524T341 538Q312 538 288 525T246 490T218 441T208 387Q208 358 216 328T241 273T283 231T341 215ZM345 -7Q264 -7
199 29T89 124T19 257T-6 405Q-6 477 23 539T103 646T218 716T353 741Q421 740 479 711T580 634T646 524T670 395Q670 325 649 254T586 124T485 30T345 -7Z" />
<glyph unicode="1" glyph-name="one" horiz-adv-x="440" d="M140 1V528H-1V737H217L359 722V1H140Z" />
<glyph unicode="2" glyph-name="two" horiz-adv-x="581" d="M556 0L7 -1L-1 167Q105 225 171 274T275 363T325 434T338 487T328 522T312 541Q289 557 264 560T216 553T177 519T156 461L-7 492Q-4 555 20 602T84 680T175 726T282 742Q335 742 379 726T456 678T506
602T527 502Q528 446 507 403T454 322T386 249T322 177H535L556 0Z" />
<glyph unicode="3" glyph-name="three" horiz-adv-x="551" d="M334 443Q385 439 420 419T478 367T511 299T522 223Q522 180 501 138T444 64T362 11T266 -7Q220 -6 178 2T100 31T37 85T-6 174L133 245Q136 229 149 215T181 190T219 173T257 166Q286 166 307 183T327
233Q329 272 309 292T259 319T198 327T145 325L144 454L278 583L18 580V736L476 737L471 583L334 443Z" />
<glyph unicode="4" glyph-name="four" horiz-adv-x="583" d="M433 187L441 6L249 0L255 186L10 194L0 730L177 742V366L257 364L263 540L443 595L437 351L550 344V181L433 187Z" />
<glyph unicode="5" glyph-name="five" horiz-adv-x="593" d="M221 498Q285 514 342 503T443 459T512 373T536 253Q535 191 508 142T436 59T336 10T221 3T108 46T9 146L153 239Q167 209 194 196T250 182Q269 182 288 188T322 205T347 232T356 267Q356 289 347 304T323
328T291 341T255 345Q227 344 199 336T159 303L36 363L38 742H498V574H217L221 498Z" />
<glyph unicode="6" glyph-name="six" horiz-adv-x="573" d="M473 625Q450 613 419 593T356 548T295 497T249 445Q287 461 337 456T432 424T507 350T537 235Q536 181 511 137T446 62T358 13T261 -5Q200 -5 151 16T67 75T13 164T-6 276Q-6 289 -1 317T19 383T58
466T123 558T219 651T351 738L473 625ZM269 320Q252 321 236 315T207 297T187 270T179 235Q179 214 189 199T216 173T251 159T287 154Q314 154 335 177T357 235Q357 276 332 297T269 320Z" />
<glyph unicode="7" glyph-name="seven" horiz-adv-x="558" d="M522 546Q500 502 463 443T384 314T302 163T233 -2H-2Q17 61 48 127T116 261T197 400T285 543H-2V736H528L522 546Z" />
<glyph unicode="8" glyph-name="eight" d="M509 539Q509 533 509 527T510 513Q510 496 507 477T496 440T471 407T427 381Q479 364 500 319T521 212Q521 164 500 124T443 55T362 10T270 -6Q219 -6 173 7T91 49T34 124T12 238Q12 264 21 285T46 323T81 354T122 378Q80
401 55 444T29 552Q29 595 51 630T108 689T186 727T271 740Q313 740 354 725T428 684T484 620T509 539ZM189 525Q189 506 198 492T219 469T247 456T275 451Q285 451 297 456T319 470T336 494T343 525Q343 543 337 556T320 580T297 595T274 600Q261 600 246 596T219
582T198 559T189 525ZM277 278Q260 278 243 274T211 261T187 239T178 207Q178 191 187 180T211 161T242 151T271 148Q285 148 299 152T326 163T345 182T353 210Q353 225 347 237T329 259T305 273T277 278Z" />
<glyph unicode="9" glyph-name="nine" horiz-adv-x="580" d="M61 107Q83 119 114 139T178 184T239 235T285 287Q247 270 197 276T102 308T27 382T-3 497Q-2 551 23 595T88 670T176 719T273 737Q334 737 383 716T467 657T521 568T540 456Q540 443 535 415T515 349T476
266T411 174T315 81T183 -6L61 107ZM278 405Q295 404 311 410T340 428T360 455T368 490Q368 511 358 526T331 552T296 566T260 571Q246 571 232 567T205 553T184 531T176 501Q176 481 185 464T208 434T241 414T278 405Z" />
<glyph unicode=":" glyph-name="colon" horiz-adv-x="236" d="M-5 517Q-5 535 0 555T18 592T50 621T100 633Q215 633 215 506Q215 497 210 479T193 444T162 414T115 401Q80 401 58 413T22 442T2 480T-5 517ZM-2 113Q-2 130 3 151T21 189T53 217T103 229Q218 229
218 102Q218 92 213 75T196 41T165 10T118 -3Q83 -3 60 9T24 38T5 76T-2 113Z" />
<glyph unicode=";" glyph-name="semicolon" horiz-adv-x="236" d="M-10 518Q-10 535 -5 556T13 594T45 622T95 634Q210 634 210 507Q210 497 205 480T188 446T157 415T110 402Q75 402 52 414T16 443T-3 481T-10 518ZM77 -69L-41 -49L41 205L194 147L77 -69Z" />
<glyph unicode="&lt;" glyph-name="less" horiz-adv-x="514" d="M471 193L405 9L0 318L1 505L374 729L468 560L200 400L471 193Z" />
<glyph unicode="=" glyph-name="equal" horiz-adv-x="432" d="M375 506V356H8V514L375 506ZM372 324V165H8V324H372Z" />
<glyph unicode="&gt;" glyph-name="greater" horiz-adv-x="504" d="M269 379L5 525L103 714L476 490L477 303L72 -6L6 178L269 379Z" />
<glyph unicode="?" glyph-name="question" horiz-adv-x="524" d="M105 260V460Q130 462 159 462T213 466T257 488T280 539Q282 552 276 563T260 582T237 595T210 600Q195 600 180 593T152 573T131 547T123 518L-16 575Q-10 631 16 670T80 735T158 770T235 778Q279
775 320 756T393 705T446 632T470 543Q473 498 463 456T428 380T362 327T261 306L263 247L105 260ZM58 111Q58 128 63 149T81 187T113 215T163 227Q278 227 278 100Q278 90 273 73T256 39T225 8T178 -5Q143 -5 120 7T84 36T65 74T58 111Z" />
<glyph unicode="@" glyph-name="at" horiz-adv-x="807" d="M570 536L561 288Q560 273 567 264T589 256Q610 258 619 276T632 317T634 362T633 394Q633 440 618 480T575 551T504 599T404 616Q357 616 310 602T225 561T163 494T137 401Q135 335 165 280T243 189T352
140T473 145L543 33Q485 4 422 -2T299 6T183 52T87 133T23 242T1 375Q3 454 37 521T127 638T254 714T400 742Q471 742 537 715T655 641T737 529T768 387Q768 348 761 304T735 223T685 160T606 134Q582 133 558 139T513 159T481 192T468 239Q429 212 381 212T290
231T219 291T190 381Q190 435 218 472T289 527T380 543T468 514V536H570ZM368 317Q394 317 411 336T430 381Q430 394 425 404T410 420T389 430T368 433Q358 433 347 430T326 420T311 404T305 381Q306 355 324 336T368 317Z" />
<glyph unicode="A" glyph-name="A" horiz-adv-x="828" d="M525 158H275L188 -7L-2 71L320 740L550 738Q577 649 608 560T672 383T735 206T793 28L582 -23L525 158ZM496 340L427 532L340 340H496Z" />
<glyph unicode="B" glyph-name="B" horiz-adv-x="579" d="M478 365Q513 337 530 297T548 211Q547 158 527 122T475 62T400 25T311 7T219 0T132 -1H0V694Q56 723 120 731T247 740Q297 740 349 725T443 679T512 605T539 504Q539 464 523 427T478 365ZM193 427Q206
424 223 424Q244 424 266 429T306 445T335 472T347 510Q347 526 338 537T315 556T284 566T250 569Q231 569 216 566T193 556V427ZM193 161Q208 154 231 154Q253 154 275 160T316 178T346 207T358 246Q358 266 348 279T323 301T287 314T248 318Q217 318 193 310V161Z"
/>
<glyph unicode="C" glyph-name="C" horiz-adv-x="751" d="M701 243Q691 187 659 141T579 62T477 11T365 -7Q292 -7 226 22T110 101T30 217T0 358Q0 431 24 500T93 623T200 711T338 744Q485 744 580 676T701 484L515 449Q507 468 492 482T458 505T416 520T372 525Q338
525 309 512T260 477T228 428T218 372Q219 344 232 318T267 273T319 242T382 230Q402 230 424 234T467 248T501 270T521 303L701 243Z" />
<glyph unicode="D" glyph-name="D" horiz-adv-x="664" d="M29 709Q68 725 109 732T192 740Q273 740 351 713T490 633T588 508T625 342Q625 165 506 78T151 -10Q116 -10 78 -8T-1 -2L29 709ZM202 194Q209 193 216 193T231 192Q265 192 297 203T354 235T395 289T411
366Q411 438 362 476T231 515H217L202 194Z" />
<glyph unicode="E" glyph-name="E" horiz-adv-x="616" d="M235 190L582 208V0H45L-1 724L536 746L550 549L211 543L218 462L497 482L508 296L230 277L235 190Z" />
<glyph unicode="F" glyph-name="F" horiz-adv-x="533" d="M-1 -1V714L500 732L501 549H172L178 456H407L438 284H195V-1H-1Z" />
<glyph unicode="G" glyph-name="G" horiz-adv-x="739" d="M694 376Q697 349 697 325Q697 248 670 187T597 83T489 18T359 -4Q282 -4 216 28T102 113T27 235T-1 377Q0 450 30 517T110 635T226 718T365 749Q406 749 447 739T524 711T591 666T647 606L487 499Q468
524 441 535T384 546Q349 546 317 532T261 492T223 434T208 368Q208 331 223 301T262 248T316 213T377 201Q408 201 437 215T487 262L322 307L379 455L694 376Z" />
<glyph unicode="H" glyph-name="H" horiz-adv-x="656" d="M612 737V-2H397V256L209 273V1H-2V741H212V484L397 469V737H612Z" />
<glyph unicode="I" glyph-name="I" horiz-adv-x="260" d="M-1 0L6 739H219L212 0H-1Z" />
<glyph unicode="J" glyph-name="J" horiz-adv-x="626" d="M532 340Q547 273 533 210T482 99T392 22T270 -3Q227 -1 184 11T104 46T36 101T-10 174L157 284Q161 269 172 255T198 232T231 219T266 220Q304 231 320 258T329 336L288 555L45 581L72 753L540 730L560
536L484 545L532 340Z" />
<glyph unicode="K" glyph-name="K" horiz-adv-x="676" d="M658 113L493 -31L256 258L198 207V2H0V740H198V497L453 758L611 615L409 406L658 113Z" />
<glyph unicode="L" glyph-name="L" horiz-adv-x="492" d="M466 222V-2H-5V745H218V222H466Z" />
<glyph unicode="M" glyph-name="M" horiz-adv-x="870" d="M617 5V410L501 -2H329L210 378V8H0V745L277 726L412 347L508 727L777 724L831 5H617Z" />
<glyph unicode="N" glyph-name="N" horiz-adv-x="717" d="M487 0L224 305V0H0L-7 726L182 712L459 393L458 739L677 746V0H487Z" />
<glyph unicode="O" glyph-name="O" horiz-adv-x="808" d="M775 372Q775 293 743 224T656 105T531 24T382 -6Q308 -6 239 24T115 105T29 224T-4 369Q-4 447 28 515T115 634T239 715T386 745Q462 745 532 716T656 636T742 518T775 372ZM380 215Q410 215 438 227T489
260T524 310T538 369Q538 400 525 429T490 480T438 515T377 528Q345 528 316 515T264 479T228 427T215 365Q215 334 230 307T268 260T320 227T380 215Z" />
<glyph unicode="P" glyph-name="P" horiz-adv-x="592" d="M216 0H18L-16 676Q47 706 117 721T256 736Q313 736 369 716T469 660T541 574T568 464Q568 406 543 355T475 266T380 205T271 183Q255 183 239 184T208 191L216 0ZM198 389Q228 378 263 378Q283 378 302
382T335 397T359 423T368 462Q368 484 358 499T332 525T296 540T254 545Q220 545 192 534L198 389Z" />
<glyph unicode="Q" glyph-name="Q" horiz-adv-x="824" d="M464 2Q407 -9 350 -2T241 28T145 85T69 164T20 261T4 371Q4 448 36 516T123 635T247 715T393 745Q467 745 537 716T663 635T751 516T784 370Q784 331 777 293T753 218T714 151T660 95L767 -42L596 -161L464
2ZM390 204Q421 204 450 216T502 251T539 302T553 363Q553 395 540 424T503 477T450 513T387 527Q354 527 324 513T270 476T234 423T220 359Q220 327 235 299T275 250T329 217T390 204Z" />
<glyph unicode="R" glyph-name="R" horiz-adv-x="622" d="M581 471V459Q581 423 570 391T541 329T496 275T442 236Q457 196 491 168T570 139H578V-68Q573 -69 567 -69T556 -69Q500 -69 448 -48T353 9T279 93T236 197H225V7H12L25 716Q54 728 85 736T145 748T199
753T239 755Q269 754 305 749T378 730T450 696T513 644T560 570T581 471ZM228 400Q244 393 267 393Q287 393 306 398T339 413T362 439T371 477Q369 520 342 542T276 565Q266 565 256 563T236 558L228 400Z" />
<glyph unicode="S" glyph-name="S" horiz-adv-x="612" d="M457 482Q418 509 377 528T284 549Q272 549 257 548T229 543T206 531T197 508Q198 496 204 489T219 477T239 470T260 468Q271 468 280 469T301 470Q349 470 397 457T485 417T548 347T573 247Q571 189 545
142T478 61T385 10T282 -8Q241 -8 198 0T115 23T37 63T-28 119L106 263Q138 228 181 208T271 188Q285 188 303 190T338 199T366 214T377 237Q377 249 371 256T354 267T330 272T303 274Q292 274 281 274T262 273Q214 274 167 292T83 341T23 417T0 514Q0 573 27 617T96
689T189 732T289 746Q367 744 439 715T569 631L457 482Z" />
<glyph unicode="T" glyph-name="T" horiz-adv-x="641" d="M612 567L422 557L418 4L199 -18L203 550L2 540L-12 733L596 759L612 567Z" />
<glyph unicode="U" glyph-name="U" horiz-adv-x="675" d="M588 755Q612 689 626 603T641 428Q641 345 626 267T575 127T481 28T335 -10Q239 -10 175 28T73 130T19 272T3 437Q3 515 14 591T43 730L273 674Q254 596 244 518T233 362Q233 341 237 317T253 270T281
234T325 219Q353 219 370 234T396 272T409 321T412 371Q410 453 396 533T362 692L588 755Z" />
<glyph unicode="V" glyph-name="V" horiz-adv-x="741" d="M314 -32L0 653L199 742L383 348L497 739L710 682L515 3L314 -32Z" />
<glyph unicode="W" glyph-name="W" horiz-adv-x="1142" d="M1121 653L861 -16H620L541 346L460 3H210L-1 675L221 743L340 325L457 726H640L735 292L889 762L1121 653Z" />
<glyph unicode="X" glyph-name="X" horiz-adv-x="710" d="M474 356L693 60L519 -47L340 191L168 -47L-15 71L200 370L12 638L182 747L334 535L494 754L678 635L474 356Z" />
<glyph unicode="Y" glyph-name="Y" horiz-adv-x="741" d="M713 688L465 282V-1H236V299L-2 675L234 764L356 478L492 736L713 688Z" />
<glyph unicode="Z" glyph-name="Z" horiz-adv-x="591" d="M559 539L277 195H548V-6H3V192L288 536H29V736H559V539Z" />
<glyph unicode="[" glyph-name="bracketleft" horiz-adv-x="352" d="M2 746H297L308 612H166V136L316 133L328 -6L2 -5V746Z" />
<glyph unicode="\" glyph-name="backslash" horiz-adv-x="536" d="M501 27L323 -30L1 751L188 786L501 27Z" />
<glyph unicode="]" glyph-name="bracketright" horiz-adv-x="341" d="M300 -5L15 3L-8 138L136 136V606L10 610L0 747L300 746V-5Z" />
<glyph unicode="^" glyph-name="asciicircum" horiz-adv-x="397" d="M140 471H-3L117 773H250L363 468H233L185 601L140 471Z" />
<glyph unicode="_" glyph-name="underscore" horiz-adv-x="635" d="M574 -2L562 -139H16L25 -2H574Z" />
<glyph unicode="`" glyph-name="grave" horiz-adv-x="359" d="M0 752Q1 753 25 766T80 796Q114 814 159 837L290 588L159 560Q114 613 79 655Q64 673 50 690T24 720T7 742T0 752Z" />
<glyph unicode="a" glyph-name="a" horiz-adv-x="593" d="M566 0H393L390 65Q369 36 332 16T241 -4Q196 -4 153 15T77 68T23 149T2 255Q2 311 21 360T75 445T158 502T265 523Q301 523 334 510T385 464L387 517H543L566 0ZM171 265Q171 244 179 226T202 193T236
171T277 162Q299 162 316 172T345 199T364 236T372 278Q373 296 366 312T347 341T318 360T282 367Q261 367 241 359T206 338T181 306T171 265Z" />
<glyph unicode="b" glyph-name="b" horiz-adv-x="610" d="M185 472Q217 494 258 510T338 525Q392 523 435 502T510 446T557 366T575 269Q576 221 556 173T501 85T423 21T333 -7Q309 -8 286 -3T241 15T204 44T180 85L181 -2H1V758L186 774L185 472ZM283 362Q263
362 243 355T208 334T182 303T172 264Q172 243 180 222T203 185T238 158T281 148Q302 148 321 157T353 182T375 217T384 258Q384 278 376 296T354 329T322 353T283 362Z" />
<glyph unicode="c" glyph-name="c" horiz-adv-x="562" d="M526 200Q526 156 505 118T448 53T369 9T280 -7Q223 -7 173 14T84 71T24 156T2 260Q2 312 21 359T75 443T157 501T262 523Q310 523 357 508T443 466T504 399T528 310L362 295Q354 321 336 337T296 361T251
366T208 351T175 317T161 264Q160 217 185 191T245 158T313 165T362 215L526 200Z" />
<glyph unicode="d" glyph-name="d" horiz-adv-x="599" d="M392 40Q382 25 368 17T337 5T303 0T269 -1Q215 -1 167 22T83 84T25 172T2 275Q1 323 19 367T70 446T145 500T235 519Q255 519 278 516T324 506T364 485T391 450L392 747H580V-12L403 -1L392 40ZM287 159Q307
159 326 165T361 182T385 210T395 250Q395 272 387 292T365 326T331 348T288 357Q242 357 212 335T182 269Q182 246 191 226T216 191T250 168T287 159Z" />
<glyph unicode="e" glyph-name="e" horiz-adv-x="572" d="M526 170Q517 130 493 98T434 42T360 7T280 -7Q226 -8 176 13T87 70T25 156T2 260Q2 312 23 358T79 441T162 499T262 523Q319 525 368 510T453 460T510 373T531 245L179 225Q194 184 221 166T279 147T338
160T381 200L526 170ZM342 336Q338 358 324 371T292 391T253 396T216 387T189 365T179 331L342 336Z" />
<glyph unicode="f" glyph-name="f" horiz-adv-x="502" d="M-11 509L104 512Q102 523 101 533T100 555Q100 597 114 635T155 704T220 751T306 769Q351 769 398 756T478 712L471 576Q447 587 422 596T369 606Q327 606 300 582T272 521Q272 512 273 508L432 503L421
356H274L300 2H114V359H7L-11 509Z" />
<glyph unicode="g" glyph-name="g" horiz-adv-x="615" d="M555 516Q560 382 566 253T573 -10Q573 -77 554 -128T500 -213T418 -264T289 -282Q232 -282 178 -258T82 -192T18 -97T1 15L170 -24Q171 -49 182 -68T213 -100T257 -117T312 -118Q354 -113 372 -87T396
-28T398 39T390 94Q363 59 323 44T239 29T152 47T74 93T19 164T1 254Q-1 302 15 347T61 429T131 489T218 520T312 514T407 460V516H555ZM324 195Q337 211 345 231T354 272T352 312T336 347Q324 364 303 370T261 375T220 365T190 345Q179 332 175 315T170 279T176
243T190 213Q201 198 220 189T259 178T297 180T324 195Z" />
<glyph unicode="h" glyph-name="h" horiz-adv-x="559" d="M358 231Q358 253 355 270T344 300T319 319T276 325Q248 325 231 309T205 270T193 219T190 167L187 -2L0 1V773H172L186 411Q194 435 211 454T250 485T297 504T347 511Q389 511 422 490T479 436T515 363T528
285V-2H362L358 231Z" />
<glyph unicode="i" glyph-name="i" horiz-adv-x="219" d="M-2 506H187V3H13L-2 506ZM-10 647Q-10 663 -5 683T12 719T42 746T90 757Q200 757 200 636Q200 627 195 611T178 578T149 549T105 537Q71 537 49 548T15 576T-3 612T-10 647Z" />
<glyph unicode="j" glyph-name="j" horiz-adv-x="354" d="M139 53Q139 170 139 278T135 504L321 510L325 -11Q325 -74 306 -118T254 -191T180 -234T98 -249T18 -240T-47 -211L15 -40Q32 -54 53 -56T94 -47T126 -12T139 53ZM227 595Q208 593 192 600T162 621T142
652T136 687Q136 705 144 721T166 749T195 769T230 777Q247 777 263 770T293 751T313 723T319 689Q318 671 311 655T290 626T261 605T227 595Z" />
<glyph unicode="k" glyph-name="k" horiz-adv-x="501" d="M269 0L164 182V0H0V769L166 779V357L288 517L480 520L294 272L482 0H269Z" />
<glyph unicode="l" glyph-name="l" horiz-adv-x="348" d="M326 19Q273 -5 216 -7T110 9T31 70T-1 174L0 721L174 777L181 214Q181 194 191 182T217 165T249 163T283 177L326 19Z" />
<glyph unicode="m" glyph-name="m" horiz-adv-x="803" d="M453 450Q465 472 483 487T523 512T570 526T619 529Q650 528 678 514T728 475T762 421T772 360L773 -1L598 0L594 280Q594 295 590 311T578 341T557 364T527 374Q518 374 508 371T490 362T478 348T475
330L482 3L294 1L293 281Q293 298 291 314T282 342T264 361T235 368Q224 368 212 365T190 354T174 337T168 314V-1H0V516L152 522L151 457Q179 492 221 507T307 527Q328 529 350 525T392 510T428 485T453 450Z" />
<glyph unicode="n" glyph-name="n" horiz-adv-x="537" d="M0 511L160 514V435Q189 470 234 494T326 519Q362 519 393 502T446 458T482 397T495 329L494 0H322L328 266Q329 301 310 324T259 347Q243 347 227 342T198 327T175 306T165 281Q164 212 163 141T162 0H0V511Z" />
<glyph unicode="o" glyph-name="o" horiz-adv-x="593" d="M562 268Q562 213 539 164T477 77T388 18T284 -4Q231 -4 181 16T90 72T25 156T-2 259Q-4 320 22 369T91 453T188 505T297 522Q346 521 393 501T478 446T539 365T562 268ZM287 163Q331 162 356 190T381
258Q381 294 356 321T292 350Q273 350 254 345T221 328T197 301T189 264Q190 222 215 193T287 163Z" />
<glyph unicode="p" glyph-name="p" horiz-adv-x="591" d="M159 446Q167 473 184 487T224 509T268 517T307 519Q358 519 401 496T476 434T525 346T542 244Q542 197 526 152T480 72T411 16T321 -5Q298 -5 280 -2T244 8T211 25T175 49L198 -272H0V520L149 519L159
446ZM175 270Q175 250 182 230T201 194T231 168T270 158Q291 158 310 163T344 181T367 212T373 261Q371 290 362 308T337 337T303 352T265 359Q247 361 231 354T202 333T182 303T175 270Z" />
<glyph unicode="q" glyph-name="q" horiz-adv-x="610" d="M384 30Q365 19 323 6T235 -7Q185 -7 143 15T70 74T22 155T5 247Q3 298 20 347T72 434T154 495T263 518Q274 518 290 517T324 510T362 491T402 453L403 514L570 510V-273H381L384 30ZM386 263Q386 279
379 296T360 326T331 346T296 352Q276 350 258 346T224 330T200 301T188 254Q186 225 194 206T216 174T250 157T291 151Q312 151 329 161T359 187T379 223T386 263Z" />
<glyph unicode="r" glyph-name="r" horiz-adv-x="445" d="M1 511H173L172 436Q180 457 193 473T223 499T257 514T290 519Q318 519 355 507T425 454L358 305Q344 322 330 330T303 341Q289 344 276 342Q242 342 222 322T191 272T177 206T173 139V-7H1V511Z" />
<glyph unicode="s" glyph-name="s" horiz-adv-x="444" d="M350 336Q324 351 306 359T273 371T246 378T221 381Q212 382 200 382T177 378T159 370T151 355Q151 345 158 340T176 331T200 328T226 327Q314 327 364 286T414 171Q414 131 395 98T345 41T276 4T198 -10Q139
-10 80 11T-16 77L77 186Q97 167 126 156T186 144Q195 144 207 145T229 149T246 158T253 173Q253 193 235 196T180 199Q150 199 119 210T62 242T20 292T3 356Q3 395 22 427T71 481T138 515T213 526Q271 524 323 501T414 442L350 336Z" />
<glyph unicode="t" glyph-name="t" horiz-adv-x="460" d="M6 520H86L89 631L244 651L251 525L357 524L380 383H251L252 228Q252 213 254 199T262 172T278 153T304 145Q326 145 340 148T366 157T387 173T408 196L450 54Q433 33 413 21T371 1T325 -8T274 -12Q241
-13 208 -6T149 19T105 67T83 144Q78 204 80 263T78 383L17 385L6 520Z" />
<glyph unicode="u" glyph-name="u" horiz-adv-x="518" d="M4 515H175L174 250Q174 234 177 219T189 191T212 170T250 162Q282 162 297 184T314 241L317 514H480V6H315V79Q306 61 295 47T266 22T224 7T162 2Q120 2 89 16T39 55T10 115T1 192L4 515Z" />
<glyph unicode="v" glyph-name="v" horiz-adv-x="493" d="M0 515H176L227 214L316 517H500L332 0H99L0 515Z" />
<glyph unicode="w" glyph-name="w" horiz-adv-x="692" d="M189 513L232 262L278 465L387 446L451 268L501 517H663L522 0H383L336 176L289 0H151L1 513H189Z" />
<glyph unicode="x" glyph-name="x" horiz-adv-x="579" d="M393 250L571 0H375L284 108L195 2H-2L160 256L17 500L176 518L277 387L373 511H550L393 250Z" />
<glyph unicode="y" glyph-name="y" horiz-adv-x="596" d="M416 -10Q399 -79 371 -129T305 -212T224 -260T135 -276Q59 -267 -9 -233L29 -64Q48 -78 72 -83T119 -93Q133 -96 148 -93T176 -80T195 -52T198 -6L2 513L206 520L299 182L366 520L567 532L416 -10Z" />
<glyph unicode="z" glyph-name="z" horiz-adv-x="436" d="M12 514H394L405 393L247 134L408 135L419 1H-2V113L195 378L12 375V514Z" />
<glyph unicode="{" glyph-name="braceleft" horiz-adv-x="323" d="M153 378Q189 346 199 312T210 245Q210 225 209 208T207 176Q207 154 215 142T253 129Q266 129 286 132L306 2Q286 0 269 -1T235 -3Q177 -3 144 11T94 47T73 98T68 155V196Q68 215 66 232T57 263T37
283T0 291V437Q22 439 35 447T56 468T65 498T67 534Q67 548 66 562T65 592Q65 621 70 648T93 698T145 733T239 746Q254 746 270 745T306 742L286 610Q263 614 245 614Q214 614 205 602T196 567Q196 553 198 536T200 498Q200 469 191 438T153 378Z" />
<glyph unicode="|" glyph-name="bar" horiz-adv-x="204" d="M-1 794H163V-104L-1 -92V794Z" />
<glyph unicode="}" glyph-name="braceright" horiz-adv-x="342" d="M153 378Q124 407 115 438T106 498Q106 518 108 535T110 567Q110 589 101 601T61 614Q53 614 43 613T20 610L1 742Q20 744 36 745T68 746Q127 746 161 733T213 698T236 649T241 592Q241 577 241
563T240 534Q240 515 242 498T251 468T271 447T307 437V291Q284 291 271 284T250 263T241 233T239 196V155Q239 126 235 98T214 48T164 11T72 -3Q56 -3 39 -2T1 2L20 132Q39 129 53 129Q82 129 90 141T98 176Q98 190 97 207T95 244Q95 276 105 311T153 378Z" />
<glyph unicode="~" glyph-name="asciitilde" horiz-adv-x="409" d="M-3 639Q10 679 24 705T55 747T89 769T123 775Q142 775 160 770T196 757T229 745T256 739Q267 739 275 746T286 772L386 761Q378 718 367 690T343 645T315 621T284 614Q265 614 246 621T207 636T171
652T141 659Q130 659 122 652T108 628L-3 639Z" />
</font>
</defs>
</svg>
